<svg xmlns="http://www.w3.org/2000/svg" xmlns:svg="http://www.w3.org/2000/svg" xmlns:xlink="http://www.w3.org/1999/xlink" id="Layer_1" width="100%" height="100%" x="0" y="0" enable-background="new 0 0 1630 523" version="1.1" viewBox="0 0 1630 523" xml:space="preserve"><metadata id="metadata1181"/><style id="style3" type="text/css">.st0{fill:#79c6ff}.st1{fill:#56a8fd}.st2{fill:#5294e9}.st3{fill:#3a6eb4}.st4{fill:#0e212f}.st5{fill:#fff}.st6{fill:#dfe3e6}.st7{fill:#8c9ba6}.st8{fill:#5a6873}.st9{fill:#2c3f4a}.st10{fill:#6d7b86}.st11{font-family:&apos;HelvNeueBoldforIBM&apos;}.st12{font-size:21px}</style><switch id="switch5"><g id="g9"><title id="title11">documentation-bank-orgs-V01-ML</title><polygon id="polygon13" points="105.1 143 68.1 163 68.1 203 105.1 223 142.1 203 142.1 163" class="st0"/><polygon id="polygon15" points="105.1 223 68.1 243 68.1 283 105.1 303 142.1 283 142.1 243" class="st1"/><polygon id="polygon17" points="105.1 303 68.1 323 68.1 363 105.1 383 142.1 363 142.1 323" class="st2"/><polygon id="polygon19" points="105.1 383 68.1 403 68.1 443 105.1 463 142.1 443 142.1 403" class="st3"/><path id="path21" d="M112.1,263c0-3.6-2.6-6.7-6-7.3v-64.2h-0.7c3.8-0.4,6.7-3.6,6.7-7.5c0-4.1-3.4-7.5-7.5-7.5s-7.5,3.4-7.5,7.5 c0,3.9,2.9,7,6.7,7.5h-0.7v64.2c-3.4,0.7-6,3.7-6,7.3s2.6,6.7,6,7.3v64.3c-3.4,0.7-6,3.7-6,7.3s2.6,6.7,6,7.3v65.3 c-3.4,0.7-6,3.7-6,7.3c0,4.1,3.4,7.5,7.5,7.5s7.5-3.4,7.5-7.5c0-3.6-2.6-6.7-6-7.3v-65.3c3.4-0.7,6-3.7,6-7.3s-2.6-6.7-6-7.3 v-64.3C109.6,269.7,112.1,266.6,112.1,263z" class="st4"/><circle id="circle23" cx="105" cy="184" r="4.5" class="st5"/><circle id="circle25" cx="105" cy="263" r="4.5" class="st5"/><circle id="circle27" cx="105" cy="342" r="4.5" class="st5"/><circle id="circle29" cx="105" cy="422" r="4.5" class="st5"/><polygon id="polygon31" points="481.1 142 444.1 162 444.1 202 481.1 222 518.1 202 518.1 162" class="st6"/><polygon id="polygon33" points="481.1 222 444.1 242 444.1 282 481.1 302 518.1 282 518.1 242" class="st7"/><polygon id="polygon35" points="481.1 302 444.1 322 444.1 362 481.1 382 518.1 362 518.1 322" class="st8"/><polygon id="polygon37" points="481.1 382 444.1 402 444.1 442 481.1 462 518.1 442 518.1 402" class="st9"/><path id="path39" d="M488.1,262c0-3.6-2.6-6.7-6-7.3v-64.2h-0.7c3.8-0.4,6.7-3.6,6.7-7.5c0-4.1-3.4-7.5-7.5-7.5s-7.5,3.4-7.5,7.5 c0,3.9,2.9,7,6.7,7.5h-0.7v64.2c-3.4,0.7-6,3.7-6,7.3s2.6,6.7,6,7.3v64.3c-3.4,0.7-6,3.7-6,7.3s2.6,6.7,6,7.3v65.3 c-3.4,0.7-6,3.7-6,7.3c0,4.1,3.4,7.5,7.5,7.5s7.5-3.4,7.5-7.5c0-3.6-2.6-6.7-6-7.3v-65.3c3.4-0.7,6-3.7,6-7.3s-2.6-6.7-6-7.3 v-64.3C485.6,268.7,488.1,265.6,488.1,262z" class="st4"/><circle id="circle41" cx="481" cy="183" r="4.5" class="st5"/><circle id="circle43" cx="481" cy="262" r="4.5" class="st5"/><circle id="circle45" cx="481" cy="341" r="4.5" class="st5"/><circle id="circle47" cx="481" cy="421" r="4.5" class="st5"/><path id="path49" d="M36.6,73v417h356V73H36.6z M390.1,487.4h-351v-412h351V487.4z" class="st7"/><path id="path51" d="M407.6,73v417h356V73H407.6z M761.1,487.4h-351v-412h351V487.4z" class="st7"/><g id="g53"><rect id="rect55" width="10" height="3" x=".1" class="st6"/><rect id="rect57" width="10" height="3" x="20.1" class="st6"/><rect id="rect59" width="10" height="3" x="40.1" class="st6"/><rect id="rect61" width="10" height="3" x="60.1" class="st6"/><rect id="rect63" width="10" height="3" x="80.1" class="st6"/><rect id="rect65" width="10" height="3" x="100.1" class="st6"/><rect id="rect67" width="10" height="3" x="120.1" class="st6"/><rect id="rect69" width="10" height="3" x="140.1" class="st6"/><rect id="rect71" width="10" height="3" x="160.1" class="st6"/><rect id="rect73" width="10" height="3" x="180.1" class="st6"/><rect id="rect75" width="10" height="3" x="200.1" class="st6"/><rect id="rect77" width="10" height="3" x="220.1" class="st6"/><rect id="rect79" width="10" height="3" x="240.1" class="st6"/><rect id="rect81" width="10" height="3" x="260.1" class="st6"/><rect id="rect83" width="10" height="3" x="280.1" class="st6"/><rect id="rect85" width="10" height="3" x="300.1" class="st6"/><rect id="rect87" width="10" height="3" x="320.1" class="st6"/><rect id="rect89" width="10" height="3" x="340.1" class="st6"/><rect id="rect91" width="10" height="3" x="360.1" class="st6"/><rect id="rect93" width="10" height="3" x="380.1" class="st6"/><rect id="rect95" width="10" height="3" x="400.1" class="st6"/><rect id="rect97" width="10" height="3" x="420.1" class="st6"/><rect id="rect99" width="10" height="3" x="440.1" class="st6"/><rect id="rect101" width="10" height="3" x="460.1" class="st6"/><rect id="rect103" width="10" height="3" x="480.1" class="st6"/><rect id="rect105" width="10" height="3" x="500.1" class="st6"/><rect id="rect107" width="10" height="3" x="520.1" class="st6"/><rect id="rect109" width="10" height="3" x="540.1" class="st6"/><rect id="rect111" width="10" height="3" x="560.1" class="st6"/><rect id="rect113" width="3" height="10" x=".1" y="10.5" class="st6"/><rect id="rect115" width="3" height="10" x=".1" y="30.5" class="st6"/><rect id="rect117" width="3" height="10" x=".1" y="50.5" class="st6"/><rect id="rect119" width="3" height="10" x=".1" y="70.5" class="st6"/><rect id="rect121" width="3" height="10" x=".1" y="90.5" class="st6"/><rect id="rect123" width="3" height="10" x=".1" y="110.5" class="st6"/><rect id="rect125" width="3" height="10" x=".1" y="130.5" class="st6"/><rect id="rect127" width="3" height="10" x=".1" y="150.5" class="st6"/><rect id="rect129" width="3" height="10" x=".1" y="170.5" class="st6"/><rect id="rect131" width="3" height="10" x=".1" y="190.5" class="st6"/><rect id="rect133" width="3" height="10" x=".1" y="210.5" class="st6"/><rect id="rect135" width="3" height="10" x=".1" y="230.5" class="st6"/><rect id="rect137" width="3" height="10" x=".1" y="250.5" class="st6"/><rect id="rect139" width="3" height="10" x=".1" y="270.5" class="st6"/><rect id="rect141" width="3" height="10" x=".1" y="290.5" class="st6"/><rect id="rect143" width="3" height="10" x=".1" y="310.5" class="st6"/><rect id="rect145" width="3" height="10" x=".1" y="330.5" class="st6"/><rect id="rect147" width="3" height="10" x=".1" y="350.5" class="st6"/><rect id="rect149" width="3" height="10" x=".1" y="370.5" class="st6"/><rect id="rect151" width="3" height="10" x=".1" y="390.5" class="st6"/><rect id="rect153" width="3" height="10" x=".1" y="410.5" class="st6"/><rect id="rect155" width="10" height="3" x="580.1" class="st6"/><rect id="rect157" width="10" height="3" x="600.1" class="st6"/><rect id="rect159" width="10" height="3" x="620.1" class="st6"/><rect id="rect161" width="10" height="3" x="640.1" class="st6"/><rect id="rect163" width="10" height="3" x="660.1" class="st6"/><rect id="rect165" width="10" height="3" x="680.1" class="st6"/><rect id="rect167" width="10" height="3" x="700.1" class="st6"/><rect id="rect169" width="10" height="3" x="720.1" class="st6"/><rect id="rect171" width="10" height="3" x="740.1" class="st6"/><rect id="rect173" width="10" height="3" x="760.1" class="st6"/><rect id="rect175" width="10" height="3" x="780.1" class="st6"/><rect id="rect177" width="10" height="3" x="20.1" y="520" class="st6"/><rect id="rect179" width="10" height="3" x="40.1" y="520" class="st6"/><rect id="rect181" width="10" height="3" x="60.1" y="520" class="st6"/><rect id="rect183" width="10" height="3" x="80.1" y="520" class="st6"/><rect id="rect185" width="10" height="3" x="100.1" y="520" class="st6"/><rect id="rect187" width="10" height="3" x="120.1" y="520" class="st6"/><rect id="rect189" width="10" height="3" x="140.1" y="520" class="st6"/><rect id="rect191" width="10" height="3" x="160.1" y="520" class="st6"/><rect id="rect193" width="10" height="3" x="180.1" y="520" class="st6"/><rect id="rect195" width="10" height="3" x="200.1" y="520" class="st6"/><rect id="rect197" width="10" height="3" x="220.1" y="520" class="st6"/><rect id="rect199" width="10" height="3" x="240.1" y="520" class="st6"/><rect id="rect201" width="10" height="3" x="260.1" y="520" class="st6"/><rect id="rect203" width="10" height="3" x="280.1" y="520" class="st6"/><rect id="rect205" width="10" height="3" x="300.1" y="520" class="st6"/><rect id="rect207" width="10" height="3" x="320.1" y="520" class="st6"/><rect id="rect209" width="10" height="3" x="340.1" y="520" class="st6"/><rect id="rect211" width="10" height="3" x="360.1" y="520" class="st6"/><rect id="rect213" width="10" height="3" x="380.1" y="520" class="st6"/><rect id="rect215" width="10" height="3" x="400.1" y="520" class="st6"/><rect id="rect217" width="10" height="3" x="420.1" y="520" class="st6"/><rect id="rect219" width="10" height="3" x="440.1" y="520" class="st6"/><rect id="rect221" width="10" height="3" x="460.1" y="520" class="st6"/><rect id="rect223" width="10" height="3" x="480.1" y="520" class="st6"/><rect id="rect225" width="10" height="3" x="500.1" y="520" class="st6"/><rect id="rect227" width="10" height="3" x="520.1" y="520" class="st6"/><rect id="rect229" width="10" height="3" x="540.1" y="520" class="st6"/><rect id="rect231" width="10" height="3" x="560.1" y="520" class="st6"/><rect id="rect233" width="10" height="3" x="580.1" y="520" class="st6"/><rect id="rect235" width="10" height="3" x="600.1" y="520" class="st6"/><rect id="rect237" width="10" height="3" x="620.1" y="520" class="st6"/><rect id="rect239" width="10" height="3" x="640.1" y="520" class="st6"/><rect id="rect241" width="10" height="3" x="660.1" y="520" class="st6"/><rect id="rect243" width="10" height="3" x="680.1" y="520" class="st6"/><rect id="rect245" width="10" height="3" x="700.1" y="520" class="st6"/><rect id="rect247" width="10" height="3" x="720.1" y="520" class="st6"/><rect id="rect249" width="10" height="3" x="740.1" y="520" class="st6"/><rect id="rect251" width="10" height="3" x="760.1" y="520" class="st6"/><rect id="rect253" width="10" height="3" x="780.1" y="520" class="st6"/><rect id="rect255" width="3" height="10" x=".1" y="430.5" class="st6"/><rect id="rect257" width="3" height="10" x=".1" y="450.5" class="st6"/><rect id="rect259" width="3" height="10" x=".1" y="470.5" class="st6"/><rect id="rect261" width="3" height="10" x=".1" y="490.5" class="st6"/><polygon id="polygon263" points="3.1 510.5 .1 510.5 .1 520 .1 520.5 .1 523 10.1 523 10.1 520 3.1 520" class="st6"/><rect id="rect265" width="3" height="10" x="797.1" y="100" class="st6"/><rect id="rect267" width="3" height="10" x="797.1" y="120" class="st6"/><rect id="rect269" width="3" height="10" x="797.1" y="140" class="st6"/><rect id="rect271" width="3" height="10" x="797.1" y="160" class="st6"/><rect id="rect273" width="3" height="10" x="797.1" y="180" class="st6"/><rect id="rect275" width="3" height="10" x="797.1" y="200" class="st6"/><rect id="rect277" width="3" height="10" x="797.1" y="220" class="st6"/><rect id="rect279" width="3" height="10" x="797.1" y="240" class="st6"/><rect id="rect281" width="3" height="10" x="797.1" y="260" class="st6"/><rect id="rect283" width="3" height="10" x="797.1" y="280" class="st6"/><rect id="rect285" width="3" height="10" x="797.1" y="300" class="st6"/><rect id="rect287" width="3" height="10" x="797.1" y="320" class="st6"/><rect id="rect289" width="3" height="10" x="797.1" y="340" class="st6"/><rect id="rect291" width="3" height="10" x="797.1" y="360" class="st6"/><rect id="rect293" width="3" height="10" x="797.1" y="380" class="st6"/><rect id="rect295" width="3" height="10" x="797.1" y="400" class="st6"/><rect id="rect297" width="3" height="10" x="797.1" class="st6"/><rect id="rect299" width="3" height="10" x="797.1" y="20" class="st6"/><rect id="rect301" width="3" height="10" x="797.1" y="40" class="st6"/><rect id="rect303" width="3" height="10" x="797.1" y="60" class="st6"/><rect id="rect305" width="3" height="10" x="797.1" y="80" class="st6"/><rect id="rect307" width="3" height="10" x="797.1" y="419" class="st6"/><rect id="rect309" width="3" height="10" x="797.1" y="439" class="st6"/><rect id="rect311" width="3" height="10" x="797.1" y="459" class="st6"/><rect id="rect313" width="3" height="10" x="797.1" y="479" class="st6"/><rect id="rect315" width="3" height="10" x="797.1" y="499" class="st6"/></g><polygon id="polygon317" points="932.2 143.4 895.2 163.4 895.2 203.4 932.2 223.4 969.2 203.4 969.2 163.4" class="st0"/><polygon id="polygon319" points="932.2 223.4 895.2 243.4 895.2 283.4 932.2 303.4 969.2 283.4 969.2 243.4" class="st1"/><polygon id="polygon321" points="932.2 303.4 895.2 323.4 895.2 363.4 932.2 383.4 969.2 363.4 969.2 323.4" class="st2"/><polygon id="polygon323" points="932.2 383.4 895.2 403.4 895.2 443.4 932.2 463.4 969.2 443.4 969.2 403.4" class="st3"/><path id="path325" d="M939.2,263.4c0-3.6-2.6-6.7-6-7.3v-64.2h-0.7c3.8-0.4,6.7-3.6,6.7-7.5c0-4.1-3.4-7.5-7.5-7.5 s-7.5,3.4-7.5,7.5c0,3.9,2.9,7,6.7,7.5h-0.7v64.2c-3.4,0.7-6,3.7-6,7.3s2.6,6.7,6,7.3v64.3c-3.4,0.7-6,3.7-6,7.3s2.6,6.7,6,7.3 v65.3c-3.4,0.7-6,3.7-6,7.3c0,4.1,3.4,7.5,7.5,7.5s7.5-3.4,7.5-7.5c0-3.6-2.6-6.7-6-7.3v-65.3c3.4-0.7,6-3.7,6-7.3s-2.6-6.7-6-7.3 v-64.3C936.6,270.1,939.2,267,939.2,263.4z" class="st4"/><circle id="circle327" cx="932.1" cy="184.4" r="4.5" class="st5"/><circle id="circle329" cx="932.1" cy="263.4" r="4.5" class="st5"/><circle id="circle331" cx="932.1" cy="342.4" r="4.5" class="st5"/><circle id="circle333" cx="932.1" cy="422.4" r="4.5" class="st5"/><g id="g335"><path id="path337" d="M996.6,173.9h6.6c3,0,4.6,1.6,4.6,4.4s-1.6,4.5-4.6,4.4h-4.6v6.1h-2V173.9z M998.6,181.1h3.9 c2.3,0,3.3-1,3.3-2.8s-1-2.8-3.3-2.8h-3.9V181.1z" class="st10"/><path id="path339" d="M1009.6,178.1h1.7v2.3h0c0.9-1.8,2.1-2.6,4-2.5v1.9c-2.9,0-3.9,1.6-3.9,4.4v4.8h-1.8V178.1z" class="st10"/><path id="path341" d="M1020.9,177.8c3.4,0,5.3,2.5,5.3,5.7c0,3.2-1.8,5.7-5.3,5.7s-5.3-2.5-5.3-5.7 C1015.6,180.3,1017.5,177.8,1020.9,177.8z M1020.9,187.6c1.9,0,3.4-1.5,3.4-4.1s-1.5-4.1-3.4-4.1s-3.4,1.5-3.4,4.1 S1019,187.6,1020.9,187.6z" class="st10"/><path id="path343" d="M1037.9,188.9h-1.8v-1.5h0c-0.6,1.2-2,1.7-3.5,1.7c-3.3,0-5-2.6-5-5.7s1.6-5.6,5-5.6c1.1,0,2.7,0.4,3.5,1.7 h0v-5.6h1.8V188.9z M1032.8,187.6c2.4,0,3.3-2.1,3.3-4.1c0-2.1-1-4.1-3.4-4.1c-2.4,0-3.3,2.1-3.3,4.2 C1029.5,185.6,1030.5,187.6,1032.8,187.6z" class="st10"/><path id="path345" d="M1038.9,190.5h10.5v1h-10.5V190.5z" class="st10"/><path id="path347" d="M1055.1,173.9h2.2l5.9,15h-2.2l-1.6-4.5h-6.3l-1.7,4.5h-2.1L1055.1,173.9z M1053.6,182.7h5.1l-2.5-7h0 L1053.6,182.7z" class="st10"/><path id="path349" d="M1064.6,178.1h1.8v1.5h0c0.6-1.2,2-1.7,3.5-1.7c3.3,0,5,2.6,5,5.7c0,3.1-1.6,5.6-5,5.6 c-1.1,0-2.7-0.4-3.5-1.7h0v5.6h-1.8V178.1z M1069.6,179.4c-2.4,0-3.3,2.1-3.3,4.1c0,2.1,1,4.1,3.4,4.1c2.4,0,3.3-2.1,3.3-4.2 C1073,181.4,1071.9,179.4,1069.6,179.4z" class="st10"/><path id="path351" d="M1076.7,178.1h1.8v1.5h0c0.6-1.2,2-1.7,3.5-1.7c3.3,0,5,2.6,5,5.7c0,3.1-1.6,5.6-5,5.6 c-1.1,0-2.7-0.4-3.5-1.7h0v5.6h-1.8V178.1z M1081.7,179.4c-2.4,0-3.3,2.1-3.3,4.1c0,2.1,1,4.1,3.4,4.1c2.4,0,3.3-2.1,3.3-4.2 C1085.1,181.4,1084,179.4,1081.7,179.4z" class="st10"/><path id="path353" d="M1092.7,181.2l-4.9-7.3h2.4l3.7,5.9l3.9-5.9h2.2l-5,7.3l5.3,7.7h-2.4l-4-6.2l-4.2,6.2h-2.2L1092.7,181.2z" class="st10"/><path id="path355" d="M1100.1,190.5h10.5v1h-10.5V190.5z" class="st10"/><path id="path357" d="M1118,188.9h-2.3l-5.3-15h2.2l4.3,13h0l4.3-13h2.1L1118,188.9z" class="st10"/><path id="path359" d="M1130,188.9h-1.8v-10.7h-3.9v-1.4c2,0,3.9-0.5,4.3-2.8h1.4V188.9z" class="st10"/></g><g id="g361"><path id="path363" d="M1005.3,257.3c-0.2-2.2-1.6-3.1-3.7-3.1c-1.7,0-3.4,0.6-3.4,2.6c0,3.7,9.6,1.1,9.6,7c0,3.2-3.1,4.5-5.9,4.5 c-3.4,0-6.2-1.7-6.2-5.3h1.9c0,2.5,2.1,3.6,4.4,3.6c1.8,0,3.8-0.6,3.8-2.7c0-4.1-9.6-1.4-9.6-6.9c0-3,2.7-4.4,5.4-4.4 c3.1,0,5.4,1.4,5.5,4.7H1005.3z" class="st10"/><path id="path365" d="M1012.1,257.1h2.2v1.6h-2.2v6.7c0,0.8,0.2,1,1.3,1h0.8v1.6h-1.4c-1.8,0-2.6-0.4-2.6-2.4v-6.9h-1.8v-1.6h1.8 v-3.3h1.8V257.1z" class="st10"/><path id="path367" d="M1025.5,267.9c-0.3,0.2-0.8,0.3-1.3,0.3c-0.9,0-1.5-0.5-1.5-1.7c-1,1.2-2.3,1.7-3.8,1.7c-2,0-3.6-0.9-3.6-3 c0-2.5,1.8-3,3.7-3.3c2-0.4,3.7-0.2,3.7-1.6c0-1.6-1.3-1.8-2.4-1.8c-1.5,0-2.6,0.5-2.7,2.1h-1.8c0.1-2.7,2.2-3.6,4.6-3.6 c2,0,4.1,0.4,4.1,3v5.6c0,0.8,0,1.2,0.6,1.2c0.2,0,0.4,0,0.5-0.1V267.9z M1022.6,262.3c-1.4,1-5.4,0-5.4,2.7c0,1.2,1,1.6,2.1,1.6 c2.4,0,3.3-1.4,3.3-2.5V262.3z" class="st10"/><path id="path369" d="M1036.4,267c0,3.5-1.6,5.3-5,5.3c-2,0-4.4-0.8-4.5-3.2h1.8c0.1,1.3,1.7,1.8,2.8,1.8c2.3,0,3.3-1.7,3.3-4.1 v-0.7h0c-0.6,1.3-2,2-3.4,2c-3.2,0-4.9-2.5-4.9-5.5c0-2.6,1.2-5.7,5-5.7c1.4,0,2.6,0.6,3.2,1.8h0v-1.6h1.7V267z M1034.6,262.3 c0-1.9-0.8-3.9-3.1-3.9c-2.3,0-3.2,1.9-3.2,3.9c0,2,0.7,4.1,3.1,4.1S1034.6,264.3,1034.6,262.3z" class="st10"/><path id="path371" d="M1048,264.5c-0.5,2.4-2.2,3.7-4.6,3.7c-3.5,0-5.1-2.4-5.2-5.7c0-3.3,2.1-5.6,5.1-5.6c3.8,0,5,3.6,4.9,6.2 h-8.1c-0.1,1.9,1,3.6,3.4,3.6c1.5,0,2.5-0.7,2.8-2.1H1048z M1046.2,261.4c-0.1-1.7-1.3-3.1-3.1-3.1c-1.8,0-3,1.4-3.1,3.1H1046.2z" class="st10"/><path id="path373" d="M1048.7,269.5h10.5v1h-10.5V269.5z" class="st10"/><path id="path375" d="M1064.9,252.9h2.2l5.9,15h-2.2l-1.6-4.5h-6.3l-1.7,4.5h-2.1L1064.9,252.9z M1063.4,261.7h5.1l-2.5-7h0 L1063.4,261.7z" class="st10"/><path id="path377" d="M1074.4,257.1h1.8v1.5h0c0.6-1.2,2-1.7,3.5-1.7c3.3,0,5,2.6,5,5.7c0,3.1-1.6,5.6-5,5.6 c-1.1,0-2.7-0.4-3.5-1.7h0v5.6h-1.8V257.1z M1079.4,258.4c-2.4,0-3.3,2.1-3.3,4.1c0,2.1,1,4.1,3.4,4.1c2.4,0,3.3-2.1,3.3-4.2 C1082.8,260.4,1081.7,258.4,1079.4,258.4z" class="st10"/><path id="path379" d="M1086.5,257.1h1.8v1.5h0c0.6-1.2,2-1.7,3.5-1.7c3.3,0,5,2.6,5,5.7c0,3.1-1.6,5.6-5,5.6 c-1.1,0-2.7-0.4-3.5-1.7h0v5.6h-1.8V257.1z M1091.5,258.4c-2.4,0-3.3,2.1-3.3,4.1c0,2.1,1,4.1,3.4,4.1c2.4,0,3.3-2.1,3.3-4.2 C1094.9,260.4,1093.8,258.4,1091.5,258.4z" class="st10"/><path id="path381" d="M1102.5,260.2l-4.9-7.3h2.4l3.7,5.9l3.9-5.9h2.2l-5,7.3l5.3,7.7h-2.4l-4-6.2l-4.2,6.2h-2.2L1102.5,260.2z" class="st10"/><path id="path383" d="M1109.9,269.5h10.5v1h-10.5V269.5z" class="st10"/><path id="path385" d="M1127.9,267.9h-2.3l-5.3-15h2.2l4.3,13h0l4.3-13h2.1L1127.9,267.9z" class="st10"/><path id="path387" d="M1139.8,267.9h-1.8v-10.7h-3.9v-1.4c2,0,3.9-0.5,4.3-2.8h1.4V267.9z" class="st10"/></g><g id="g389"><path id="path391" d="M1000.7,334.6h-5v-1.7h12v1.7h-5v13.3h-2V334.6z" class="st10"/><path id="path393" d="M1015.9,344.5c-0.5,2.4-2.2,3.7-4.6,3.7c-3.5,0-5.1-2.4-5.2-5.7c0-3.3,2.1-5.6,5.1-5.6c3.8,0,5,3.6,4.9,6.2 h-8.1c-0.1,1.9,1,3.6,3.4,3.6c1.5,0,2.5-0.7,2.8-2.1H1015.9z M1014.2,341.4c-0.1-1.7-1.3-3.1-3.1-3.1c-1.8,0-3,1.4-3.1,3.1 H1014.2z" class="st10"/><path id="path395" d="M1019,344.5c0.1,1.6,1.5,2.1,2.9,2.1c1.1,0,2.6-0.3,2.6-1.6c0-2.8-7.1-0.9-7.1-5.1c0-2.2,2.1-3.1,4.1-3.1 c2.4,0,4.3,0.8,4.5,3.4h-1.8c-0.1-1.4-1.4-1.8-2.5-1.8c-1.1,0-2.3,0.3-2.3,1.4c0,1.3,1.9,1.5,3.5,1.9c1.8,0.4,3.5,1,3.5,3.1 c0,2.6-2.4,3.4-4.6,3.4c-2.4,0-4.5-1-4.6-3.7H1019z" class="st10"/><path id="path397" d="M1030.6,337.1h2.2v1.6h-2.2v6.7c0,0.8,0.2,1,1.3,1h0.8v1.6h-1.4c-1.8,0-2.6-0.4-2.6-2.4v-6.9h-1.8v-1.6h1.8 v-3.3h1.8V337.1z" class="st10"/><path id="path399" d="M1033.3,349.5h10.5v1h-10.5V349.5z" class="st10"/><path id="path401" d="M1049.5,332.9h2.2l5.9,15h-2.2l-1.6-4.5h-6.3l-1.7,4.5h-2.1L1049.5,332.9z M1048,341.7h5.1l-2.5-7h0 L1048,341.7z" class="st10"/><path id="path403" d="M1059,337.1h1.8v1.5h0c0.6-1.2,2-1.7,3.5-1.7c3.3,0,5,2.6,5,5.7c0,3.1-1.6,5.6-5,5.6 c-1.1,0-2.7-0.4-3.5-1.7h0v5.6h-1.8V337.1z M1064,338.4c-2.4,0-3.3,2.1-3.3,4.1c0,2.1,1,4.1,3.4,4.1c2.4,0,3.3-2.1,3.3-4.2 C1067.4,340.4,1066.3,338.4,1064,338.4z" class="st10"/><path id="path405" d="M1071,337.1h1.8v1.5h0c0.6-1.2,2-1.7,3.5-1.7c3.3,0,5,2.6,5,5.7c0,3.1-1.6,5.6-5,5.6 c-1.1,0-2.7-0.4-3.5-1.7h0v5.6h-1.8V337.1z M1076.1,338.4c-2.4,0-3.3,2.1-3.3,4.1c0,2.1,1,4.1,3.4,4.1c2.4,0,3.3-2.1,3.3-4.2 C1079.4,340.4,1078.4,338.4,1076.1,338.4z" class="st10"/><path id="path407" d="M1087,340.2l-4.9-7.3h2.4l3.7,5.9l3.9-5.9h2.2l-5,7.3l5.3,7.7h-2.4l-4-6.2l-4.2,6.2h-2.2L1087,340.2z" class="st10"/><path id="path409" d="M1094.5,349.5h10.5v1h-10.5V349.5z" class="st10"/><path id="path411" d="M1112.4,347.9h-2.3l-5.3-15h2.2l4.3,13h0l4.3-13h2.1L1112.4,347.9z" class="st10"/><path id="path413" d="M1124.4,347.9h-1.8v-10.7h-3.9v-1.4c2,0,3.9-0.5,4.3-2.8h1.4V347.9z" class="st10"/></g><g id="g415"><path id="path417" d="M996.6,411.9h5.1c4.6,0,7.2,2.3,7.2,7.1c0,5-2.2,7.9-7.2,7.9h-5.1V411.9z M998.6,425.2h3.3 c1.4,0,5-0.4,5-5.9c0-3.6-1.3-5.7-5-5.7h-3.4V425.2z" class="st10"/><path id="path419" d="M1020.2,423.5c-0.5,2.4-2.2,3.7-4.6,3.7c-3.5,0-5.1-2.4-5.2-5.7c0-3.3,2.1-5.6,5.1-5.6c3.8,0,5,3.6,4.9,6.2 h-8.1c-0.1,1.9,1,3.6,3.4,3.6c1.5,0,2.5-0.7,2.8-2.1H1020.2z M1018.5,420.4c-0.1-1.7-1.3-3.1-3.1-3.1c-1.8,0-3,1.4-3.1,3.1 H1018.5z" class="st10"/><path id="path421" d="M1026.6,426.9h-1.9l-4-10.9h2l3,9h0l3-9h1.9L1026.6,426.9z" class="st10"/><path id="path423" d="M1030.7,428.5h10.5v1h-10.5V428.5z" class="st10"/><path id="path425" d="M1046.8,411.9h2.2l5.9,15h-2.2l-1.6-4.5h-6.3l-1.7,4.5h-2.1L1046.8,411.9z M1045.3,420.7h5.1l-2.5-7h0 L1045.3,420.7z" class="st10"/><path id="path427" d="M1056.3,416.1h1.8v1.5h0c0.6-1.2,2-1.7,3.5-1.7c3.3,0,5,2.6,5,5.7c0,3.1-1.6,5.6-5,5.6 c-1.1,0-2.7-0.4-3.5-1.7h0v5.6h-1.8V416.1z M1061.4,417.4c-2.4,0-3.3,2.1-3.3,4.1c0,2.1,1,4.1,3.4,4.1c2.4,0,3.3-2.1,3.3-4.2 C1064.7,419.4,1063.7,417.4,1061.4,417.4z" class="st10"/><path id="path429" d="M1068.4,416.1h1.8v1.5h0c0.6-1.2,2-1.7,3.5-1.7c3.3,0,5,2.6,5,5.7c0,3.1-1.6,5.6-5,5.6 c-1.1,0-2.7-0.4-3.5-1.7h0v5.6h-1.8V416.1z M1073.4,417.4c-2.4,0-3.3,2.1-3.3,4.1c0,2.1,1,4.1,3.4,4.1c2.4,0,3.3-2.1,3.3-4.2 C1076.8,419.4,1075.8,417.4,1073.4,417.4z" class="st10"/><path id="path431" d="M1084.4,419.2l-4.9-7.3h2.4l3.7,5.9l3.9-5.9h2.2l-5,7.3l5.3,7.7h-2.4l-4-6.2l-4.2,6.2h-2.2L1084.4,419.2z" class="st10"/><path id="path433" d="M1091.8,428.5h10.5v1h-10.5V428.5z" class="st10"/><path id="path435" d="M1109.8,426.9h-2.3l-5.3-15h2.2l4.3,13h0l4.3-13h2.1L1109.8,426.9z" class="st10"/><path id="path437" d="M1121.7,426.9h-1.8v-10.7h-3.9v-1.4c2,0,3.9-0.5,4.3-2.8h1.4V426.9z" class="st10"/></g><g id="g439"><path id="path441" d="M1372.6,173.9h6.6c3,0,4.6,1.6,4.6,4.4s-1.6,4.5-4.6,4.4h-4.6v6.1h-2V173.9z M1374.6,181.1h3.9 c2.3,0,3.3-1,3.3-2.8s-1-2.8-3.3-2.8h-3.9V181.1z" class="st10"/><path id="path443" d="M1385.6,178.1h1.7v2.3h0c0.9-1.8,2.1-2.6,4-2.5v1.9c-2.9,0-3.9,1.6-3.9,4.4v4.8h-1.8V178.1z" class="st10"/><path id="path445" d="M1396.9,177.8c3.4,0,5.3,2.5,5.3,5.7c0,3.2-1.8,5.7-5.3,5.7s-5.3-2.5-5.3-5.7 C1391.6,180.3,1393.5,177.8,1396.9,177.8z M1396.9,187.6c1.9,0,3.4-1.5,3.4-4.1s-1.5-4.1-3.4-4.1c-1.9,0-3.4,1.5-3.4,4.1 S1395,187.6,1396.9,187.6z" class="st10"/><path id="path447" d="M1413.9,188.9h-1.8v-1.5h0c-0.6,1.2-2,1.7-3.5,1.7c-3.3,0-5-2.6-5-5.7s1.6-5.6,5-5.6c1.1,0,2.7,0.4,3.5,1.7 h0v-5.6h1.8V188.9z M1408.8,187.6c2.4,0,3.3-2.1,3.3-4.1c0-2.1-1-4.1-3.4-4.1c-2.4,0-3.3,2.1-3.3,4.2 C1405.5,185.6,1406.5,187.6,1408.8,187.6z" class="st10"/><path id="path449" d="M1414.9,190.5h10.5v1h-10.5V190.5z" class="st10"/><path id="path451" d="M1431.1,173.9h2.2l5.9,15h-2.2l-1.6-4.5h-6.3l-1.7,4.5h-2.1L1431.1,173.9z M1429.6,182.7h5.1l-2.5-7h0 L1429.6,182.7z" class="st10"/><path id="path453" d="M1440.6,178.1h1.8v1.5h0c0.6-1.2,2-1.7,3.5-1.7c3.3,0,5,2.6,5,5.7c0,3.1-1.6,5.6-5,5.6 c-1.1,0-2.7-0.4-3.5-1.7h0v5.6h-1.8V178.1z M1445.6,179.4c-2.4,0-3.3,2.1-3.3,4.1c0,2.1,1,4.1,3.4,4.1c2.4,0,3.3-2.1,3.3-4.2 C1449,181.4,1447.9,179.4,1445.6,179.4z" class="st10"/><path id="path455" d="M1452.7,178.1h1.8v1.5h0c0.6-1.2,2-1.7,3.5-1.7c3.3,0,5,2.6,5,5.7c0,3.1-1.6,5.6-5,5.6 c-1.1,0-2.7-0.4-3.5-1.7h0v5.6h-1.8V178.1z M1457.7,179.4c-2.4,0-3.3,2.1-3.3,4.1c0,2.1,1,4.1,3.4,4.1c2.4,0,3.3-2.1,3.3-4.2 C1461.1,181.4,1460,179.4,1457.7,179.4z" class="st10"/><path id="path457" d="M1471.3,182.8v6.1h-2v-6.1l-5.8-8.9h2.4l4.5,7.1l4.4-7.1h2.3L1471.3,182.8z" class="st10"/><path id="path459" d="M1476.8,190.5h10.5v1h-10.5V190.5z" class="st10"/><path id="path461" d="M1494.8,188.9h-2.3l-5.3-15h2.2l4.3,13h0l4.3-13h2.1L1494.8,188.9z" class="st10"/><path id="path463" d="M1506.7,188.9h-1.8v-10.7h-3.9v-1.4c2,0,3.9-0.5,4.3-2.8h1.4V188.9z" class="st10"/></g><g id="g465"><path id="path467" d="M1381.3,257.3c-0.2-2.2-1.6-3.1-3.7-3.1c-1.7,0-3.4,0.6-3.4,2.6c0,3.7,9.6,1.1,9.6,7c0,3.2-3.1,4.5-5.9,4.5 c-3.4,0-6.2-1.7-6.2-5.3h1.9c0,2.5,2.1,3.6,4.4,3.6c1.8,0,3.8-0.6,3.8-2.7c0-4.1-9.6-1.4-9.6-6.9c0-3,2.7-4.4,5.4-4.4 c3.1,0,5.4,1.4,5.5,4.7H1381.3z" class="st10"/><path id="path469" d="M1388.1,257.1h2.2v1.6h-2.2v6.7c0,0.8,0.2,1,1.3,1h0.8v1.6h-1.4c-1.8,0-2.6-0.4-2.6-2.4v-6.9h-1.8v-1.6h1.8 v-3.3h1.8V257.1z" class="st10"/><path id="path471" d="M1401.5,267.9c-0.3,0.2-0.8,0.3-1.3,0.3c-0.9,0-1.5-0.5-1.5-1.7c-1,1.2-2.3,1.7-3.8,1.7c-2,0-3.6-0.9-3.6-3 c0-2.5,1.8-3,3.7-3.3c2-0.4,3.7-0.2,3.7-1.6c0-1.6-1.3-1.8-2.4-1.8c-1.5,0-2.6,0.5-2.7,2.1h-1.8c0.1-2.7,2.2-3.6,4.6-3.6 c2,0,4.1,0.4,4.1,3v5.6c0,0.8,0,1.2,0.6,1.2c0.2,0,0.4,0,0.5-0.1V267.9z M1398.6,262.3c-1.4,1-5.4,0-5.4,2.7c0,1.2,1,1.6,2.1,1.6 c2.4,0,3.3-1.4,3.3-2.5V262.3z" class="st10"/><path id="path473" d="M1412.4,267c0,3.5-1.6,5.3-5,5.3c-2,0-4.4-0.8-4.5-3.2h1.8c0.1,1.3,1.7,1.8,2.8,1.8c2.3,0,3.3-1.7,3.3-4.1 v-0.7h0c-0.6,1.3-2,2-3.4,2c-3.2,0-4.9-2.5-4.9-5.5c0-2.6,1.2-5.7,5-5.7c1.4,0,2.6,0.6,3.2,1.8h0v-1.6h1.7V267z M1410.6,262.3 c0-1.9-0.8-3.9-3.1-3.9c-2.3,0-3.2,1.9-3.2,3.9c0,2,0.7,4.1,3.1,4.1S1410.6,264.3,1410.6,262.3z" class="st10"/><path id="path475" d="M1424,264.5c-0.5,2.4-2.2,3.7-4.6,3.7c-3.5,0-5.1-2.4-5.2-5.7c0-3.3,2.1-5.6,5.1-5.6c3.8,0,5,3.6,4.9,6.2 h-8.1c-0.1,1.9,1,3.6,3.4,3.6c1.5,0,2.5-0.7,2.8-2.1H1424z M1422.2,261.4c-0.1-1.7-1.3-3.1-3.1-3.1c-1.8,0-3,1.4-3.1,3.1H1422.2z" class="st10"/><path id="path477" d="M1424.7,269.5h10.5v1h-10.5V269.5z" class="st10"/><path id="path479" d="M1440.9,252.9h2.2l5.9,15h-2.2l-1.6-4.5h-6.3l-1.7,4.5h-2.1L1440.9,252.9z M1439.4,261.7h5.1l-2.5-7h0 L1439.4,261.7z" class="st10"/><path id="path481" d="M1450.4,257.1h1.8v1.5h0c0.6-1.2,2-1.7,3.5-1.7c3.3,0,5,2.6,5,5.7c0,3.1-1.6,5.6-5,5.6 c-1.1,0-2.7-0.4-3.5-1.7h0v5.6h-1.8V257.1z M1455.4,258.4c-2.4,0-3.3,2.1-3.3,4.1c0,2.1,1,4.1,3.4,4.1c2.4,0,3.3-2.1,3.3-4.2 C1458.8,260.4,1457.7,258.4,1455.4,258.4z" class="st10"/><path id="path483" d="M1462.5,257.1h1.8v1.5h0c0.6-1.2,2-1.7,3.5-1.7c3.3,0,5,2.6,5,5.7c0,3.1-1.6,5.6-5,5.6 c-1.1,0-2.7-0.4-3.5-1.7h0v5.6h-1.8V257.1z M1467.5,258.4c-2.4,0-3.3,2.1-3.3,4.1c0,2.1,1,4.1,3.4,4.1c2.4,0,3.3-2.1,3.3-4.2 C1470.9,260.4,1469.8,258.4,1467.5,258.4z" class="st10"/><path id="path485" d="M1481.1,261.8v6.1h-2v-6.1l-5.8-8.9h2.4l4.5,7.1l4.4-7.1h2.3L1481.1,261.8z" class="st10"/><path id="path487" d="M1486.6,269.5h10.5v1h-10.5V269.5z" class="st10"/><path id="path489" d="M1504.6,267.9h-2.3l-5.3-15h2.2l4.3,13h0l4.3-13h2.1L1504.6,267.9z" class="st10"/><path id="path491" d="M1516.5,267.9h-1.8v-10.7h-3.9v-1.4c2,0,3.9-0.5,4.3-2.8h1.4V267.9z" class="st10"/></g><g id="g493"><path id="path495" d="M1376.7,334.6h-5v-1.7h12v1.7h-5v13.3h-2V334.6z" class="st10"/><path id="path497" d="M1391.9,344.5c-0.5,2.4-2.2,3.7-4.6,3.7c-3.5,0-5.1-2.4-5.2-5.7c0-3.3,2.1-5.6,5.1-5.6c3.8,0,5,3.6,4.9,6.2 h-8.1c-0.1,1.9,1,3.6,3.4,3.6c1.5,0,2.5-0.7,2.8-2.1H1391.9z M1390.2,341.4c-0.1-1.7-1.3-3.1-3.1-3.1c-1.8,0-3,1.4-3.1,3.1 H1390.2z" class="st10"/><path id="path499" d="M1395,344.5c0.1,1.6,1.5,2.1,2.9,2.1c1.1,0,2.6-0.3,2.6-1.6c0-2.8-7.1-0.9-7.1-5.1c0-2.2,2.1-3.1,4.1-3.1 c2.4,0,4.3,0.8,4.5,3.4h-1.8c-0.1-1.4-1.4-1.8-2.5-1.8c-1.1,0-2.3,0.3-2.3,1.4c0,1.3,1.9,1.5,3.5,1.9c1.8,0.4,3.5,1,3.5,3.1 c0,2.6-2.4,3.4-4.6,3.4c-2.4,0-4.5-1-4.6-3.7H1395z" class="st10"/><path id="path501" d="M1406.6,337.1h2.2v1.6h-2.2v6.7c0,0.8,0.2,1,1.3,1h0.8v1.6h-1.4c-1.8,0-2.6-0.4-2.6-2.4v-6.9h-1.8v-1.6h1.8 v-3.3h1.8V337.1z" class="st10"/><path id="path503" d="M1409.3,349.5h10.5v1h-10.5V349.5z" class="st10"/><path id="path505" d="M1425.5,332.9h2.2l5.9,15h-2.2l-1.6-4.5h-6.3l-1.7,4.5h-2.1L1425.5,332.9z M1424,341.7h5.1l-2.5-7h0 L1424,341.7z" class="st10"/><path id="path507" d="M1435,337.1h1.8v1.5h0c0.6-1.2,2-1.7,3.5-1.7c3.3,0,5,2.6,5,5.7c0,3.1-1.6,5.6-5,5.6 c-1.1,0-2.7-0.4-3.5-1.7h0v5.6h-1.8V337.1z M1440,338.4c-2.4,0-3.3,2.1-3.3,4.1c0,2.1,1,4.1,3.4,4.1c2.4,0,3.3-2.1,3.3-4.2 C1443.4,340.4,1442.3,338.4,1440,338.4z" class="st10"/><path id="path509" d="M1447,337.1h1.8v1.5h0c0.6-1.2,2-1.7,3.5-1.7c3.3,0,5,2.6,5,5.7c0,3.1-1.6,5.6-5,5.6 c-1.1,0-2.7-0.4-3.5-1.7h0v5.6h-1.8V337.1z M1452.1,338.4c-2.4,0-3.3,2.1-3.3,4.1c0,2.1,1,4.1,3.4,4.1c2.4,0,3.3-2.1,3.3-4.2 C1455.4,340.4,1454.4,338.4,1452.1,338.4z" class="st10"/><path id="path511" d="M1465.7,341.8v6.1h-2v-6.1l-5.8-8.9h2.4l4.5,7.1l4.4-7.1h2.3L1465.7,341.8z" class="st10"/><path id="path513" d="M1471.2,349.5h10.5v1h-10.5V349.5z" class="st10"/><path id="path515" d="M1489.2,347.9h-2.3l-5.3-15h2.2l4.3,13h0l4.3-13h2.1L1489.2,347.9z" class="st10"/><path id="path517" d="M1501.1,347.9h-1.8v-10.7h-3.9v-1.4c2,0,3.9-0.5,4.3-2.8h1.4V347.9z" class="st10"/></g><g id="g519"><path id="path521" d="M1372.6,411.9h5.1c4.6,0,7.2,2.3,7.2,7.1c0,5-2.2,7.9-7.2,7.9h-5.1V411.9z M1374.6,425.2h3.3 c1.4,0,5-0.4,5-5.9c0-3.6-1.3-5.7-5-5.7h-3.4V425.2z" class="st10"/><path id="path523" d="M1396.2,423.5c-0.5,2.4-2.2,3.7-4.6,3.7c-3.5,0-5.1-2.4-5.2-5.7c0-3.3,2.1-5.6,5.1-5.6c3.8,0,5,3.6,4.9,6.2 h-8.1c-0.1,1.9,1,3.6,3.4,3.6c1.5,0,2.5-0.7,2.8-2.1H1396.2z M1394.5,420.4c-0.1-1.7-1.3-3.1-3.1-3.1c-1.8,0-3,1.4-3.1,3.1 H1394.5z" class="st10"/><path id="path525" d="M1402.6,426.9h-1.9l-4-10.9h2l3,9h0l3-9h1.9L1402.6,426.9z" class="st10"/><path id="path527" d="M1406.7,428.5h10.5v1h-10.5V428.5z" class="st10"/><path id="path529" d="M1422.8,411.9h2.2l5.9,15h-2.2l-1.6-4.5h-6.3l-1.7,4.5h-2.1L1422.8,411.9z M1421.3,420.7h5.1l-2.5-7h0 L1421.3,420.7z" class="st10"/><path id="path531" d="M1432.3,416.1h1.8v1.5h0c0.6-1.2,2-1.7,3.5-1.7c3.3,0,5,2.6,5,5.7c0,3.1-1.6,5.6-5,5.6 c-1.1,0-2.7-0.4-3.5-1.7h0v5.6h-1.8V416.1z M1437.4,417.4c-2.4,0-3.3,2.1-3.3,4.1c0,2.1,1,4.1,3.4,4.1c2.4,0,3.3-2.1,3.3-4.2 C1440.7,419.4,1439.7,417.4,1437.4,417.4z" class="st10"/><path id="path533" d="M1444.4,416.1h1.8v1.5h0c0.6-1.2,2-1.7,3.5-1.7c3.3,0,5,2.6,5,5.7c0,3.1-1.6,5.6-5,5.6 c-1.1,0-2.7-0.4-3.5-1.7h0v5.6h-1.8V416.1z M1449.4,417.4c-2.4,0-3.3,2.1-3.3,4.1c0,2.1,1,4.1,3.4,4.1c2.4,0,3.3-2.1,3.3-4.2 C1452.8,419.4,1451.8,417.4,1449.4,417.4z" class="st10"/><path id="path535" d="M1463,420.8v6.1h-2v-6.1l-5.8-8.9h2.4l4.5,7.1l4.4-7.1h2.3L1463,420.8z" class="st10"/><path id="path537" d="M1468.6,428.5h10.5v1h-10.5V428.5z" class="st10"/><path id="path539" d="M1486.5,426.9h-2.3l-5.3-15h2.2l4.3,13h0l4.3-13h2.1L1486.5,426.9z" class="st10"/><path id="path541" d="M1498.5,426.9h-1.8v-10.7h-3.9v-1.4c2,0,3.9-0.5,4.3-2.8h1.4V426.9z" class="st10"/></g><polygon id="polygon543" points="1308.2 142.4 1271.2 162.4 1271.2 202.4 1308.2 222.4 1345.2 202.4 1345.2 162.4" class="st6"/><polygon id="polygon545" points="1308.2 222.4 1271.2 242.4 1271.2 282.4 1308.2 302.4 1345.2 282.4 1345.2 242.4" class="st7"/><polygon id="polygon547" points="1308.2 302.4 1271.2 322.4 1271.2 362.4 1308.2 382.4 1345.2 362.4 1345.2 322.4" class="st8"/><polygon id="polygon549" points="1308.2 382.4 1271.2 402.4 1271.2 442.4 1308.2 462.4 1345.2 442.4 1345.2 402.4" class="st9"/><path id="path551" d="M1315.2,262.4c0-3.6-2.6-6.7-6-7.3v-64.2h-0.7c3.8-0.4,6.7-3.6,6.7-7.5c0-4.1-3.4-7.5-7.5-7.5 s-7.5,3.4-7.5,7.5c0,3.9,2.9,7,6.7,7.5h-0.7v64.2c-3.4,0.7-6,3.7-6,7.3s2.6,6.7,6,7.3v64.3c-3.4,0.7-6,3.7-6,7.3s2.6,6.7,6,7.3 v65.3c-3.4,0.7-6,3.7-6,7.3c0,4.1,3.4,7.5,7.5,7.5s7.5-3.4,7.5-7.5c0-3.6-2.6-6.7-6-7.3v-65.3c3.4-0.7,6-3.7,6-7.3s-2.6-6.7-6-7.3 v-64.3C1312.6,269.1,1315.2,266,1315.2,262.4z" class="st4"/><circle id="circle553" cx="1308.1" cy="183.4" r="4.5" class="st5"/><circle id="circle555" cx="1308.1" cy="262.4" r="4.5" class="st5"/><circle id="circle557" cx="1308.1" cy="341.4" r="4.5" class="st5"/><circle id="circle559" cx="1308.1" cy="421.4" r="4.5" class="st5"/><path id="path561" d="M863.7,73.4v417h356v-417H863.7z M1217.2,487.8h-351v-412h351V487.8z" class="st7"/><path id="path563" d="M1234.7,73.4v417h356v-417H1234.7z M1588.2,487.8h-351v-412h351V487.8z" class="st7"/><g id="g565"><rect id="rect567" width="10" height="3" x="830" class="st6"/><rect id="rect569" width="10" height="3" x="850" class="st6"/><rect id="rect571" width="10" height="3" x="870" class="st6"/><rect id="rect573" width="10" height="3" x="890" class="st6"/><rect id="rect575" width="10" height="3" x="910" class="st6"/><rect id="rect577" width="10" height="3" x="930" class="st6"/><rect id="rect579" width="10" height="3" x="950" class="st6"/><rect id="rect581" width="10" height="3" x="970" class="st6"/><rect id="rect583" width="10" height="3" x="990" class="st6"/><rect id="rect585" width="10" height="3" x="1010" class="st6"/><rect id="rect587" width="10" height="3" x="1030" class="st6"/><rect id="rect589" width="10" height="3" x="1050" class="st6"/><rect id="rect591" width="10" height="3" x="1070" class="st6"/><rect id="rect593" width="10" height="3" x="1090" class="st6"/><rect id="rect595" width="10" height="3" x="1110" class="st6"/><rect id="rect597" width="10" height="3" x="1130" class="st6"/><rect id="rect599" width="10" height="3" x="1150" class="st6"/><rect id="rect601" width="10" height="3" x="1170" class="st6"/><rect id="rect603" width="10" height="3" x="1190" class="st6"/><rect id="rect605" width="10" height="3" x="1210" class="st6"/><rect id="rect607" width="10" height="3" x="1230" class="st6"/><rect id="rect609" width="10" height="3" x="1250" class="st6"/><rect id="rect611" width="10" height="3" x="1270" class="st6"/><rect id="rect613" width="10" height="3" x="1290" class="st6"/><rect id="rect615" width="10" height="3" x="1310" class="st6"/><rect id="rect617" width="10" height="3" x="1330" class="st6"/><rect id="rect619" width="10" height="3" x="1350" class="st6"/><rect id="rect621" width="10" height="3" x="1370" class="st6"/><rect id="rect623" width="10" height="3" x="1390" class="st6"/><rect id="rect625" width="3" height="10" x="830" y="10.5" class="st6"/><rect id="rect627" width="3" height="10" x="830" y="30.5" class="st6"/><rect id="rect629" width="3" height="10" x="830" y="50.5" class="st6"/><rect id="rect631" width="3" height="10" x="830" y="70.5" class="st6"/><rect id="rect633" width="3" height="10" x="830" y="90.5" class="st6"/><rect id="rect635" width="3" height="10" x="830" y="110.5" class="st6"/><rect id="rect637" width="3" height="10" x="830" y="130.5" class="st6"/><rect id="rect639" width="3" height="10" x="830" y="150.5" class="st6"/><rect id="rect641" width="3" height="10" x="830" y="170.5" class="st6"/><rect id="rect643" width="3" height="10" x="830" y="190.5" class="st6"/><rect id="rect645" width="3" height="10" x="830" y="210.5" class="st6"/><rect id="rect647" width="3" height="10" x="830" y="230.5" class="st6"/><rect id="rect649" width="3" height="10" x="830" y="250.5" class="st6"/><rect id="rect651" width="3" height="10" x="830" y="270.5" class="st6"/><rect id="rect653" width="3" height="10" x="830" y="290.5" class="st6"/><rect id="rect655" width="3" height="10" x="830" y="310.5" class="st6"/><rect id="rect657" width="3" height="10" x="830" y="330.5" class="st6"/><rect id="rect659" width="3" height="10" x="830" y="350.5" class="st6"/><rect id="rect661" width="3" height="10" x="830" y="370.5" class="st6"/><rect id="rect663" width="3" height="10" x="830" y="390.5" class="st6"/><rect id="rect665" width="3" height="10" x="830" y="410.5" class="st6"/><rect id="rect667" width="10" height="3" x="1410" class="st6"/><rect id="rect669" width="10" height="3" x="1430" class="st6"/><rect id="rect671" width="10" height="3" x="1450" class="st6"/><rect id="rect673" width="10" height="3" x="1470" class="st6"/><rect id="rect675" width="10" height="3" x="1490" class="st6"/><rect id="rect677" width="10" height="3" x="1510" class="st6"/><rect id="rect679" width="10" height="3" x="1530" class="st6"/><rect id="rect681" width="10" height="3" x="1550" class="st6"/><rect id="rect683" width="10" height="3" x="1570" class="st6"/><rect id="rect685" width="10" height="3" x="1590" class="st6"/><rect id="rect687" width="10" height="3" x="1610" class="st6"/><rect id="rect689" width="10" height="3" x="850" y="520" class="st6"/><rect id="rect691" width="10" height="3" x="870" y="520" class="st6"/><rect id="rect693" width="10" height="3" x="890" y="520" class="st6"/><rect id="rect695" width="10" height="3" x="910" y="520" class="st6"/><rect id="rect697" width="10" height="3" x="930" y="520" class="st6"/><rect id="rect699" width="10" height="3" x="950" y="520" class="st6"/><rect id="rect701" width="10" height="3" x="970" y="520" class="st6"/><rect id="rect703" width="10" height="3" x="990" y="520" class="st6"/><rect id="rect705" width="10" height="3" x="1010" y="520" class="st6"/><rect id="rect707" width="10" height="3" x="1030" y="520" class="st6"/><rect id="rect709" width="10" height="3" x="1050" y="520" class="st6"/><rect id="rect711" width="10" height="3" x="1070" y="520" class="st6"/><rect id="rect713" width="10" height="3" x="1090" y="520" class="st6"/><rect id="rect715" width="10" height="3" x="1110" y="520" class="st6"/><rect id="rect717" width="10" height="3" x="1130" y="520" class="st6"/><rect id="rect719" width="10" height="3" x="1150" y="520" class="st6"/><rect id="rect721" width="10" height="3" x="1170" y="520" class="st6"/><rect id="rect723" width="10" height="3" x="1190" y="520" class="st6"/><rect id="rect725" width="10" height="3" x="1210" y="520" class="st6"/><rect id="rect727" width="10" height="3" x="1230" y="520" class="st6"/><rect id="rect729" width="10" height="3" x="1250" y="520" class="st6"/><rect id="rect731" width="10" height="3" x="1270" y="520" class="st6"/><rect id="rect733" width="10" height="3" x="1290" y="520" class="st6"/><rect id="rect735" width="10" height="3" x="1310" y="520" class="st6"/><rect id="rect737" width="10" height="3" x="1330" y="520" class="st6"/><rect id="rect739" width="10" height="3" x="1350" y="520" class="st6"/><rect id="rect741" width="10" height="3" x="1370" y="520" class="st6"/><rect id="rect743" width="10" height="3" x="1390" y="520" class="st6"/><rect id="rect745" width="10" height="3" x="1410" y="520" class="st6"/><rect id="rect747" width="10" height="3" x="1430" y="520" class="st6"/><rect id="rect749" width="10" height="3" x="1450" y="520" class="st6"/><rect id="rect751" width="10" height="3" x="1470" y="520" class="st6"/><rect id="rect753" width="10" height="3" x="1490" y="520" class="st6"/><rect id="rect755" width="10" height="3" x="1510" y="520" class="st6"/><rect id="rect757" width="10" height="3" x="1530" y="520" class="st6"/><rect id="rect759" width="10" height="3" x="1550" y="520" class="st6"/><rect id="rect761" width="10" height="3" x="1570" y="520" class="st6"/><rect id="rect763" width="10" height="3" x="1590" y="520" class="st6"/><rect id="rect765" width="10" height="3" x="1610" y="520" class="st6"/><rect id="rect767" width="3" height="10" x="830" y="430.5" class="st6"/><rect id="rect769" width="3" height="10" x="830" y="450.5" class="st6"/><rect id="rect771" width="3" height="10" x="830" y="470.5" class="st6"/><rect id="rect773" width="3" height="10" x="830" y="490.5" class="st6"/><polygon id="polygon775" points="833 510.5 830 510.5 830 523 840 523 840 520 833 520" class="st6"/><rect id="rect777" width="3" height="10" x="1627" class="st6"/><rect id="rect779" width="3" height="10" x="1627" y="20" class="st6"/><rect id="rect781" width="3" height="10" x="1627" y="40" class="st6"/><rect id="rect783" width="3" height="10" x="1627" y="60" class="st6"/><rect id="rect785" width="3" height="10" x="1627" y="80" class="st6"/><rect id="rect787" width="3" height="10" x="1627" y="100" class="st6"/><rect id="rect789" width="3" height="10" x="1627" y="120" class="st6"/><rect id="rect791" width="3" height="10" x="1627" y="140" class="st6"/><rect id="rect793" width="3" height="10" x="1627" y="160" class="st6"/><rect id="rect795" width="3" height="10" x="1627" y="180" class="st6"/><rect id="rect797" width="3" height="10" x="1627" y="200" class="st6"/><rect id="rect799" width="3" height="10" x="1627" y="220" class="st6"/><rect id="rect801" width="3" height="10" x="1627" y="240" class="st6"/><rect id="rect803" width="3" height="10" x="1627" y="260" class="st6"/><rect id="rect805" width="3" height="10" x="1627" y="280" class="st6"/><rect id="rect807" width="3" height="10" x="1627" y="300" class="st6"/><rect id="rect809" width="3" height="10" x="1627" y="320" class="st6"/><rect id="rect811" width="3" height="10" x="1627" y="340" class="st6"/><rect id="rect813" width="3" height="10" x="1627" y="360" class="st6"/><rect id="rect815" width="3" height="10" x="1627" y="380" class="st6"/><rect id="rect817" width="3" height="10" x="1627" y="400" class="st6"/><rect id="rect819" width="3" height="10" x="1627" y="419" class="st6"/><rect id="rect821" width="3" height="10" x="1627" y="439" class="st6"/><rect id="rect823" width="3" height="10" x="1627" y="459" class="st6"/><rect id="rect825" width="3" height="10" x="1627" y="479" class="st6"/><rect id="rect827" width="3" height="10" x="1627" y="499" class="st6"/></g><text id="text829" class="st10 st11 st12" transform="matrix(1 0 0 1 36.9332 47)">Bank A - Retail Organization</text><text id="text831" class="st10 st11 st12" transform="matrix(1 0 0 1 864.0109 47.7661)">Bank A - Investment Organization</text><g id="g833"><path id="path835" d="M68.4,103.7h8.1c2.7,0,4.4,1.9,4.4,4.1c0,1.8-0.7,3.1-2.4,3.8v0c1.6,0.4,2.1,2,2.2,3.5 c0.1,0.9,0,2.7,0.6,3.5H78c-0.4-0.9-0.4-2.4-0.5-3.6c-0.2-1.6-0.8-2.3-2.5-2.3h-3.3v5.9h-3.3V103.7z M71.7,110.5h3.6 c1.5,0,2.3-0.6,2.3-2.1c0-1.4-0.8-2.1-2.3-2.1h-3.6V110.5z" class="st10"/><path id="path837" d="M84.8,114c0.1,1.9,1,2.8,2.7,2.8c1.2,0,2.2-0.7,2.4-1.4h2.6c-0.8,2.6-2.6,3.7-5.1,3.7 c-3.4,0-5.5-2.4-5.5-5.7c0-3.3,2.2-5.7,5.5-5.7c3.7,0,5.5,3.1,5.3,6.4H84.8z M89.7,112.1c-0.3-1.5-0.9-2.3-2.4-2.3 c-1.9,0-2.4,1.5-2.5,2.3H89.7z" class="st10"/><path id="path839" d="M97.8,107.8h2.2v2h-2.2v5.4c0,1,0.3,1.3,1.3,1.3c0.3,0,0.7,0,0.9-0.1v2.3c-0.5,0.1-1.2,0.1-1.7,0.1 c-1.8,0-3.4-0.4-3.4-2.6v-6.4H93v-2h1.8v-3.3h3V107.8z" class="st10"/><path id="path841" d="M101.3,111.1c0.2-2.8,2.7-3.6,5.1-3.6c2.2,0,4.8,0.5,4.8,3.1v5.6c0,1,0.1,2,0.4,2.4h-3 c-0.1-0.3-0.2-0.7-0.2-1c-0.9,1-2.3,1.3-3.7,1.3c-2.1,0-3.7-1-3.7-3.3c0-4.9,7.3-2.3,7.2-4.7c0-1.3-0.9-1.5-1.9-1.5 c-1.2,0-1.9,0.5-2,1.6H101.3z M108.2,113.4c-0.5,0.4-1.6,0.5-2.5,0.6s-1.8,0.5-1.8,1.6s0.9,1.4,1.8,1.4c2.3,0,2.4-1.8,2.4-2.5 V113.4z" class="st10"/><path id="path843" d="M116.2,106.1h-3v-2.5h3V106.1z M113.2,107.8h3v10.9h-3V107.8z" class="st10"/><path id="path845" d="M118.3,103.7h3v15h-3V103.7z" class="st10"/><path id="path847" d="M128.5,103.7h6.8c3.8,0,5.2,2.4,5.2,4.8s-1.4,4.8-5.2,4.8h-3.5v5.4h-3.3V103.7z M131.8,110.7h2.6 c1.5,0,2.9-0.3,2.9-2.2s-1.4-2.2-2.9-2.2h-2.6V110.7z" class="st10"/><path id="path849" d="M141.6,107.8h2.8v2h0c0.6-1.4,2-2.3,3.5-2.3c0.2,0,0.4,0,0.7,0.1v2.8c-0.3-0.1-0.7-0.1-1.1-0.1 c-2.2,0-2.9,1.6-2.9,3.5v4.9h-3V107.8z" class="st10"/><path id="path851" d="M154.5,107.5c3.4,0,5.6,2.3,5.6,5.7c0,3.4-2.2,5.7-5.6,5.7c-3.4,0-5.6-2.3-5.6-5.7 C148.9,109.8,151.1,107.5,154.5,107.5z M154.5,116.7c2,0,2.6-1.7,2.6-3.5s-0.6-3.5-2.6-3.5c-2,0-2.6,1.7-2.6,3.5 S152.5,116.7,154.5,116.7z" class="st10"/><path id="path853" d="M160.1,119.9c0.2,0.1,0.4,0.1,0.7,0.1c0.6,0,1.2-0.1,1.2-1v-11.3h3v11.4c0,2.2-0.8,3.3-3.8,3.3 c-0.3,0-0.7,0-1-0.1V119.9z M164.9,106.1h-3v-2.5h3V106.1z" class="st10"/><path id="path855" d="M169.5,114c0.1,1.9,1,2.8,2.7,2.8c1.2,0,2.2-0.7,2.4-1.4h2.6c-0.8,2.6-2.6,3.7-5.1,3.7 c-3.4,0-5.5-2.4-5.5-5.7c0-3.3,2.2-5.7,5.5-5.7c3.7,0,5.5,3.1,5.3,6.4H169.5z M174.3,112.1c-0.3-1.5-0.9-2.3-2.4-2.3 c-1.9,0-2.4,1.5-2.5,2.3H174.3z" class="st10"/><path id="path857" d="M186.2,111.6c-0.2-1.2-0.9-1.9-2.2-1.9c-1.9,0-2.5,1.9-2.5,3.5c0,1.6,0.6,3.4,2.5,3.4 c1.4,0,2.2-0.9,2.4-2.2h2.9c-0.4,2.9-2.4,4.5-5.2,4.5c-3.3,0-5.5-2.3-5.5-5.6c0-3.4,2-5.9,5.5-5.9c2.6,0,4.9,1.3,5.1,4.1H186.2z" class="st10"/><path id="path859" d="M194.6,107.8h2.2v2h-2.2v5.4c0,1,0.3,1.3,1.3,1.3c0.3,0,0.7,0,0.9-0.1v2.3c-0.5,0.1-1.2,0.1-1.7,0.1 c-1.8,0-3.4-0.4-3.4-2.6v-6.4h-1.8v-2h1.8v-3.3h3V107.8z" class="st10"/><path id="path861" d="M208,103.7h3.4l5.6,15h-3.4l-1.1-3.3h-5.6l-1.2,3.3h-3.3L208,103.7z M207.6,112.9h3.9l-1.9-5.5h0 L207.6,112.9z" class="st10"/></g><g id="g863"><path id="path865" d="M445.3,104.5h8.1c2.7,0,4.4,1.9,4.4,4.1c0,1.8-0.7,3.1-2.4,3.8v0c1.6,0.4,2.1,2,2.2,3.5 c0.1,0.9,0,2.7,0.6,3.5h-3.3c-0.4-0.9-0.4-2.4-0.5-3.6c-0.2-1.6-0.8-2.3-2.5-2.3h-3.3v5.9h-3.3V104.5z M448.6,111.3h3.6 c1.5,0,2.3-0.6,2.3-2.1c0-1.4-0.8-2.1-2.3-2.1h-3.6V111.3z" class="st10"/><path id="path867" d="M461.7,114.8c0.1,1.9,1,2.8,2.7,2.8c1.2,0,2.2-0.7,2.4-1.4h2.6c-0.8,2.6-2.6,3.7-5.1,3.7 c-3.4,0-5.5-2.4-5.5-5.7c0-3.3,2.2-5.7,5.5-5.7c3.7,0,5.5,3.1,5.3,6.4H461.7z M466.6,112.9c-0.3-1.5-0.9-2.3-2.4-2.3 c-1.9,0-2.4,1.5-2.5,2.3H466.6z" class="st10"/><path id="path869" d="M474.7,108.6h2.2v2h-2.2v5.4c0,1,0.3,1.3,1.3,1.3c0.3,0,0.7,0,0.9-0.1v2.3c-0.5,0.1-1.2,0.1-1.7,0.1 c-1.8,0-3.4-0.4-3.4-2.6v-6.4h-1.8v-2h1.8v-3.3h3V108.6z" class="st10"/><path id="path871" d="M478.2,112c0.2-2.8,2.7-3.6,5.1-3.6c2.2,0,4.8,0.5,4.8,3.1v5.6c0,1,0.1,2,0.4,2.4h-3 c-0.1-0.3-0.2-0.7-0.2-1c-0.9,1-2.3,1.3-3.7,1.3c-2.1,0-3.7-1-3.7-3.3c0-4.9,7.3-2.3,7.2-4.7c0-1.3-0.9-1.5-1.9-1.5 c-1.2,0-1.9,0.5-2,1.6H478.2z M485.1,114.2c-0.5,0.4-1.6,0.5-2.5,0.6s-1.8,0.5-1.8,1.6s0.9,1.4,1.8,1.4c2.3,0,2.4-1.8,2.4-2.5 V114.2z" class="st10"/><path id="path873" d="M493.1,107h-3v-2.5h3V107z M490.1,108.6h3v10.9h-3V108.6z" class="st10"/><path id="path875" d="M495.2,104.5h3v15h-3V104.5z" class="st10"/><path id="path877" d="M505.4,104.5h6.8c3.8,0,5.2,2.4,5.2,4.8s-1.4,4.8-5.2,4.8h-3.5v5.4h-3.3V104.5z M508.7,111.6h2.6 c1.5,0,2.9-0.3,2.9-2.2s-1.4-2.2-2.9-2.2h-2.6V111.6z" class="st10"/><path id="path879" d="M518.6,108.6h2.8v2h0c0.6-1.4,2-2.3,3.5-2.3c0.2,0,0.4,0,0.7,0.1v2.8c-0.3-0.1-0.7-0.1-1.1-0.1 c-2.2,0-2.9,1.6-2.9,3.5v4.9h-3V108.6z" class="st10"/><path id="path881" d="M531.4,108.4c3.4,0,5.6,2.3,5.6,5.7c0,3.4-2.2,5.7-5.6,5.7c-3.4,0-5.6-2.3-5.6-5.7 C525.8,110.6,528,108.4,531.4,108.4z M531.4,117.5c2,0,2.6-1.7,2.6-3.5s-0.6-3.5-2.6-3.5c-2,0-2.6,1.7-2.6,3.5 S529.4,117.5,531.4,117.5z" class="st10"/><path id="path883" d="M537,120.8c0.2,0.1,0.4,0.1,0.7,0.1c0.6,0,1.2-0.1,1.2-1v-11.3h3V120c0,2.2-0.8,3.3-3.8,3.3 c-0.3,0-0.7,0-1-0.1V120.8z M541.8,107h-3v-2.5h3V107z" class="st10"/><path id="path885" d="M546.4,114.8c0.1,1.9,1,2.8,2.7,2.8c1.2,0,2.2-0.7,2.4-1.4h2.6c-0.8,2.6-2.6,3.7-5.1,3.7 c-3.4,0-5.5-2.4-5.5-5.7c0-3.3,2.2-5.7,5.5-5.7c3.7,0,5.5,3.1,5.3,6.4H546.4z M551.2,112.9c-0.3-1.5-0.9-2.3-2.4-2.3 c-1.9,0-2.4,1.5-2.5,2.3H551.2z" class="st10"/><path id="path887" d="M563.1,112.5c-0.2-1.2-0.9-1.9-2.2-1.9c-1.9,0-2.5,1.9-2.5,3.5c0,1.6,0.6,3.4,2.5,3.4 c1.4,0,2.2-0.9,2.4-2.2h2.9c-0.4,2.9-2.4,4.5-5.2,4.5c-3.3,0-5.5-2.3-5.5-5.6c0-3.4,2-5.9,5.5-5.9c2.6,0,4.9,1.3,5.1,4.1H563.1z" class="st10"/><path id="path889" d="M571.6,108.6h2.2v2h-2.2v5.4c0,1,0.3,1.3,1.3,1.3c0.3,0,0.7,0,0.9-0.1v2.3c-0.5,0.1-1.2,0.1-1.7,0.1 c-1.8,0-3.4-0.4-3.4-2.6v-6.4h-1.8v-2h1.8v-3.3h3V108.6z" class="st10"/><path id="path891" d="M580.5,104.5h7.1c2.9,0,4.8,0.9,4.8,3.7c0,1.5-0.7,2.5-2,3.1c1.8,0.5,2.8,1.9,2.8,3.8c0,3-2.6,4.3-5.3,4.3 h-7.3V104.5z M583.8,110.6h3.3c1.2,0,2-0.5,2-1.8c0-1.4-1.1-1.7-2.3-1.7h-3.1V110.6z M583.8,116.9h3.5c1.3,0,2.4-0.4,2.4-2 c0-1.5-0.9-2.1-2.4-2.1h-3.6V116.9z" class="st10"/></g><g id="g893"><path id="path895" d="M896,103.7h3.3v15H896V103.7z" class="st10"/><path id="path897" d="M901.5,107.8h2.8v1.5h0.1c0.8-1.2,2.1-1.8,3.3-1.8c3.2,0,4,1.8,4,4.5v6.7h-3v-6.1c0-1.8-0.5-2.7-1.9-2.7 c-1.6,0-2.3,0.9-2.3,3.1v5.7h-3V107.8z" class="st10"/><path id="path899" d="M919.2,118.7h-3.3l-3.7-10.9h3.1l2.3,7.4h0l2.3-7.4h3L919.2,118.7z" class="st10"/><path id="path901" d="M925.8,114c0.1,1.9,1,2.8,2.7,2.8c1.2,0,2.2-0.7,2.4-1.4h2.6c-0.8,2.6-2.6,3.7-5.1,3.7 c-3.4,0-5.5-2.4-5.5-5.7c0-3.3,2.2-5.7,5.5-5.7c3.7,0,5.5,3.1,5.3,6.4H925.8z M930.6,112.1c-0.3-1.5-0.9-2.3-2.4-2.3 c-1.9,0-2.4,1.5-2.5,2.3H930.6z" class="st10"/><path id="path903" d="M937.5,115.1c0,1.3,1.1,1.8,2.3,1.8c0.8,0,2-0.3,2-1.4c0-0.9-1.3-1.2-3.4-1.7c-1.7-0.4-3.4-1-3.4-2.9 c0-2.8,2.4-3.5,4.7-3.5c2.4,0,4.6,0.8,4.8,3.5h-2.8c-0.1-1.2-1-1.5-2-1.5c-0.7,0-1.7,0.1-1.7,1c0,1.1,1.7,1.2,3.4,1.6 c1.7,0.4,3.4,1,3.4,3c0,2.9-2.5,3.8-5,3.8c-2.5,0-5-0.9-5.1-3.8H937.5z" class="st10"/><path id="path905" d="M949.8,107.8h2.2v2h-2.2v5.4c0,1,0.3,1.3,1.3,1.3c0.3,0,0.7,0,0.9-0.1v2.3c-0.5,0.1-1.2,0.1-1.7,0.1 c-1.8,0-3.4-0.4-3.4-2.6v-6.4H945v-2h1.8v-3.3h3V107.8z" class="st10"/><path id="path907" d="M953.6,107.8h2.8v1.5h0c0.8-1.1,1.9-1.8,3.3-1.8c1.4,0,2.6,0.5,3.2,1.8c0.7-0.9,1.8-1.8,3.3-1.8 c2.3,0,4,1.1,4,3.9v7.3h-3v-6.2c0-1.4-0.1-2.6-1.8-2.6c-1.7,0-2,1.4-2,2.8v6h-3v-6.1c0-1.3,0.1-2.7-1.8-2.7c-0.6,0-2,0.4-2,2.5 v6.3h-3V107.8z" class="st10"/><path id="path909" d="M974.6,114c0.1,1.9,1,2.8,2.7,2.8c1.2,0,2.2-0.7,2.4-1.4h2.6c-0.8,2.6-2.6,3.7-5.1,3.7 c-3.4,0-5.5-2.4-5.5-5.7c0-3.3,2.2-5.7,5.5-5.7c3.7,0,5.5,3.1,5.3,6.4H974.6z M979.5,112.1c-0.3-1.5-0.9-2.3-2.4-2.3 c-1.9,0-2.4,1.5-2.5,2.3H979.5z" class="st10"/><path id="path911" d="M984,107.8h2.8v1.5h0.1c0.8-1.2,2.1-1.8,3.3-1.8c3.2,0,4,1.8,4,4.5v6.7h-3v-6.1c0-1.8-0.5-2.7-1.9-2.7 c-1.6,0-2.3,0.9-2.3,3.1v5.7h-3V107.8z" class="st10"/><path id="path913" d="M999.6,107.8h2.2v2h-2.2v5.4c0,1,0.3,1.3,1.3,1.3c0.3,0,0.7,0,0.9-0.1v2.3c-0.5,0.1-1.2,0.1-1.7,0.1 c-1.8,0-3.4-0.4-3.4-2.6v-6.4h-1.8v-2h1.8v-3.3h3V107.8z" class="st10"/><path id="path915" d="M1008.6,103.7h6.8c3.8,0,5.2,2.4,5.2,4.8s-1.4,4.8-5.2,4.8h-3.5v5.4h-3.3V103.7z M1011.9,110.7h2.6 c1.5,0,2.9-0.3,2.9-2.2c0-1.9-1.4-2.2-2.9-2.2h-2.6V110.7z" class="st10"/><path id="path917" d="M1021.7,107.8h2.8v2h0c0.6-1.4,2-2.3,3.5-2.3c0.2,0,0.4,0,0.7,0.1v2.8c-0.3-0.1-0.7-0.1-1.1-0.1 c-2.2,0-2.9,1.6-2.9,3.5v4.9h-3V107.8z" class="st10"/><path id="path919" d="M1034.5,107.5c3.4,0,5.6,2.3,5.6,5.7c0,3.4-2.2,5.7-5.6,5.7c-3.4,0-5.6-2.3-5.6-5.7 C1028.9,109.8,1031.1,107.5,1034.5,107.5z M1034.5,116.7c2,0,2.6-1.7,2.6-3.5c0-1.7-0.6-3.5-2.6-3.5c-2,0-2.6,1.7-2.6,3.5 C1031.9,115,1032.5,116.7,1034.5,116.7z" class="st10"/><path id="path921" d="M1040.1,119.9c0.2,0.1,0.4,0.1,0.7,0.1c0.6,0,1.2-0.1,1.2-1v-11.3h3v11.4c0,2.2-0.8,3.3-3.8,3.3 c-0.3,0-0.7,0-1-0.1V119.9z M1044.9,106.1h-3v-2.5h3V106.1z" class="st10"/><path id="path923" d="M1049.5,114c0.1,1.9,1,2.8,2.7,2.8c1.2,0,2.2-0.7,2.4-1.4h2.6c-0.8,2.6-2.6,3.7-5.1,3.7 c-3.4,0-5.5-2.4-5.5-5.7c0-3.3,2.2-5.7,5.5-5.7c3.7,0,5.5,3.1,5.3,6.4H1049.5z M1054.3,112.1c-0.3-1.5-0.9-2.3-2.4-2.3 c-1.9,0-2.4,1.5-2.5,2.3H1054.3z" class="st10"/><path id="path925" d="M1066.2,111.6c-0.2-1.2-0.9-1.9-2.2-1.9c-1.9,0-2.5,1.9-2.5,3.5c0,1.6,0.6,3.4,2.5,3.4 c1.4,0,2.2-0.9,2.4-2.2h2.9c-0.4,2.9-2.4,4.5-5.2,4.5c-3.3,0-5.5-2.3-5.5-5.6c0-3.4,2-5.9,5.5-5.9c2.6,0,4.9,1.3,5.1,4.1H1066.2z" class="st10"/><path id="path927" d="M1074.7,107.8h2.2v2h-2.2v5.4c0,1,0.3,1.3,1.3,1.3c0.3,0,0.7,0,0.9-0.1v2.3c-0.5,0.1-1.2,0.1-1.7,0.1 c-1.8,0-3.4-0.4-3.4-2.6v-6.4h-1.8v-2h1.8v-3.3h3V107.8z" class="st10"/><path id="path929" d="M1087.5,110.8l-4.8-7.1h3.8l2.9,4.8l3-4.8h3.6l-4.8,7.2l5.2,7.8h-3.9l-3.3-5.2l-3.3,5.2h-3.7L1087.5,110.8z" class="st10"/></g><g id="g931"><path id="path933" d="M1271.9,104.5h3.3v15h-3.3V104.5z" class="st10"/><path id="path935" d="M1277.4,108.6h2.8v1.5h0.1c0.8-1.2,2.1-1.8,3.3-1.8c3.2,0,4,1.8,4,4.5v6.7h-3v-6.1c0-1.8-0.5-2.7-1.9-2.7 c-1.6,0-2.3,0.9-2.3,3.1v5.7h-3V108.6z" class="st10"/><path id="path937" d="M1295.1,119.5h-3.3l-3.7-10.9h3.1l2.3,7.4h0l2.3-7.4h3L1295.1,119.5z" class="st10"/><path id="path939" d="M1301.7,114.8c0.1,1.9,1,2.8,2.7,2.8c1.2,0,2.2-0.7,2.4-1.4h2.6c-0.8,2.6-2.6,3.7-5.1,3.7 c-3.4,0-5.5-2.4-5.5-5.7c0-3.3,2.2-5.7,5.5-5.7c3.7,0,5.5,3.1,5.3,6.4H1301.7z M1306.5,112.9c-0.3-1.5-0.9-2.3-2.4-2.3 c-1.9,0-2.4,1.5-2.5,2.3H1306.5z" class="st10"/><path id="path941" d="M1313.4,116c0,1.3,1.1,1.8,2.3,1.8c0.8,0,2-0.3,2-1.4c0-0.9-1.3-1.2-3.4-1.7c-1.7-0.4-3.4-1-3.4-2.9 c0-2.8,2.4-3.5,4.7-3.5c2.4,0,4.6,0.8,4.8,3.5h-2.8c-0.1-1.2-1-1.5-2-1.5c-0.7,0-1.7,0.1-1.7,1c0,1.1,1.7,1.2,3.4,1.6 c1.7,0.4,3.4,1,3.4,3c0,2.9-2.5,3.8-5,3.8c-2.5,0-5-0.9-5.1-3.8H1313.4z" class="st10"/><path id="path943" d="M1325.7,108.6h2.2v2h-2.2v5.4c0,1,0.3,1.3,1.3,1.3c0.3,0,0.7,0,0.9-0.1v2.3c-0.5,0.1-1.2,0.1-1.7,0.1 c-1.8,0-3.4-0.4-3.4-2.6v-6.4h-1.8v-2h1.8v-3.3h3V108.6z" class="st10"/><path id="path945" d="M1329.5,108.6h2.8v1.5h0c0.8-1.1,1.9-1.8,3.3-1.8c1.4,0,2.6,0.5,3.2,1.8c0.7-0.9,1.8-1.8,3.3-1.8 c2.3,0,4,1.1,4,3.9v7.3h-3v-6.2c0-1.4-0.1-2.6-1.8-2.6c-1.7,0-2,1.4-2,2.8v6h-3v-6.1c0-1.3,0.1-2.7-1.8-2.7c-0.6,0-2,0.4-2,2.5 v6.3h-3V108.6z" class="st10"/><path id="path947" d="M1350.5,114.8c0.1,1.9,1,2.8,2.7,2.8c1.2,0,2.2-0.7,2.4-1.4h2.6c-0.8,2.6-2.6,3.7-5.1,3.7 c-3.4,0-5.5-2.4-5.5-5.7c0-3.3,2.2-5.7,5.5-5.7c3.7,0,5.5,3.1,5.3,6.4H1350.5z M1355.4,112.9c-0.3-1.5-0.9-2.3-2.4-2.3 c-1.9,0-2.4,1.5-2.5,2.3H1355.4z" class="st10"/><path id="path949" d="M1359.9,108.6h2.8v1.5h0.1c0.8-1.2,2.1-1.8,3.3-1.8c3.2,0,4,1.8,4,4.5v6.7h-3v-6.1c0-1.8-0.5-2.7-1.9-2.7 c-1.6,0-2.3,0.9-2.3,3.1v5.7h-3V108.6z" class="st10"/><path id="path951" d="M1375.5,108.6h2.2v2h-2.2v5.4c0,1,0.3,1.3,1.3,1.3c0.3,0,0.7,0,0.9-0.1v2.3c-0.5,0.1-1.2,0.1-1.7,0.1 c-1.8,0-3.4-0.4-3.4-2.6v-6.4h-1.8v-2h1.8v-3.3h3V108.6z" class="st10"/><path id="path953" d="M1384.5,104.5h6.8c3.8,0,5.2,2.4,5.2,4.8s-1.4,4.8-5.2,4.8h-3.5v5.4h-3.3V104.5z M1387.8,111.6h2.6 c1.5,0,2.9-0.3,2.9-2.2c0-1.9-1.4-2.2-2.9-2.2h-2.6V111.6z" class="st10"/><path id="path955" d="M1397.6,108.6h2.8v2h0c0.6-1.4,2-2.3,3.5-2.3c0.2,0,0.4,0,0.7,0.1v2.8c-0.3-0.1-0.7-0.1-1.1-0.1 c-2.2,0-2.9,1.6-2.9,3.5v4.9h-3V108.6z" class="st10"/><path id="path957" d="M1410.4,108.3c3.4,0,5.6,2.3,5.6,5.7c0,3.4-2.2,5.7-5.6,5.7c-3.4,0-5.6-2.3-5.6-5.7 C1404.8,110.6,1407,108.3,1410.4,108.3z M1410.4,117.5c2,0,2.6-1.7,2.6-3.5c0-1.7-0.6-3.5-2.6-3.5c-2,0-2.6,1.7-2.6,3.5 C1407.8,115.8,1408.4,117.5,1410.4,117.5z" class="st10"/><path id="path959" d="M1416.1,120.8c0.2,0.1,0.4,0.1,0.7,0.1c0.6,0,1.2-0.1,1.2-1v-11.3h3V120c0,2.2-0.8,3.3-3.8,3.3 c-0.3,0-0.7,0-1-0.1V120.8z M1420.8,107h-3v-2.5h3V107z" class="st10"/><path id="path961" d="M1425.4,114.8c0.1,1.9,1,2.8,2.7,2.8c1.2,0,2.2-0.7,2.4-1.4h2.6c-0.8,2.6-2.6,3.7-5.1,3.7 c-3.4,0-5.5-2.4-5.5-5.7c0-3.3,2.2-5.7,5.5-5.7c3.7,0,5.5,3.1,5.3,6.4H1425.4z M1430.2,112.9c-0.3-1.5-0.9-2.3-2.4-2.3 c-1.9,0-2.4,1.5-2.5,2.3H1430.2z" class="st10"/><path id="path963" d="M1442.2,112.5c-0.2-1.2-0.9-1.9-2.2-1.9c-1.9,0-2.5,1.9-2.5,3.5c0,1.6,0.6,3.4,2.5,3.4 c1.4,0,2.2-0.9,2.4-2.2h2.9c-0.4,2.9-2.4,4.5-5.2,4.5c-3.3,0-5.5-2.3-5.5-5.6c0-3.4,2-5.9,5.5-5.9c2.6,0,4.9,1.3,5.1,4.1H1442.2z" class="st10"/><path id="path965" d="M1450.6,108.6h2.2v2h-2.2v5.4c0,1,0.3,1.3,1.3,1.3c0.3,0,0.7,0,0.9-0.1v2.3c-0.5,0.1-1.2,0.1-1.7,0.1 c-1.8,0-3.4-0.4-3.4-2.6v-6.4h-1.8v-2h1.8v-3.3h3V108.6z" class="st10"/><path id="path967" d="M1463.4,113.7l-5.5-9.2h3.7l3.5,5.9l3.5-5.9h3.7l-5.6,9.2v5.8h-3.3V113.7z" class="st10"/></g><g id="g969"><path id="path971" d="M169.6,173.5h6.6c3,0,4.6,1.6,4.6,4.4s-1.6,4.5-4.6,4.4h-4.6v6.1h-2V173.5z M171.6,180.7h3.9 c2.3,0,3.3-1,3.3-2.8s-1-2.8-3.3-2.8h-3.9V180.7z" class="st10"/><path id="path973" d="M182.5,177.6h1.7v2.3h0c0.9-1.8,2.1-2.6,4-2.5v1.9c-2.9,0-3.9,1.6-3.9,4.4v4.8h-1.8V177.6z" class="st10"/><path id="path975" d="M193.8,177.4c3.4,0,5.3,2.5,5.3,5.7c0,3.2-1.8,5.7-5.3,5.7s-5.3-2.5-5.3-5.7 C188.6,179.9,190.4,177.4,193.8,177.4z M193.8,187.2c1.9,0,3.4-1.5,3.4-4.1s-1.5-4.1-3.4-4.1s-3.4,1.5-3.4,4.1 S192,187.2,193.8,187.2z" class="st10"/><path id="path977" d="M210.8,188.5H209V187h0c-0.6,1.2-2,1.7-3.5,1.7c-3.3,0-5-2.6-5-5.7s1.6-5.6,5-5.6c1.1,0,2.7,0.4,3.5,1.7h0 v-5.6h1.8V188.5z M205.7,187.2c2.4,0,3.3-2.1,3.3-4.1c0-2.1-1-4.1-3.4-4.1c-2.4,0-3.3,2.1-3.3,4.2 C202.4,185.2,203.4,187.2,205.7,187.2z" class="st10"/><path id="path979" d="M211.8,190.1h10.5v1h-10.5V190.1z" class="st10"/><path id="path981" d="M228,173.5h2.2l5.9,15h-2.2l-1.6-4.5h-6.3l-1.7,4.5h-2.1L228,173.5z M226.5,182.3h5.1l-2.5-7h0L226.5,182.3 z" class="st10"/><path id="path983" d="M237.5,177.6h1.8v1.5h0c0.6-1.2,2-1.7,3.5-1.7c3.3,0,5,2.6,5,5.7c0,3.1-1.6,5.6-5,5.6 c-1.1,0-2.7-0.4-3.5-1.7h0v5.6h-1.8V177.6z M242.5,179c-2.4,0-3.3,2.1-3.3,4.1c0,2.1,1,4.1,3.4,4.1c2.4,0,3.3-2.1,3.3-4.2 C245.9,180.9,244.9,179,242.5,179z" class="st10"/><path id="path985" d="M249.6,177.6h1.8v1.5h0c0.6-1.2,2-1.7,3.5-1.7c3.3,0,5,2.6,5,5.7c0,3.1-1.6,5.6-5,5.6 c-1.1,0-2.7-0.4-3.5-1.7h0v5.6h-1.8V177.6z M254.6,179c-2.4,0-3.3,2.1-3.3,4.1c0,2.1,1,4.1,3.4,4.1c2.4,0,3.3-2.1,3.3-4.2 C258,180.9,256.9,179,254.6,179z" class="st10"/><path id="path987" d="M266.3,173.5h2.2l5.9,15h-2.2l-1.6-4.5h-6.3l-1.7,4.5h-2.1L266.3,173.5z M264.8,182.3h5.1l-2.5-7h0 L264.8,182.3z" class="st10"/><path id="path989" d="M274.1,190.1h10.5v1h-10.5V190.1z" class="st10"/><path id="path991" d="M292.1,188.5h-2.3l-5.3-15h2.2l4.3,13h0l4.3-13h2.1L292.1,188.5z" class="st10"/><path id="path993" d="M304,188.5h-1.8v-10.7h-3.9v-1.4c2,0,3.9-0.5,4.3-2.8h1.4V188.5z" class="st10"/></g><g id="g995"><path id="path997" d="M178.3,256.9c-0.2-2.2-1.6-3.1-3.7-3.1c-1.7,0-3.4,0.6-3.4,2.6c0,3.7,9.6,1.1,9.6,7c0,3.2-3.1,4.5-5.9,4.5 c-3.4,0-6.2-1.7-6.2-5.3h1.9c0,2.5,2.1,3.6,4.4,3.6c1.8,0,3.8-0.6,3.8-2.7c0-4.1-9.6-1.4-9.6-6.9c0-3,2.7-4.4,5.4-4.4 c3.1,0,5.4,1.4,5.5,4.7H178.3z" class="st10"/><path id="path999" d="M185.1,256.6h2.2v1.6h-2.2v6.7c0,0.8,0.2,1,1.3,1h0.8v1.6h-1.4c-1.8,0-2.6-0.4-2.6-2.4v-6.9h-1.8v-1.6h1.8 v-3.3h1.8V256.6z" class="st10"/><path id="path1001" d="M198.4,267.5c-0.3,0.2-0.8,0.3-1.3,0.3c-0.9,0-1.5-0.5-1.5-1.7c-1,1.2-2.3,1.7-3.8,1.7c-2,0-3.6-0.9-3.6-3 c0-2.5,1.8-3,3.7-3.3c2-0.4,3.7-0.2,3.7-1.6c0-1.6-1.3-1.8-2.4-1.8c-1.5,0-2.6,0.5-2.7,2.1h-1.8c0.1-2.7,2.2-3.6,4.6-3.6 c2,0,4.1,0.4,4.1,3v5.6c0,0.8,0,1.2,0.6,1.2c0.2,0,0.4,0,0.5-0.1V267.5z M195.5,261.9c-1.4,1-5.4,0-5.4,2.7c0,1.2,1,1.6,2.1,1.6 c2.4,0,3.3-1.4,3.3-2.5V261.9z" class="st10"/><path id="path1003" d="M209.3,266.6c0,3.5-1.6,5.3-5,5.3c-2,0-4.4-0.8-4.5-3.2h1.8c0.1,1.3,1.7,1.8,2.8,1.8c2.3,0,3.3-1.7,3.3-4.1 v-0.7h0c-0.6,1.3-2,2-3.4,2c-3.2,0-4.9-2.5-4.9-5.5c0-2.6,1.2-5.7,5-5.7c1.4,0,2.6,0.6,3.2,1.8h0v-1.6h1.7V266.6z M207.5,261.9 c0-1.9-0.8-3.9-3.1-3.9c-2.3,0-3.2,1.9-3.2,3.9c0,2,0.7,4.1,3.1,4.1S207.5,263.9,207.5,261.9z" class="st10"/><path id="path1005" d="M220.9,264.1c-0.5,2.4-2.2,3.7-4.6,3.7c-3.5,0-5.1-2.4-5.2-5.7c0-3.3,2.1-5.6,5.1-5.6c3.8,0,5,3.6,4.9,6.2 h-8.1c-0.1,1.9,1,3.6,3.4,3.6c1.5,0,2.5-0.7,2.8-2.1H220.9z M219.2,261c-0.1-1.7-1.3-3.1-3.1-3.1c-1.8,0-3,1.4-3.1,3.1H219.2z" class="st10"/><path id="path1007" d="M221.6,269.1h10.5v1.1h-10.5V269.1z" class="st10"/><path id="path1009" d="M237.8,252.5h2.2l5.9,15h-2.2L242,263h-6.3l-1.7,4.5H232L237.8,252.5z M236.3,261.3h5.1l-2.5-7h0 L236.3,261.3z" class="st10"/><path id="path1011" d="M247.3,256.6h1.8v1.5h0c0.6-1.2,2-1.7,3.5-1.7c3.3,0,5,2.6,5,5.7c0,3.1-1.6,5.6-5,5.6 c-1.1,0-2.7-0.4-3.5-1.7h0v5.6h-1.8V256.6z M252.3,258c-2.4,0-3.3,2.1-3.3,4.1c0,2.1,1,4.1,3.4,4.1c2.4,0,3.3-2.1,3.3-4.2 C255.7,259.9,254.7,258,252.3,258z" class="st10"/><path id="path1013" d="M259.4,256.6h1.8v1.5h0c0.6-1.2,2-1.7,3.5-1.7c3.3,0,5,2.6,5,5.7c0,3.1-1.6,5.6-5,5.6 c-1.1,0-2.7-0.4-3.5-1.7h0v5.6h-1.8V256.6z M264.4,258c-2.4,0-3.3,2.1-3.3,4.1c0,2.1,1,4.1,3.4,4.1c2.4,0,3.3-2.1,3.3-4.2 C267.8,259.9,266.7,258,264.4,258z" class="st10"/><path id="path1015" d="M276.1,252.5h2.2l5.9,15h-2.2l-1.6-4.5H274l-1.7,4.5h-2.1L276.1,252.5z M274.6,261.3h5.1l-2.5-7h0 L274.6,261.3z" class="st10"/><path id="path1017" d="M283.9,269.1h10.5v1.1h-10.5V269.1z" class="st10"/><path id="path1019" d="M301.9,267.5h-2.3l-5.3-15h2.2l4.3,13h0l4.3-13h2.1L301.9,267.5z" class="st10"/><path id="path1021" d="M313.8,267.5h-1.8v-10.7h-3.9v-1.4c2,0,3.9-0.5,4.3-2.8h1.4V267.5z" class="st10"/></g><g id="g1023"><path id="path1025" d="M173.6,334.2h-5v-1.7h12v1.7h-5v13.3h-2V334.2z" class="st10"/><path id="path1027" d="M188.8,344.1c-0.5,2.4-2.2,3.7-4.6,3.7c-3.5,0-5.1-2.4-5.2-5.7c0-3.3,2.1-5.6,5.1-5.6c3.8,0,5,3.6,4.9,6.2 h-8.1c-0.1,1.9,1,3.6,3.4,3.6c1.5,0,2.5-0.7,2.8-2.1H188.8z M187.1,341c-0.1-1.7-1.3-3.1-3.1-3.1c-1.8,0-3,1.4-3.1,3.1H187.1z" class="st10"/><path id="path1029" d="M192,344.1c0.1,1.6,1.5,2.1,2.9,2.1c1.1,0,2.6-0.3,2.6-1.6c0-2.8-7.1-0.9-7.1-5.1c0-2.2,2.1-3.1,4.1-3.1 c2.4,0,4.3,0.8,4.5,3.4h-1.8c-0.1-1.4-1.4-1.8-2.5-1.8c-1.1,0-2.3,0.3-2.3,1.4c0,1.3,1.9,1.5,3.5,1.9c1.8,0.4,3.5,1,3.5,3.1 c0,2.6-2.4,3.4-4.6,3.4c-2.4,0-4.5-1-4.6-3.7H192z" class="st10"/><path id="path1031" d="M203.5,336.6h2.2v1.6h-2.2v6.7c0,0.8,0.2,1,1.3,1h0.8v1.6h-1.4c-1.8,0-2.6-0.4-2.6-2.4v-6.9h-1.8v-1.6h1.8 v-3.3h1.8V336.6z" class="st10"/><path id="path1033" d="M206.2,349.1h10.5v1.1h-10.5V349.1z" class="st10"/><path id="path1035" d="M222.4,332.5h2.2l5.9,15h-2.2l-1.6-4.5h-6.3l-1.7,4.5h-2.1L222.4,332.5z M220.9,341.3h5.1l-2.5-7h0 L220.9,341.3z" class="st10"/><path id="path1037" d="M231.9,336.6h1.8v1.5h0c0.6-1.2,2-1.7,3.5-1.7c3.3,0,5,2.6,5,5.7c0,3.1-1.6,5.6-5,5.6 c-1.1,0-2.7-0.4-3.5-1.7h0v5.6h-1.8V336.6z M236.9,338c-2.4,0-3.3,2.1-3.3,4.1c0,2.1,1,4.1,3.4,4.1c2.4,0,3.3-2.1,3.3-4.2 C240.3,339.9,239.2,338,236.9,338z" class="st10"/><path id="path1039" d="M244,336.6h1.8v1.5h0c0.6-1.2,2-1.7,3.5-1.7c3.3,0,5,2.6,5,5.7c0,3.1-1.6,5.6-5,5.6c-1.1,0-2.7-0.4-3.5-1.7 h0v5.6H244V336.6z M249,338c-2.4,0-3.3,2.1-3.3,4.1c0,2.1,1,4.1,3.4,4.1c2.4,0,3.3-2.1,3.3-4.2C252.4,339.9,251.3,338,249,338z" class="st10"/><path id="path1041" d="M260.7,332.5h2.2l5.9,15h-2.2l-1.6-4.5h-6.3l-1.7,4.5h-2.1L260.7,332.5z M259.2,341.3h5.1l-2.5-7h0 L259.2,341.3z" class="st10"/><path id="path1043" d="M268.5,349.1H279v1.1h-10.5V349.1z" class="st10"/><path id="path1045" d="M286.5,347.5h-2.3l-5.3-15h2.2l4.3,13h0l4.3-13h2.1L286.5,347.5z" class="st10"/><path id="path1047" d="M298.4,347.5h-1.8v-10.7h-3.9v-1.4c2,0,3.9-0.5,4.3-2.8h1.4V347.5z" class="st10"/></g><g id="g1049"><path id="path1051" d="M169.6,411.5h5.1c4.6,0,7.2,2.3,7.2,7.1c0,5-2.2,7.9-7.2,7.9h-5.1V411.5z M171.6,424.8h3.3 c1.4,0,5-0.4,5-5.9c0-3.6-1.3-5.7-5-5.7h-3.4V424.8z" class="st10"/><path id="path1053" d="M193.1,423.1c-0.5,2.4-2.2,3.7-4.6,3.7c-3.5,0-5.1-2.4-5.2-5.7c0-3.3,2.1-5.6,5.1-5.6c3.8,0,5,3.6,4.9,6.2 h-8.1c-0.1,1.9,1,3.6,3.4,3.6c1.5,0,2.5-0.7,2.8-2.1H193.1z M191.4,420c-0.1-1.7-1.3-3.1-3.1-3.1c-1.8,0-3,1.4-3.1,3.1H191.4z" class="st10"/><path id="path1055" d="M199.5,426.5h-1.9l-4-10.9h2l3,9h0l3-9h1.9L199.5,426.5z" class="st10"/><path id="path1057" d="M203.6,428.1h10.5v1.1h-10.5V428.1z" class="st10"/><path id="path1059" d="M219.8,411.5h2.2l5.9,15h-2.2L224,422h-6.3l-1.7,4.5h-2.1L219.8,411.5z M218.3,420.3h5.1l-2.5-7h0 L218.3,420.3z" class="st10"/><path id="path1061" d="M229.2,415.6h1.8v1.5h0c0.6-1.2,2-1.7,3.5-1.7c3.3,0,5,2.6,5,5.7c0,3.1-1.6,5.6-5,5.6 c-1.1,0-2.7-0.4-3.5-1.7h0v5.6h-1.8V415.6z M234.3,417c-2.4,0-3.3,2.1-3.3,4.1c0,2.1,1,4.1,3.4,4.1c2.4,0,3.3-2.1,3.3-4.2 C237.6,418.9,236.6,417,234.3,417z" class="st10"/><path id="path1063" d="M241.3,415.6h1.8v1.5h0c0.6-1.2,2-1.7,3.5-1.7c3.3,0,5,2.6,5,5.7c0,3.1-1.6,5.6-5,5.6 c-1.1,0-2.7-0.4-3.5-1.7h0v5.6h-1.8V415.6z M246.4,417c-2.4,0-3.3,2.1-3.3,4.1c0,2.1,1,4.1,3.4,4.1c2.4,0,3.3-2.1,3.3-4.2 C249.7,418.9,248.7,417,246.4,417z" class="st10"/><path id="path1065" d="M258,411.5h2.2l5.9,15h-2.2l-1.6-4.5h-6.3l-1.7,4.5h-2.1L258,411.5z M256.5,420.3h5.1l-2.5-7h0L256.5,420.3 z" class="st10"/><path id="path1067" d="M265.9,428.1h10.5v1.1h-10.5V428.1z" class="st10"/><path id="path1069" d="M283.8,426.5h-2.3l-5.3-15h2.2l4.3,13h0l4.3-13h2.1L283.8,426.5z" class="st10"/><path id="path1071" d="M295.8,426.5H294v-10.7h-3.9v-1.4c2,0,3.9-0.5,4.3-2.8h1.4V426.5z" class="st10"/></g><g id="g1073"><path id="path1075" d="M545.6,172h6.6c3,0,4.6,1.6,4.6,4.4s-1.6,4.5-4.6,4.4h-4.6v6.1h-2V172z M547.6,179.2h3.9 c2.3,0,3.3-1,3.3-2.8s-1-2.8-3.3-2.8h-3.9V179.2z" class="st10"/><path id="path1077" d="M558.5,176.1h1.7v2.3h0c0.9-1.8,2.1-2.6,4-2.5v1.9c-2.9,0-3.9,1.6-3.9,4.4v4.8h-1.8V176.1z" class="st10"/><path id="path1079" d="M569.8,175.9c3.4,0,5.3,2.5,5.3,5.7c0,3.2-1.8,5.7-5.3,5.7s-5.3-2.5-5.3-5.7 C564.6,178.4,566.4,175.9,569.8,175.9z M569.8,185.7c1.9,0,3.4-1.5,3.4-4.1s-1.5-4.1-3.4-4.1s-3.4,1.5-3.4,4.1 S568,185.7,569.8,185.7z" class="st10"/><path id="path1081" d="M586.8,187H585v-1.5h0c-0.6,1.2-2,1.7-3.5,1.7c-3.3,0-5-2.6-5-5.7s1.6-5.6,5-5.6c1.1,0,2.7,0.4,3.5,1.7h0 V172h1.8V187z M581.7,185.7c2.4,0,3.3-2.1,3.3-4.1c0-2.1-1-4.1-3.4-4.1c-2.4,0-3.3,2.1-3.3,4.2 C578.4,183.7,579.4,185.7,581.7,185.7z" class="st10"/><path id="path1083" d="M587.8,188.6h10.5v1h-10.5V188.6z" class="st10"/><path id="path1085" d="M604,172h2.2l5.9,15h-2.2l-1.6-4.5h-6.3l-1.7,4.5h-2.1L604,172z M602.5,180.8h5.1l-2.5-7h0L602.5,180.8z" class="st10"/><path id="path1087" d="M613.5,176.1h1.8v1.5h0c0.6-1.2,2-1.7,3.5-1.7c3.3,0,5,2.6,5,5.7c0,3.1-1.6,5.6-5,5.6 c-1.1,0-2.7-0.4-3.5-1.7h0v5.6h-1.8V176.1z M618.5,177.5c-2.4,0-3.3,2.1-3.3,4.1c0,2.1,1,4.1,3.4,4.1c2.4,0,3.3-2.1,3.3-4.2 C621.9,179.4,620.9,177.5,618.5,177.5z" class="st10"/><path id="path1089" d="M625.6,176.1h1.8v1.5h0c0.6-1.2,2-1.7,3.5-1.7c3.3,0,5,2.6,5,5.7c0,3.1-1.6,5.6-5,5.6 c-1.1,0-2.7-0.4-3.5-1.7h0v5.6h-1.8V176.1z M630.6,177.5c-2.4,0-3.3,2.1-3.3,4.1c0,2.1,1,4.1,3.4,4.1c2.4,0,3.3-2.1,3.3-4.2 C634,179.4,632.9,177.5,630.6,177.5z" class="st10"/><path id="path1091" d="M637.9,172h5.4c1.3,0,3.1,0,4,0.5c1,0.6,1.8,1.6,1.8,3.1c0,1.6-0.8,2.8-2.2,3.4v0c1.8,0.4,2.9,1.8,2.9,3.6 c0,2.2-1.6,4.3-4.6,4.3h-7.2V172z M639.9,178.5h4c2.3,0,3.2-0.8,3.2-2.4c0-2.1-1.4-2.4-3.2-2.4h-4V178.5z M639.9,185.3h5 c1.7,0,2.8-1,2.8-2.7c0-2-1.6-2.5-3.3-2.5h-4.6V185.3z" class="st10"/><path id="path1093" d="M650.4,188.6h10.5v1h-10.5V188.6z" class="st10"/><path id="path1095" d="M668.4,187h-2.3l-5.3-15h2.2l4.3,13h0l4.3-13h2.1L668.4,187z" class="st10"/><path id="path1097" d="M680.3,187h-1.8v-10.7h-3.9v-1.4c2,0,3.9-0.5,4.3-2.8h1.4V187z" class="st10"/></g><g id="g1099"><path id="path1101" d="M554.3,255.4c-0.2-2.2-1.6-3.1-3.7-3.1c-1.7,0-3.4,0.6-3.4,2.6c0,3.7,9.6,1.1,9.6,7c0,3.2-3.1,4.5-5.9,4.5 c-3.4,0-6.2-1.7-6.2-5.3h1.9c0,2.5,2.1,3.6,4.4,3.6c1.8,0,3.8-0.6,3.8-2.7c0-4.1-9.6-1.4-9.6-6.9c0-3,2.7-4.4,5.4-4.4 c3.1,0,5.4,1.4,5.5,4.7H554.3z" class="st10"/><path id="path1103" d="M561.1,255.1h2.2v1.6h-2.2v6.7c0,0.8,0.2,1,1.3,1h0.8v1.6h-1.4c-1.8,0-2.6-0.4-2.6-2.4v-6.9h-1.8v-1.6h1.8 v-3.3h1.8V255.1z" class="st10"/><path id="path1105" d="M574.4,266c-0.3,0.2-0.8,0.3-1.3,0.3c-0.9,0-1.5-0.5-1.5-1.7c-1,1.2-2.3,1.7-3.8,1.7c-2,0-3.6-0.9-3.6-3 c0-2.5,1.8-3,3.7-3.3c2-0.4,3.7-0.2,3.7-1.6c0-1.6-1.3-1.8-2.4-1.8c-1.5,0-2.6,0.5-2.7,2.1h-1.8c0.1-2.7,2.2-3.6,4.6-3.6 c2,0,4.1,0.4,4.1,3v5.6c0,0.8,0,1.2,0.6,1.2c0.2,0,0.4,0,0.5-0.1V266z M571.5,260.4c-1.4,1-5.4,0-5.4,2.7c0,1.2,1,1.6,2.1,1.6 c2.4,0,3.3-1.4,3.3-2.5V260.4z" class="st10"/><path id="path1107" d="M585.3,265.1c0,3.5-1.6,5.3-5,5.3c-2,0-4.4-0.8-4.5-3.2h1.8c0.1,1.3,1.7,1.8,2.8,1.8c2.3,0,3.3-1.7,3.3-4.1 v-0.7h0c-0.6,1.3-2,2-3.4,2c-3.2,0-4.9-2.5-4.9-5.5c0-2.6,1.2-5.7,5-5.7c1.4,0,2.6,0.6,3.2,1.8h0v-1.6h1.7V265.1z M583.5,260.4 c0-1.9-0.8-3.9-3.1-3.9c-2.3,0-3.2,1.9-3.2,3.9c0,2,0.7,4.1,3.1,4.1S583.5,262.4,583.5,260.4z" class="st10"/><path id="path1109" d="M596.9,262.6c-0.5,2.4-2.2,3.7-4.6,3.7c-3.5,0-5.1-2.4-5.2-5.7c0-3.3,2.1-5.6,5.1-5.6c3.8,0,5,3.6,4.9,6.2 h-8.1c-0.1,1.9,1,3.6,3.4,3.6c1.5,0,2.5-0.7,2.8-2.1H596.9z M595.2,259.5c-0.1-1.7-1.3-3.1-3.1-3.1c-1.8,0-3,1.4-3.1,3.1H595.2z" class="st10"/><path id="path1111" d="M597.6,267.6h10.5v1h-10.5V267.6z" class="st10"/><path id="path1113" d="M613.8,251h2.2l5.9,15h-2.2l-1.6-4.5h-6.3L610,266H608L613.8,251z M612.3,259.8h5.1l-2.5-7h0L612.3,259.8z" class="st10"/><path id="path1115" d="M623.3,255.1h1.8v1.5h0c0.6-1.2,2-1.7,3.5-1.7c3.3,0,5,2.6,5,5.7c0,3.1-1.6,5.6-5,5.6 c-1.1,0-2.7-0.4-3.5-1.7h0v5.6h-1.8V255.1z M628.3,256.5c-2.4,0-3.3,2.1-3.3,4.1c0,2.1,1,4.1,3.4,4.1c2.4,0,3.3-2.1,3.3-4.2 C631.7,258.4,630.7,256.5,628.3,256.5z" class="st10"/><path id="path1117" d="M635.4,255.1h1.8v1.5h0c0.6-1.2,2-1.7,3.5-1.7c3.3,0,5,2.6,5,5.7c0,3.1-1.6,5.6-5,5.6 c-1.1,0-2.7-0.4-3.5-1.7h0v5.6h-1.8V255.1z M640.4,256.5c-2.4,0-3.3,2.1-3.3,4.1c0,2.1,1,4.1,3.4,4.1c2.4,0,3.3-2.1,3.3-4.2 C643.8,258.4,642.7,256.5,640.4,256.5z" class="st10"/><path id="path1119" d="M647.8,251h5.4c1.3,0,3.1,0,4,0.5c1,0.6,1.8,1.6,1.8,3.1c0,1.6-0.8,2.8-2.2,3.4v0c1.8,0.4,2.9,1.8,2.9,3.6 c0,2.2-1.6,4.3-4.6,4.3h-7.2V251z M649.7,257.5h4c2.3,0,3.2-0.8,3.2-2.4c0-2.1-1.4-2.4-3.2-2.4h-4V257.5z M649.7,264.3h5 c1.7,0,2.8-1,2.8-2.7c0-2-1.6-2.5-3.3-2.5h-4.6V264.3z" class="st10"/><path id="path1121" d="M660.2,267.6h10.5v1h-10.5V267.6z" class="st10"/><path id="path1123" d="M678.2,266h-2.3l-5.3-15h2.2l4.3,13h0l4.3-13h2.1L678.2,266z" class="st10"/><path id="path1125" d="M690.1,266h-1.8v-10.7h-3.9v-1.4c2,0,3.9-0.5,4.3-2.8h1.4V266z" class="st10"/></g><g id="g1127"><path id="path1129" d="M549.6,332.7h-5V331h12v1.7h-5V346h-2V332.7z" class="st10"/><path id="path1131" d="M564.8,342.6c-0.5,2.4-2.2,3.7-4.6,3.7c-3.5,0-5.1-2.4-5.2-5.7c0-3.3,2.1-5.6,5.1-5.6c3.8,0,5,3.6,4.9,6.2 h-8.1c-0.1,1.9,1,3.6,3.4,3.6c1.5,0,2.5-0.7,2.8-2.1H564.8z M563.1,339.5c-0.1-1.7-1.3-3.1-3.1-3.1c-1.8,0-3,1.4-3.1,3.1H563.1z" class="st10"/><path id="path1133" d="M568,342.6c0.1,1.6,1.5,2.1,2.9,2.1c1.1,0,2.6-0.3,2.6-1.6c0-2.8-7.1-0.9-7.1-5.1c0-2.2,2.1-3.1,4.1-3.1 c2.4,0,4.3,0.8,4.5,3.4h-1.8c-0.1-1.4-1.4-1.8-2.5-1.8c-1.1,0-2.3,0.3-2.3,1.4c0,1.3,1.9,1.5,3.5,1.9c1.8,0.4,3.5,1,3.5,3.1 c0,2.6-2.4,3.4-4.6,3.4c-2.4,0-4.5-1-4.6-3.7H568z" class="st10"/><path id="path1135" d="M579.5,335.1h2.2v1.6h-2.2v6.7c0,0.8,0.2,1,1.3,1h0.8v1.6h-1.4c-1.8,0-2.6-0.4-2.6-2.4v-6.9h-1.8v-1.6h1.8 v-3.3h1.8V335.1z" class="st10"/><path id="path1137" d="M582.2,347.6h10.5v1.1h-10.5V347.6z" class="st10"/><path id="path1139" d="M598.4,331h2.2l5.9,15h-2.2l-1.6-4.5h-6.3l-1.7,4.5h-2.1L598.4,331z M596.9,339.8h5.1l-2.5-7h0L596.9,339.8 z" class="st10"/><path id="path1141" d="M607.9,335.1h1.8v1.5h0c0.6-1.2,2-1.7,3.5-1.7c3.3,0,5,2.6,5,5.7c0,3.1-1.6,5.6-5,5.6 c-1.1,0-2.7-0.4-3.5-1.7h0v5.6h-1.8V335.1z M612.9,336.5c-2.4,0-3.3,2.1-3.3,4.1c0,2.1,1,4.1,3.4,4.1c2.4,0,3.3-2.1,3.3-4.2 C616.3,338.4,615.2,336.5,612.9,336.5z" class="st10"/><path id="path1143" d="M620,335.1h1.8v1.5h0c0.6-1.2,2-1.7,3.5-1.7c3.3,0,5,2.6,5,5.7c0,3.1-1.6,5.6-5,5.6c-1.1,0-2.7-0.4-3.5-1.7 h0v5.6H620V335.1z M625,336.5c-2.4,0-3.3,2.1-3.3,4.1c0,2.1,1,4.1,3.4,4.1c2.4,0,3.3-2.1,3.3-4.2 C628.4,338.4,627.3,336.5,625,336.5z" class="st10"/><path id="path1145" d="M632.3,331h5.4c1.3,0,3.1,0,4,0.5c1,0.6,1.8,1.6,1.8,3.1c0,1.6-0.8,2.8-2.2,3.4v0c1.8,0.4,2.9,1.8,2.9,3.6 c0,2.2-1.6,4.3-4.6,4.3h-7.2V331z M634.3,337.5h4c2.3,0,3.2-0.8,3.2-2.4c0-2.1-1.4-2.4-3.2-2.4h-4V337.5z M634.3,344.3h5 c1.7,0,2.8-1,2.8-2.7c0-2-1.6-2.5-3.3-2.5h-4.6V344.3z" class="st10"/><path id="path1147" d="M644.8,347.6h10.5v1.1h-10.5V347.6z" class="st10"/><path id="path1149" d="M662.8,346h-2.3l-5.3-15h2.2l4.3,13h0l4.3-13h2.1L662.8,346z" class="st10"/><path id="path1151" d="M674.7,346h-1.8v-10.7H669v-1.4c2,0,3.9-0.5,4.3-2.8h1.4V346z" class="st10"/></g><g id="g1153"><path id="path1155" d="M545.6,411.5h5.1c4.6,0,7.2,2.3,7.2,7.1c0,5-2.2,7.9-7.2,7.9h-5.1V411.5z M547.6,424.8h3.3 c1.4,0,5-0.4,5-5.9c0-3.6-1.3-5.7-5-5.7h-3.4V424.8z" class="st10"/><path id="path1157" d="M569.1,423.1c-0.5,2.4-2.2,3.7-4.6,3.7c-3.5,0-5.1-2.4-5.2-5.7c0-3.3,2.1-5.6,5.1-5.6c3.8,0,5,3.6,4.9,6.2 h-8.1c-0.1,1.9,1,3.6,3.4,3.6c1.5,0,2.5-0.7,2.8-2.1H569.1z M567.4,420c-0.1-1.7-1.3-3.1-3.1-3.1c-1.8,0-3,1.4-3.1,3.1H567.4z" class="st10"/><path id="path1159" d="M575.5,426.5h-1.9l-4-10.9h2l3,9h0l3-9h1.9L575.5,426.5z" class="st10"/><path id="path1161" d="M579.6,428.1h10.5v1.1h-10.5V428.1z" class="st10"/><path id="path1163" d="M595.8,411.5h2.2l5.9,15h-2.2L600,422h-6.3l-1.7,4.5h-2.1L595.8,411.5z M594.3,420.3h5.1l-2.5-7h0 L594.3,420.3z" class="st10"/><path id="path1165" d="M605.2,415.6h1.8v1.5h0c0.6-1.2,2-1.7,3.5-1.7c3.3,0,5,2.6,5,5.7c0,3.1-1.6,5.6-5,5.6 c-1.1,0-2.7-0.4-3.5-1.7h0v5.6h-1.8V415.6z M610.3,417c-2.4,0-3.3,2.1-3.3,4.1c0,2.1,1,4.1,3.4,4.1c2.4,0,3.3-2.1,3.3-4.2 C613.6,418.9,612.6,417,610.3,417z" class="st10"/><path id="path1167" d="M617.3,415.6h1.8v1.5h0c0.6-1.2,2-1.7,3.5-1.7c3.3,0,5,2.6,5,5.7c0,3.1-1.6,5.6-5,5.6 c-1.1,0-2.7-0.4-3.5-1.7h0v5.6h-1.8V415.6z M622.4,417c-2.4,0-3.3,2.1-3.3,4.1c0,2.1,1,4.1,3.4,4.1c2.4,0,3.3-2.1,3.3-4.2 C625.7,418.9,624.7,417,622.4,417z" class="st10"/><path id="path1169" d="M629.7,411.5h5.4c1.3,0,3.1,0,4,0.5c1,0.6,1.8,1.6,1.8,3.1c0,1.6-0.8,2.8-2.2,3.4v0 c1.8,0.4,2.9,1.8,2.9,3.6c0,2.2-1.6,4.3-4.6,4.3h-7.2V411.5z M631.7,418h4c2.3,0,3.2-0.8,3.2-2.4c0-2.1-1.4-2.4-3.2-2.4h-4V418z M631.7,424.8h5c1.7,0,2.8-1,2.8-2.7c0-2-1.6-2.5-3.3-2.5h-4.6V424.8z" class="st10"/><path id="path1171" d="M642.1,428.1h10.5v1.1h-10.5V428.1z" class="st10"/><path id="path1173" d="M660.1,426.5h-2.3l-5.3-15h2.2l4.3,13h0l4.3-13h2.1L660.1,426.5z" class="st10"/><path id="path1175" d="M672,426.5h-1.8v-10.7h-3.9v-1.4c2,0,3.9-0.5,4.3-2.8h1.4V426.5z" class="st10"/></g></g></switch></svg>