<svg xmlns="http://www.w3.org/2000/svg" xmlns:svg="http://www.w3.org/2000/svg" xmlns:xlink="http://www.w3.org/1999/xlink" id="Layer_1" width="100%" height="100%" x="0" y="0" enable-background="new 0 0 581 662" version="1.1" viewBox="0 0 581 662" xml:space="preserve"><metadata id="metadata673"/><style id="style3" type="text/css">.st0{fill:#8c9ba6}.st1{fill:#5596e6}.st2{fill:#3d70b2}.st3{fill:#5aaafa}.st4{fill:#fff}.st5{fill:#7cc7ff}.st6{fill:#6d7b85}.st7{fill:#dfe3e6}</style><switch id="switch5"><g id="g9"><title id="title11">documentation-pdl-org-region-V01-ML</title><path id="path13" d="M390,316v65h160v-65H390z M548,379H392v-61h156V379z" class="st0"/><path id="path15" d="M210,316v65h160v-65H210z M368,379H212v-61h156V379z" class="st0"/><path id="path17" d="M31,316v65h160v-65H31z M189,379H33v-61h156V379z" class="st0"/><polygon id="polygon19" points="140.5 67.5 140.5 147.5 103.5 127.5 103.5 87.5" class="st1"/><polygon id="polygon21" points="140.5 67.5 140.5 147.5 177.5 127.5 177.5 87.5" class="st2"/><polygon id="polygon23" points="440.5 67.5 440.5 147.5 403.5 127.5 403.5 87.5" class="st3"/><polygon id="polygon25" points="440.5 67.5 440.5 147.5 477.5 127.5 477.5 87.5" class="st1"/><path id="path27" d="M479,379.5c0-4.1-3.4-7.5-7.5-7.5s-7.5,3.4-7.5,7.5c0,3.6,2.6,6.7,6,7.3V455H292v-68.2c3.4-0.7,6-3.7,6-7.3 c0-4.1-3.4-7.5-7.5-7.5s-7.5,3.4-7.5,7.5c0,3.6,2.6,6.7,6,7.3V455H112l0.2-68.2c3.3-0.8,5.8-3.7,5.8-7.3c0-4.1-3.4-7.5-7.5-7.5 s-7.5,3.4-7.5,7.5c0,3.7,2.7,6.7,6.2,7.4L109,458h180v43h3v-43h181v-71.2C476.4,386.2,479,383.1,479,379.5z" class="st1"/><circle id="circle29" cx="110.5" cy="379.5" r="4.5" class="st4"/><circle id="circle31" cx="290.5" cy="379.5" r="4.5" class="st4"/><circle id="circle33" cx="471.5" cy="379.5" r="4.5" class="st4"/><polygon id="polygon35" points="290.5 499.5 290.5 579.5 253.5 559.5 253.5 519.5" class="st5"/><polygon id="polygon37" points="290.5 499.5 290.5 579.5 327.5 559.5 327.5 519.5" class="st3"/><g id="g39"><path id="path41" d="M31.2,262.5h7.1c2.9,0,4.8,0.9,4.8,3.7c0,1.5-0.7,2.5-2,3.1c1.8,0.5,2.8,1.9,2.8,3.8c0,3-2.6,4.3-5.3,4.3 h-7.3V262.5z M34.5,268.6h3.3c1.2,0,2-0.5,2-1.8c0-1.4-1.1-1.7-2.3-1.7h-3.1V268.6z M34.5,274.9H38c1.3,0,2.4-0.4,2.4-2 c0-1.5-0.9-2.1-2.4-2.1h-3.6V274.9z" class="st6"/><path id="path43" d="M45.3,262.5h3v15h-3V262.5z" class="st6"/><path id="path45" d="M60.5,277.5h-2.8V276h-0.1c-0.8,1.2-2.1,1.8-3.3,1.8c-3.2,0-4-1.8-4-4.5v-6.7h3v6.1c0,1.8,0.5,2.7,1.9,2.7 c1.6,0,2.3-0.9,2.3-3.1v-5.7h3V277.5z" class="st6"/><path id="path47" d="M65,272.8c0.1,1.9,1,2.8,2.7,2.8c1.2,0,2.2-0.7,2.4-1.4h2.6c-0.8,2.6-2.6,3.7-5.1,3.7 c-3.4,0-5.5-2.4-5.5-5.7c0-3.3,2.2-5.7,5.5-5.7c3.7,0,5.5,3.1,5.3,6.4H65z M69.8,270.9c-0.3-1.5-0.9-2.3-2.4-2.3 c-1.9,0-2.4,1.5-2.5,2.3H69.8z" class="st6"/><path id="path49" d="M74.5,266.6h2.8v1.5h0c0.8-1.1,1.9-1.8,3.3-1.8c1.4,0,2.6,0.5,3.2,1.8c0.7-0.9,1.8-1.8,3.3-1.8 c2.3,0,4,1.1,4,3.9v7.3h-3v-6.2c0-1.4-0.1-2.6-1.8-2.6c-1.7,0-2,1.4-2,2.8v6h-3v-6.1c0-1.3,0.1-2.7-1.8-2.7c-0.6,0-2,0.4-2,2.5 v6.3h-3V266.6z" class="st6"/><path id="path51" d="M96.1,265h-3v-2.5h3V265z M93.1,266.6h3v10.9h-3V266.6z" class="st6"/><path id="path53" d="M100.9,271.8l-3.6-5.1h3.4l1.9,2.8l1.9-2.8h3.3l-3.6,5.1l4,5.8h-3.4l-2.3-3.4l-2.3,3.4H97L100.9,271.8z" class="st6"/><path id="path55" d="M114.4,262.5h6.8c3.8,0,5.2,2.4,5.2,4.8s-1.4,4.8-5.2,4.8h-3.5v5.4h-3.3V262.5z M117.6,269.6h2.6 c1.5,0,2.9-0.3,2.9-2.2c0-1.9-1.4-2.2-2.9-2.2h-2.6V269.6z" class="st6"/><path id="path57" d="M137.6,277.5h-2.8V276h-0.1c-0.8,1.2-2.1,1.8-3.3,1.8c-3.2,0-4-1.8-4-4.5v-6.7h3v6.1c0,1.8,0.5,2.7,1.9,2.7 c1.6,0,2.3-0.9,2.3-3.1v-5.7h3V277.5z" class="st6"/><path id="path59" d="M139.7,262.5h3v5.5h0c0.7-1.1,2.1-1.6,3.4-1.6c2.2,0,4.5,1.7,4.5,5.7c0,4-2.3,5.7-4.5,5.7 c-1.6,0-2.9-0.5-3.6-1.7h0v1.4h-2.8V262.5z M145.1,268.6c-1.8,0-2.5,1.6-2.5,3.5c0,1.8,0.8,3.5,2.5,3.5s2.5-1.7,2.5-3.5 C147.6,270.2,146.8,268.6,145.1,268.6z" class="st6"/><path id="path61" d="M152.2,262.5h3v15h-3V262.5z" class="st6"/><path id="path63" d="M160.3,265h-3v-2.5h3V265z M157.3,266.6h3v10.9h-3V266.6z" class="st6"/><path id="path65" d="M169.7,270.5c-0.2-1.2-0.9-1.9-2.2-1.9c-1.9,0-2.5,1.9-2.5,3.5c0,1.6,0.6,3.4,2.5,3.4c1.4,0,2.2-0.9,2.4-2.2 h2.9c-0.4,2.9-2.4,4.5-5.2,4.5c-3.3,0-5.5-2.3-5.5-5.6c0-3.4,2-5.9,5.5-5.9c2.6,0,4.9,1.3,5.1,4.1H169.7z" class="st6"/></g><g id="g67"><rect id="rect69" width="10" height="3" y="232" class="st7"/><rect id="rect71" width="10" height="3" x="20" y="232" class="st7"/><rect id="rect73" width="10" height="3" x="40" y="232" class="st7"/><rect id="rect75" width="10" height="3" x="60" y="232" class="st7"/><rect id="rect77" width="10" height="3" x="80" y="232" class="st7"/><rect id="rect79" width="10" height="3" x="100" y="232" class="st7"/><rect id="rect81" width="10" height="3" x="120" y="232" class="st7"/><rect id="rect83" width="10" height="3" x="140" y="232" class="st7"/><rect id="rect85" width="10" height="3" x="160" y="232" class="st7"/><rect id="rect87" width="10" height="3" x="180" y="232" class="st7"/><rect id="rect89" width="10" height="3" x="200" y="232" class="st7"/><rect id="rect91" width="10" height="3" x="220" y="232" class="st7"/><rect id="rect93" width="10" height="3" x="240" y="232" class="st7"/><rect id="rect95" width="10" height="3" x="260" y="232" class="st7"/><rect id="rect97" width="10" height="3" x="280" y="232" class="st7"/><rect id="rect99" width="10" height="3" x="300" y="232" class="st7"/><rect id="rect101" width="10" height="3" x="320" y="232" class="st7"/><rect id="rect103" width="10" height="3" x="340" y="232" class="st7"/><rect id="rect105" width="10" height="3" x="360" y="232" class="st7"/><rect id="rect107" width="10" height="3" x="380" y="232" class="st7"/><rect id="rect109" width="10" height="3" x="400" y="232" class="st7"/><rect id="rect111" width="10" height="3" x="420" y="232" class="st7"/><rect id="rect113" width="10" height="3" x="440" y="232" class="st7"/><rect id="rect115" width="10" height="3" x="460" y="232" class="st7"/><rect id="rect117" width="10" height="3" x="480" y="232" class="st7"/><rect id="rect119" width="10" height="3" x="500" y="232" class="st7"/><rect id="rect121" width="10" height="3" x="520" y="232" class="st7"/><rect id="rect123" width="10" height="3" x="540" y="232" class="st7"/><rect id="rect125" width="10" height="3" x="560" y="232" class="st7"/></g><g id="g127"><rect id="rect129" width="10" height="3" y="659" class="st7"/><rect id="rect131" width="10" height="3" x="20" y="659" class="st7"/><rect id="rect133" width="10" height="3" x="40" y="659" class="st7"/><rect id="rect135" width="10" height="3" x="60" y="659" class="st7"/><rect id="rect137" width="10" height="3" x="80" y="659" class="st7"/><rect id="rect139" width="10" height="3" x="100" y="659" class="st7"/><rect id="rect141" width="10" height="3" x="120" y="659" class="st7"/><rect id="rect143" width="10" height="3" x="140" y="659" class="st7"/><rect id="rect145" width="10" height="3" x="160" y="659" class="st7"/><rect id="rect147" width="10" height="3" x="180" y="659" class="st7"/><rect id="rect149" width="10" height="3" x="200" y="659" class="st7"/><rect id="rect151" width="10" height="3" x="220" y="659" class="st7"/><rect id="rect153" width="10" height="3" x="240" y="659" class="st7"/><rect id="rect155" width="10" height="3" x="260" y="659" class="st7"/><rect id="rect157" width="10" height="3" x="280" y="659" class="st7"/><rect id="rect159" width="10" height="3" x="300" y="659" class="st7"/><rect id="rect161" width="10" height="3" x="320" y="659" class="st7"/><rect id="rect163" width="10" height="3" x="340" y="659" class="st7"/><rect id="rect165" width="10" height="3" x="360" y="659" class="st7"/><rect id="rect167" width="10" height="3" x="380" y="659" class="st7"/><rect id="rect169" width="10" height="3" x="400" y="659" class="st7"/><rect id="rect171" width="10" height="3" x="420" y="659" class="st7"/><rect id="rect173" width="10" height="3" x="440" y="659" class="st7"/><rect id="rect175" width="10" height="3" x="460" y="659" class="st7"/><rect id="rect177" width="10" height="3" x="480" y="659" class="st7"/><rect id="rect179" width="10" height="3" x="500" y="659" class="st7"/><rect id="rect181" width="10" height="3" x="520" y="659" class="st7"/><rect id="rect183" width="10" height="3" x="540" y="659" class="st7"/><rect id="rect185" width="10" height="3" x="560" y="659" class="st7"/></g><g id="g187"><rect id="rect189" width="10" height="3" x="574.5" y="236" class="st7" transform="matrix(-1.836970e-16 1 -1 -1.836970e-16 817 -342)"/><rect id="rect191" width="10" height="3" x="574.5" y="256" class="st7" transform="matrix(-1.836970e-16 1 -1 -1.836970e-16 837 -322)"/><rect id="rect193" width="10" height="3" x="574.5" y="276" class="st7" transform="matrix(-1.836970e-16 1 -1 -1.836970e-16 857 -302)"/><rect id="rect195" width="10" height="3" x="574.5" y="296" class="st7" transform="matrix(-1.836970e-16 1 -1 -1.836970e-16 877 -282)"/><rect id="rect197" width="10" height="3" x="574.5" y="316" class="st7" transform="matrix(-1.836970e-16 1 -1 -1.836970e-16 897 -262)"/><rect id="rect199" width="10" height="3" x="574.5" y="336" class="st7" transform="matrix(-1.836970e-16 1 -1 -1.836970e-16 917 -242)"/><rect id="rect201" width="10" height="3" x="574.5" y="356" class="st7" transform="matrix(-1.836970e-16 1 -1 -1.836970e-16 937 -222)"/><rect id="rect203" width="10" height="3" x="574.5" y="376" class="st7" transform="matrix(-1.836970e-16 1 -1 -1.836970e-16 957 -202)"/><rect id="rect205" width="10" height="3" x="574.5" y="396" class="st7" transform="matrix(-1.836970e-16 1 -1 -1.836970e-16 977 -182)"/><rect id="rect207" width="10" height="3" x="574.5" y="416" class="st7" transform="matrix(-1.836970e-16 1 -1 -1.836970e-16 997 -162)"/><rect id="rect209" width="10" height="3" x="574.5" y="436" class="st7" transform="matrix(-1.836970e-16 1 -1 -1.836970e-16 1017 -142)"/><rect id="rect211" width="10" height="3" x="574.5" y="456" class="st7" transform="matrix(-1.836970e-16 1 -1 -1.836970e-16 1037 -122)"/><rect id="rect213" width="10" height="3" x="574.5" y="476" class="st7" transform="matrix(-1.836970e-16 1 -1 -1.836970e-16 1057 -102)"/><rect id="rect215" width="10" height="3" x="574.5" y="496" class="st7" transform="matrix(-1.836970e-16 1 -1 -1.836970e-16 1077 -82)"/><rect id="rect217" width="10" height="3" x="574.5" y="516" class="st7" transform="matrix(-1.836970e-16 1 -1 -1.836970e-16 1097 -62)"/><rect id="rect219" width="10" height="3" x="574.5" y="536" class="st7" transform="matrix(-1.836970e-16 1 -1 -1.836970e-16 1117 -42)"/><rect id="rect221" width="10" height="3" x="574.5" y="556" class="st7" transform="matrix(-1.836970e-16 1 -1 -1.836970e-16 1137 -22)"/><rect id="rect223" width="10" height="3" x="574.5" y="576" class="st7" transform="matrix(-1.836970e-16 1 -1 -1.836970e-16 1157 -2)"/><rect id="rect225" width="10" height="3" x="574.5" y="596" class="st7" transform="matrix(-1.836970e-16 1 -1 -1.836970e-16 1177 18)"/><rect id="rect227" width="10" height="3" x="574.5" y="616" class="st7" transform="matrix(-1.836970e-16 1 -1 -1.836970e-16 1197 38)"/><rect id="rect229" width="10" height="3" x="574.5" y="636" class="st7" transform="matrix(-1.836970e-16 1 -1 -1.836970e-16 1217 58)"/><rect id="rect231" width="3" height="10" x="578" y="652" class="st7"/></g><g id="g233"><rect id="rect235" width="10" height="3" x="-3.5" y="246" class="st7" transform="matrix(-1.836970e-16 1 -1 -1.836970e-16 249 246)"/><rect id="rect237" width="10" height="3" x="-3.5" y="266" class="st7" transform="matrix(-1.836970e-16 1 -1 -1.836970e-16 269 266)"/><rect id="rect239" width="10" height="3" x="-3.5" y="286" class="st7" transform="matrix(-1.836970e-16 1 -1 -1.836970e-16 289 286)"/><rect id="rect241" width="10" height="3" x="-3.5" y="306" class="st7" transform="matrix(-1.836970e-16 1 -1 -1.836970e-16 309 306)"/><rect id="rect243" width="10" height="3" x="-3.5" y="326" class="st7" transform="matrix(-1.836970e-16 1 -1 -1.836970e-16 329 326)"/><rect id="rect245" width="10" height="3" x="-3.5" y="346" class="st7" transform="matrix(-1.836970e-16 1 -1 -1.836970e-16 349 346)"/><rect id="rect247" width="10" height="3" x="-3.5" y="366" class="st7" transform="matrix(-1.836970e-16 1 -1 -1.836970e-16 369 366)"/><rect id="rect249" width="10" height="3" x="-3.5" y="386" class="st7" transform="matrix(-1.836970e-16 1 -1 -1.836970e-16 389 386)"/><rect id="rect251" width="10" height="3" x="-3.5" y="406" class="st7" transform="matrix(-1.836970e-16 1 -1 -1.836970e-16 409 406)"/><rect id="rect253" width="10" height="3" x="-3.5" y="426" class="st7" transform="matrix(-1.836970e-16 1 -1 -1.836970e-16 429 426)"/><rect id="rect255" width="10" height="3" x="-3.5" y="446" class="st7" transform="matrix(-1.836970e-16 1 -1 -1.836970e-16 449 446)"/><rect id="rect257" width="10" height="3" x="-3.5" y="466" class="st7" transform="matrix(-1.836970e-16 1 -1 -1.836970e-16 469 466)"/><rect id="rect259" width="10" height="3" x="-3.5" y="486" class="st7" transform="matrix(-1.836970e-16 1 -1 -1.836970e-16 489 486)"/><rect id="rect261" width="10" height="3" x="-3.5" y="506" class="st7" transform="matrix(-1.836970e-16 1 -1 -1.836970e-16 509 506)"/><rect id="rect263" width="10" height="3" x="-3.5" y="526" class="st7" transform="matrix(-1.836970e-16 1 -1 -1.836970e-16 529 526)"/><rect id="rect265" width="10" height="3" x="-3.5" y="546" class="st7" transform="matrix(-1.836970e-16 1 -1 -1.836970e-16 549 546)"/><rect id="rect267" width="10" height="3" x="-3.5" y="566" class="st7" transform="matrix(-1.836970e-16 1 -1 -1.836970e-16 569 566)"/><rect id="rect269" width="10" height="3" x="-3.5" y="586" class="st7" transform="matrix(-1.836970e-16 1 -1 -1.836970e-16 589 586)"/><rect id="rect271" width="10" height="3" x="-3.5" y="606" class="st7" transform="matrix(-1.836970e-16 1 -1 -1.836970e-16 609 606)"/><rect id="rect273" width="10" height="3" x="-3.5" y="626" class="st7" transform="matrix(-1.836970e-16 1 -1 -1.836970e-16 629 626)"/><rect id="rect275" width="10" height="3" x="-3.5" y="646" class="st7" transform="matrix(-1.836970e-16 1 -1 -1.836970e-16 649 646)"/></g><g id="g277"><rect id="rect279" width="9" height="3" x="1" class="st7"/><rect id="rect281" width="10" height="3" x="20" class="st7"/><rect id="rect283" width="10" height="3" x="40" class="st7"/><rect id="rect285" width="10" height="3" x="60" class="st7"/><rect id="rect287" width="10" height="3" x="80" class="st7"/><rect id="rect289" width="10" height="3" x="100" class="st7"/><rect id="rect291" width="10" height="3" x="120" class="st7"/><rect id="rect293" width="10" height="3" x="140" class="st7"/><rect id="rect295" width="10" height="3" x="160" class="st7"/><rect id="rect297" width="10" height="3" x="180" class="st7"/><rect id="rect299" width="10" height="3" x="200" class="st7"/><rect id="rect301" width="10" height="3" x="220" class="st7"/><rect id="rect303" width="10" height="3" x="240" class="st7"/><rect id="rect305" width="10" height="3" x="260" class="st7"/><rect id="rect307" width="9" height="3" x="301" class="st7"/><rect id="rect309" width="10" height="3" x="320" class="st7"/><rect id="rect311" width="10" height="3" x="340" class="st7"/><rect id="rect313" width="10" height="3" x="360" class="st7"/><rect id="rect315" width="10" height="3" x="380" class="st7"/><rect id="rect317" width="10" height="3" x="400" class="st7"/><rect id="rect319" width="10" height="3" x="420" class="st7"/><rect id="rect321" width="10" height="3" x="440" class="st7"/><rect id="rect323" width="10" height="3" x="460" class="st7"/><rect id="rect325" width="10" height="3" x="480" class="st7"/><rect id="rect327" width="10" height="3" x="500" class="st7"/><rect id="rect329" width="10" height="3" x="520" class="st7"/><rect id="rect331" width="10" height="3" x="540" class="st7"/><rect id="rect333" width="10" height="3" x="560" class="st7"/></g><g id="g335"><rect id="rect337" width="10" height="3" x="5" y="211" class="st7"/><rect id="rect339" width="10" height="3" x="25" y="211" class="st7"/><rect id="rect341" width="10" height="3" x="45" y="211" class="st7"/><rect id="rect343" width="10" height="3" x="65" y="211" class="st7"/><rect id="rect345" width="10" height="3" x="85" y="211" class="st7"/><rect id="rect347" width="10" height="3" x="105" y="211" class="st7"/><rect id="rect349" width="10" height="3" x="125" y="211" class="st7"/><rect id="rect351" width="10" height="3" x="145" y="211" class="st7"/><rect id="rect353" width="10" height="3" x="165" y="211" class="st7"/><rect id="rect355" width="10" height="3" x="185" y="211" class="st7"/><rect id="rect357" width="10" height="3" x="205" y="211" class="st7"/><rect id="rect359" width="10" height="3" x="225" y="211" class="st7"/><rect id="rect361" width="10" height="3" x="245" y="211" class="st7"/><rect id="rect363" width="10" height="3" x="265" y="211" class="st7"/><rect id="rect365" width="10" height="3" x="305" y="211" class="st7"/><rect id="rect367" width="10" height="3" x="325" y="211" class="st7"/><rect id="rect369" width="10" height="3" x="345" y="211" class="st7"/><rect id="rect371" width="10" height="3" x="365" y="211" class="st7"/><rect id="rect373" width="10" height="3" x="385" y="211" class="st7"/><rect id="rect375" width="10" height="3" x="405" y="211" class="st7"/><rect id="rect377" width="10" height="3" x="425" y="211" class="st7"/><rect id="rect379" width="10" height="3" x="445" y="211" class="st7"/><rect id="rect381" width="10" height="3" x="465" y="211" class="st7"/><rect id="rect383" width="10" height="3" x="485" y="211" class="st7"/><rect id="rect385" width="10" height="3" x="505" y="211" class="st7"/><rect id="rect387" width="10" height="3" x="525" y="211" class="st7"/><rect id="rect389" width="10" height="3" x="545" y="211" class="st7"/><rect id="rect391" width="10" height="3" x="565" y="211" class="st7"/></g><g id="g393"><rect id="rect395" width="9" height="3" x="574.5" y="3" class="st7" transform="matrix(-1.836970e-16 1 -1 -1.836970e-16 583.5 -574.5)"/><rect id="rect397" width="10" height="3" x="574" y="22.5" class="st7" transform="matrix(-1.836970e-16 1 -1 -1.836970e-16 603 -555)"/><rect id="rect399" width="10" height="3" x="574" y="42.5" class="st7" transform="matrix(-1.836970e-16 1 -1 -1.836970e-16 623 -535)"/><rect id="rect401" width="10" height="3" x="574" y="62.5" class="st7" transform="matrix(-1.836970e-16 1 -1 -1.836970e-16 643 -515)"/><rect id="rect403" width="10" height="3" x="574" y="82.5" class="st7" transform="matrix(-1.836970e-16 1 -1 -1.836970e-16 663 -495)"/><rect id="rect405" width="10" height="3" x="574" y="102.5" class="st7" transform="matrix(-1.836970e-16 1 -1 -1.836970e-16 683 -475)"/><rect id="rect407" width="10" height="3" x="574" y="122.5" class="st7" transform="matrix(-1.836970e-16 1 -1 -1.836970e-16 703 -455)"/><rect id="rect409" width="10" height="3" x="574" y="142.5" class="st7" transform="matrix(-1.836970e-16 1 -1 -1.836970e-16 723 -435)"/><rect id="rect411" width="10" height="3" x="574" y="162.5" class="st7" transform="matrix(-1.836970e-16 1 -1 -1.836970e-16 743 -415)"/><rect id="rect413" width="10" height="3" x="574" y="182.5" class="st7" transform="matrix(-1.836970e-16 1 -1 -1.836970e-16 763 -395)"/><rect id="rect415" width="10" height="3" x="574" y="202.5" class="st7" transform="matrix(-1.836970e-16 1 -1 -1.836970e-16 783 -375)"/></g><g id="g417"><rect id="rect419" width="3" height="9" x="300.5" class="st7"/><rect id="rect421" width="10" height="3" x="297" y="22.5" class="st7" transform="matrix(-1.836970e-16 1 -1 -1.836970e-16 326 -278)"/><rect id="rect423" width="10" height="3" x="297" y="42.5" class="st7" transform="matrix(-1.836970e-16 1 -1 -1.836970e-16 346 -258)"/><rect id="rect425" width="10" height="3" x="297" y="62.5" class="st7" transform="matrix(-1.836970e-16 1 -1 -1.836970e-16 366 -238)"/><rect id="rect427" width="10" height="3" x="297" y="82.5" class="st7" transform="matrix(-1.836970e-16 1 -1 -1.836970e-16 386 -218)"/><rect id="rect429" width="10" height="3" x="297" y="102.5" class="st7" transform="matrix(-1.836970e-16 1 -1 -1.836970e-16 406 -198)"/><rect id="rect431" width="10" height="3" x="297" y="122.5" class="st7" transform="matrix(-1.836970e-16 1 -1 -1.836970e-16 426 -178)"/><rect id="rect433" width="10" height="3" x="297" y="142.5" class="st7" transform="matrix(-1.836970e-16 1 -1 -1.836970e-16 446 -158)"/><rect id="rect435" width="10" height="3" x="297" y="162.5" class="st7" transform="matrix(-1.836970e-16 1 -1 -1.836970e-16 466 -138)"/><rect id="rect437" width="10" height="3" x="297" y="182.5" class="st7" transform="matrix(-1.836970e-16 1 -1 -1.836970e-16 486 -118)"/><rect id="rect439" width="10" height="3" x="297" y="202.5" class="st7" transform="matrix(-1.836970e-16 1 -1 -1.836970e-16 506 -98)"/></g><g id="g441"><rect id="rect443" width="10" height="3" x="274" y="3.5" class="st7" transform="matrix(-1.836970e-16 1 -1 -1.836970e-16 284 -274)"/><rect id="rect445" width="10" height="3" x="274" y="23.5" class="st7" transform="matrix(-1.836970e-16 1 -1 -1.836970e-16 304 -254)"/><rect id="rect447" width="10" height="3" x="274" y="43.5" class="st7" transform="matrix(-1.836970e-16 1 -1 -1.836970e-16 324 -234)"/><rect id="rect449" width="10" height="3" x="274" y="63.5" class="st7" transform="matrix(-1.836970e-16 1 -1 -1.836970e-16 344 -214)"/><rect id="rect451" width="10" height="3" x="274" y="83.5" class="st7" transform="matrix(-1.836970e-16 1 -1 -1.836970e-16 364 -194)"/><rect id="rect453" width="10" height="3" x="274" y="103.5" class="st7" transform="matrix(-1.836970e-16 1 -1 -1.836970e-16 384 -174)"/><rect id="rect455" width="10" height="3" x="274" y="123.5" class="st7" transform="matrix(-1.836970e-16 1 -1 -1.836970e-16 404 -154)"/><rect id="rect457" width="10" height="3" x="274" y="143.5" class="st7" transform="matrix(-1.836970e-16 1 -1 -1.836970e-16 424 -134)"/><rect id="rect459" width="10" height="3" x="274" y="163.5" class="st7" transform="matrix(-1.836970e-16 1 -1 -1.836970e-16 444 -114)"/><rect id="rect461" width="10" height="3" x="274" y="183.5" class="st7" transform="matrix(-1.836970e-16 1 -1 -1.836970e-16 464 -94)"/><rect id="rect463" width="10" height="3" x="274" y="203.5" class="st7" transform="matrix(-1.836970e-16 1 -1 -1.836970e-16 484 -74)"/></g><g id="g465"><rect id="rect467" width="9" height="3" x="-3" y="3" class="st7" transform="matrix(-1.836970e-16 1 -1 -1.836970e-16 6 3)"/><rect id="rect469" width="10" height="3" x="-3.5" y="22.5" class="st7" transform="matrix(-1.836970e-16 1 -1 -1.836970e-16 25.5 22.5)"/><rect id="rect471" width="10" height="3" x="-3.5" y="42.5" class="st7" transform="matrix(-1.836970e-16 1 -1 -1.836970e-16 45.5 42.5)"/><rect id="rect473" width="10" height="3" x="-3.5" y="62.5" class="st7" transform="matrix(-1.836970e-16 1 -1 -1.836970e-16 65.5 62.5)"/><rect id="rect475" width="10" height="3" x="-3.5" y="82.5" class="st7" transform="matrix(-1.836970e-16 1 -1 -1.836970e-16 85.5 82.5)"/><rect id="rect477" width="10" height="3" x="-3.5" y="102.5" class="st7" transform="matrix(-1.836970e-16 1 -1 -1.836970e-16 105.5 102.5)"/><rect id="rect479" width="10" height="3" x="-3.5" y="122.5" class="st7" transform="matrix(-1.836970e-16 1 -1 -1.836970e-16 125.5 122.5)"/><rect id="rect481" width="10" height="3" x="-3.5" y="142.5" class="st7" transform="matrix(-1.836970e-16 1 -1 -1.836970e-16 145.5 142.5)"/><rect id="rect483" width="10" height="3" x="-3.5" y="162.5" class="st7" transform="matrix(-1.836970e-16 1 -1 -1.836970e-16 165.5 162.5)"/><rect id="rect485" width="10" height="3" x="-3.5" y="182.5" class="st7" transform="matrix(-1.836970e-16 1 -1 -1.836970e-16 185.5 182.5)"/><rect id="rect487" width="10" height="3" x="-3.5" y="202.5" class="st7" transform="matrix(-1.836970e-16 1 -1 -1.836970e-16 205.5 202.5)"/></g><g id="g489"><path id="path491" d="M74.2,29h7.1c2.9,0,4.8,0.9,4.8,3.7c0,1.5-0.7,2.5-2,3.1c1.8,0.5,2.8,1.9,2.8,3.8c0,3-2.6,4.3-5.3,4.3h-7.3 V29z M77.5,35.1h3.3c1.2,0,2-0.5,2-1.8c0-1.4-1.1-1.7-2.3-1.7h-3.1V35.1z M77.5,41.4h3.5c1.3,0,2.4-0.4,2.4-2 c0-1.5-0.9-2.1-2.4-2.1h-3.6V41.4z" class="st6"/><path id="path493" d="M88.4,29h3v15h-3V29z" class="st6"/><path id="path495" d="M103.6,44h-2.8v-1.5h-0.1c-0.8,1.2-2.1,1.8-3.3,1.8c-3.2,0-4-1.8-4-4.5v-6.7h3v6.1c0,1.8,0.5,2.7,1.9,2.7 c1.6,0,2.3-0.9,2.3-3.1v-5.7h3V44z" class="st6"/><path id="path497" d="M108,39.3c0.1,1.9,1,2.8,2.7,2.8c1.2,0,2.2-0.7,2.4-1.4h2.6c-0.8,2.6-2.6,3.7-5.1,3.7 c-3.4,0-5.5-2.4-5.5-5.7c0-3.3,2.2-5.7,5.5-5.7c3.7,0,5.5,3.1,5.3,6.4H108z M112.9,37.4c-0.3-1.5-0.9-2.3-2.4-2.3 c-1.9,0-2.4,1.5-2.5,2.3H112.9z" class="st6"/><path id="path499" d="M117.5,33.1h2.8v1.5h0c0.8-1.1,1.9-1.8,3.3-1.8c1.4,0,2.6,0.5,3.2,1.8c0.7-0.9,1.8-1.8,3.3-1.8 c2.3,0,4,1.1,4,3.9V44h-3v-6.2c0-1.4-0.1-2.6-1.8-2.6c-1.7,0-2,1.4-2,2.8v6h-3v-6.1c0-1.3,0.1-2.7-1.8-2.7c-0.6,0-2,0.4-2,2.5V44 h-3V33.1z" class="st6"/><path id="path501" d="M139.2,31.5h-3V29h3V31.5z M136.2,33.1h3V44h-3V33.1z" class="st6"/><path id="path503" d="M144,38.3l-3.6-5.1h3.4l1.9,2.8l1.9-2.8h3.3l-3.6,5.1l4,5.8h-3.4l-2.3-3.4l-2.3,3.4h-3.3L144,38.3z" class="st6"/><path id="path505" d="M157.4,29h3.3v12.2h7.3V44h-10.6V29z" class="st6"/><path id="path507" d="M174.4,32.9c3.4,0,5.6,2.3,5.6,5.7c0,3.4-2.2,5.7-5.6,5.7c-3.4,0-5.6-2.3-5.6-5.7 C168.8,35.1,171,32.9,174.4,32.9z M174.4,42c2,0,2.6-1.7,2.6-3.5s-0.6-3.5-2.6-3.5c-2,0-2.6,1.7-2.6,3.5S172.4,42,174.4,42z" class="st6"/><path id="path509" d="M188.9,37c-0.2-1.2-0.9-1.9-2.2-1.9c-1.9,0-2.5,1.9-2.5,3.5c0,1.6,0.6,3.4,2.5,3.4c1.4,0,2.2-0.9,2.4-2.2 h2.9c-0.4,2.9-2.4,4.5-5.2,4.5c-3.3,0-5.5-2.3-5.5-5.6c0-3.4,2-5.9,5.5-5.9c2.6,0,4.9,1.3,5.1,4.1H188.9z" class="st6"/><path id="path511" d="M193.1,36.5c0.2-2.8,2.7-3.6,5.1-3.6c2.2,0,4.8,0.5,4.8,3.1v5.6c0,1,0.1,2,0.4,2.4h-3 c-0.1-0.3-0.2-0.7-0.2-1c-0.9,1-2.3,1.3-3.7,1.3c-2.1,0-3.7-1-3.7-3.3c0-4.9,7.3-2.3,7.2-4.7c0-1.3-0.9-1.5-1.9-1.5 c-1.2,0-1.9,0.5-2,1.6H193.1z M200,38.7c-0.5,0.4-1.6,0.5-2.5,0.6s-1.8,0.5-1.8,1.6s0.9,1.4,1.8,1.4c2.3,0,2.4-1.8,2.4-2.5V38.7z" class="st6"/><path id="path513" d="M205.2,29h3v15h-3V29z" class="st6"/></g><g id="g515"><path id="path517" d="M90.4,166.2c4.8,0,7.2,3.8,7.2,7.9s-2.4,7.9-7.2,7.9s-7.2-3.8-7.2-7.9S85.6,166.2,90.4,166.2z M90.4,180.2 c3.7,0,5.2-3.1,5.2-6.2s-1.5-6.2-5.2-6.2s-5.2,3.1-5.2,6.2S86.7,180.2,90.4,180.2z" class="st6"/><path id="path519" d="M99.4,170.6h1.7v2.3h0c0.9-1.8,2.1-2.6,4-2.5v1.9c-2.9,0-3.9,1.6-3.9,4.4v4.8h-1.8V170.6z" class="st6"/><path id="path521" d="M115.3,180.6c0,3.5-1.6,5.3-5,5.3c-2,0-4.4-0.8-4.5-3.2h1.8c0.1,1.3,1.7,1.8,2.8,1.8c2.3,0,3.3-1.7,3.3-4.1 v-0.7h0c-0.6,1.3-2,2-3.4,2c-3.2,0-4.9-2.5-4.9-5.5c0-2.6,1.2-5.7,5-5.7c1.4,0,2.6,0.6,3.2,1.8h0v-1.6h1.7V180.6z M113.6,175.9 c0-1.9-0.8-3.9-3.1-3.9c-2.3,0-3.2,1.9-3.2,3.9c0,2,0.7,4.1,3.1,4.1S113.6,177.9,113.6,175.9z" class="st6"/><path id="path523" d="M127.2,181.5c-0.3,0.2-0.8,0.3-1.3,0.3c-0.9,0-1.5-0.5-1.5-1.7c-1,1.2-2.3,1.7-3.8,1.7c-2,0-3.6-0.9-3.6-3 c0-2.5,1.8-3,3.7-3.3c2-0.4,3.7-0.2,3.7-1.6c0-1.6-1.3-1.8-2.4-1.8c-1.5,0-2.6,0.5-2.7,2.1h-1.8c0.1-2.7,2.2-3.6,4.6-3.6 c2,0,4.1,0.4,4.1,3v5.6c0,0.8,0,1.2,0.6,1.2c0.2,0,0.4,0,0.5-0.1V181.5z M124.4,175.9c-1.4,1-5.4,0-5.4,2.7c0,1.2,1,1.6,2.1,1.6 c2.4,0,3.3-1.4,3.3-2.5V175.9z" class="st6"/><path id="path525" d="M128.9,170.6h1.7v1.7h0c0.8-1.3,2-2,3.5-2c2.9,0,3.7,1.6,3.7,4v7.1h-1.8v-7.3c0-1.3-0.8-2.2-2.2-2.2 c-2.2,0-3.2,1.4-3.2,3.4v6.1h-1.8V170.6z" class="st6"/><path id="path527" d="M142,168.7h-1.8v-2.2h1.8V168.7z M140.2,170.6h1.8v10.9h-1.8V170.6z" class="st6"/><path id="path529" d="M143.5,180.1l6.6-7.9h-6.1v-1.6h8.4v1.2l-6.6,8.1h6.9v1.6h-9.2V180.1z" class="st6"/><path id="path531" d="M163.8,181.5c-0.3,0.2-0.8,0.3-1.3,0.3c-0.9,0-1.5-0.5-1.5-1.7c-1,1.2-2.3,1.7-3.8,1.7c-2,0-3.6-0.9-3.6-3 c0-2.5,1.8-3,3.7-3.3c2-0.4,3.7-0.2,3.7-1.6c0-1.6-1.3-1.8-2.4-1.8c-1.5,0-2.6,0.5-2.7,2.1H154c0.1-2.7,2.2-3.6,4.6-3.6 c2,0,4.1,0.4,4.1,3v5.6c0,0.8,0,1.2,0.6,1.2c0.2,0,0.4,0,0.5-0.1V181.5z M160.9,175.9c-1.4,1-5.4,0-5.4,2.7c0,1.2,1,1.6,2.1,1.6 c2.4,0,3.3-1.4,3.3-2.5V175.9z" class="st6"/><path id="path533" d="M167.7,170.6h2.2v1.6h-2.2v6.7c0,0.8,0.2,1,1.3,1h0.8v1.6h-1.4c-1.8,0-2.6-0.4-2.6-2.4v-6.9h-1.8v-1.6h1.8 v-3.3h1.8V170.6z" class="st6"/><path id="path535" d="M173.4,168.7h-1.8v-2.2h1.8V168.7z M171.6,170.6h1.8v10.9h-1.8V170.6z" class="st6"/><path id="path537" d="M180.5,170.4c3.4,0,5.3,2.5,5.3,5.7c0,3.2-1.8,5.7-5.3,5.7s-5.3-2.5-5.3-5.7 C175.2,172.9,177.1,170.4,180.5,170.4z M180.5,180.2c1.9,0,3.4-1.5,3.4-4.1s-1.5-4.1-3.4-4.1s-3.4,1.5-3.4,4.1 S178.6,180.2,180.5,180.2z" class="st6"/><path id="path539" d="M187.5,170.6h1.7v1.7h0c0.8-1.3,2-2,3.5-2c2.9,0,3.7,1.6,3.7,4v7.1h-1.8v-7.3c0-1.3-0.8-2.2-2.2-2.2 c-2.2,0-3.2,1.4-3.2,3.4v6.1h-1.8V170.6z" class="st6"/></g><g id="g541"><path id="path543" d="M390.4,166.2c4.8,0,7.2,3.8,7.2,7.9s-2.4,7.9-7.2,7.9s-7.2-3.8-7.2-7.9S385.6,166.2,390.4,166.2z M390.4,180.2c3.7,0,5.2-3.1,5.2-6.2s-1.5-6.2-5.2-6.2s-5.2,3.1-5.2,6.2S386.7,180.2,390.4,180.2z" class="st6"/><path id="path545" d="M399.4,170.6h1.7v2.3h0c0.9-1.8,2.1-2.6,4-2.5v1.9c-2.9,0-3.9,1.6-3.9,4.4v4.8h-1.8V170.6z" class="st6"/><path id="path547" d="M415.3,180.6c0,3.5-1.6,5.3-5,5.3c-2,0-4.4-0.8-4.5-3.2h1.8c0.1,1.3,1.7,1.8,2.8,1.8c2.3,0,3.3-1.7,3.3-4.1 v-0.7h0c-0.6,1.3-2,2-3.4,2c-3.2,0-4.9-2.5-4.9-5.5c0-2.6,1.2-5.7,5-5.7c1.4,0,2.6,0.6,3.2,1.8h0v-1.6h1.7V180.6z M413.6,175.9 c0-1.9-0.8-3.9-3.1-3.9c-2.3,0-3.2,1.9-3.2,3.9c0,2,0.7,4.1,3.1,4.1S413.6,177.9,413.6,175.9z" class="st6"/><path id="path549" d="M427.2,181.5c-0.3,0.2-0.8,0.3-1.3,0.3c-0.9,0-1.5-0.5-1.5-1.7c-1,1.2-2.3,1.7-3.8,1.7c-2,0-3.6-0.9-3.6-3 c0-2.5,1.8-3,3.7-3.3c2-0.4,3.7-0.2,3.7-1.6c0-1.6-1.3-1.8-2.4-1.8c-1.5,0-2.6,0.5-2.7,2.1h-1.8c0.1-2.7,2.2-3.6,4.6-3.6 c2,0,4.1,0.4,4.1,3v5.6c0,0.8,0,1.2,0.6,1.2c0.2,0,0.4,0,0.5-0.1V181.5z M424.4,175.9c-1.4,1-5.4,0-5.4,2.7c0,1.2,1,1.6,2.1,1.6 c2.4,0,3.3-1.4,3.3-2.5V175.9z" class="st6"/><path id="path551" d="M428.9,170.6h1.7v1.7h0c0.8-1.3,2-2,3.5-2c2.9,0,3.7,1.6,3.7,4v7.1h-1.8v-7.3c0-1.3-0.8-2.2-2.2-2.2 c-2.2,0-3.2,1.4-3.2,3.4v6.1h-1.8V170.6z" class="st6"/><path id="path553" d="M442,168.7h-1.8v-2.2h1.8V168.7z M440.2,170.6h1.8v10.9h-1.8V170.6z" class="st6"/><path id="path555" d="M443.5,180.1l6.6-7.9h-6.1v-1.6h8.4v1.2l-6.6,8.1h6.9v1.6h-9.2V180.1z" class="st6"/><path id="path557" d="M463.8,181.5c-0.3,0.2-0.8,0.3-1.3,0.3c-0.9,0-1.5-0.5-1.5-1.7c-1,1.2-2.3,1.7-3.8,1.7c-2,0-3.6-0.9-3.6-3 c0-2.5,1.8-3,3.7-3.3c2-0.4,3.7-0.2,3.7-1.6c0-1.6-1.3-1.8-2.4-1.8c-1.5,0-2.6,0.5-2.7,2.1H454c0.1-2.7,2.2-3.6,4.6-3.6 c2,0,4.1,0.4,4.1,3v5.6c0,0.8,0,1.2,0.6,1.2c0.2,0,0.4,0,0.5-0.1V181.5z M460.9,175.9c-1.4,1-5.4,0-5.4,2.7c0,1.2,1,1.6,2.1,1.6 c2.4,0,3.3-1.4,3.3-2.5V175.9z" class="st6"/><path id="path559" d="M467.7,170.6h2.2v1.6h-2.2v6.7c0,0.8,0.2,1,1.3,1h0.8v1.6h-1.4c-1.8,0-2.6-0.4-2.6-2.4v-6.9h-1.8v-1.6h1.8 v-3.3h1.8V170.6z" class="st6"/><path id="path561" d="M473.4,168.7h-1.8v-2.2h1.8V168.7z M471.6,170.6h1.8v10.9h-1.8V170.6z" class="st6"/><path id="path563" d="M480.5,170.4c3.4,0,5.3,2.5,5.3,5.7c0,3.2-1.8,5.7-5.3,5.7s-5.3-2.5-5.3-5.7 C475.2,172.9,477.1,170.4,480.5,170.4z M480.5,180.2c1.9,0,3.4-1.5,3.4-4.1s-1.5-4.1-3.4-4.1s-3.4,1.5-3.4,4.1 S478.6,180.2,480.5,180.2z" class="st6"/><path id="path565" d="M487.5,170.6h1.7v1.7h0c0.8-1.3,2-2,3.5-2c2.9,0,3.7,1.6,3.7,4v7.1h-1.8v-7.3c0-1.3-0.8-2.2-2.2-2.2 c-2.2,0-3.2,1.4-3.2,3.4v6.1h-1.8V170.6z" class="st6"/></g><g id="g567"><path id="path569" d="M351.2,28.5h7.1c2.9,0,4.8,0.9,4.8,3.7c0,1.5-0.7,2.5-2,3.1c1.8,0.5,2.8,1.9,2.8,3.8c0,3-2.6,4.3-5.3,4.3 h-7.3V28.5z M354.5,34.6h3.3c1.2,0,2-0.5,2-1.8c0-1.4-1.1-1.7-2.3-1.7h-3.1V34.6z M354.5,40.9h3.5c1.3,0,2.4-0.4,2.4-2 c0-1.5-0.9-2.1-2.4-2.1h-3.6V40.9z" class="st6"/><path id="path571" d="M365.4,28.5h3v15h-3V28.5z" class="st6"/><path id="path573" d="M380.6,43.5h-2.8V42h-0.1c-0.8,1.2-2.1,1.8-3.3,1.8c-3.2,0-4-1.8-4-4.5v-6.7h3v6.1c0,1.8,0.5,2.7,1.9,2.7 c1.6,0,2.3-0.9,2.3-3.1v-5.7h3V43.5z" class="st6"/><path id="path575" d="M385,38.8c0.1,1.9,1,2.8,2.7,2.8c1.2,0,2.2-0.7,2.4-1.4h2.6c-0.8,2.6-2.6,3.7-5.1,3.7 c-3.4,0-5.5-2.4-5.5-5.7c0-3.3,2.2-5.7,5.5-5.7c3.7,0,5.5,3.1,5.3,6.4H385z M389.9,36.9c-0.3-1.5-0.9-2.3-2.4-2.3 c-1.9,0-2.4,1.5-2.5,2.3H389.9z" class="st6"/><path id="path577" d="M394.5,32.6h2.8v1.5h0c0.8-1.1,1.9-1.8,3.3-1.8c1.4,0,2.6,0.5,3.2,1.8c0.7-0.9,1.8-1.8,3.3-1.8 c2.3,0,4,1.1,4,3.9v7.3h-3v-6.2c0-1.4-0.1-2.6-1.8-2.6c-1.7,0-2,1.4-2,2.8v6h-3v-6.1c0-1.3,0.1-2.7-1.8-2.7c-0.6,0-2,0.4-2,2.5 v6.3h-3V32.6z" class="st6"/><path id="path579" d="M416.2,31h-3v-2.5h3V31z M413.2,32.6h3v10.9h-3V32.6z" class="st6"/><path id="path581" d="M421,37.8l-3.6-5.1h3.4l1.9,2.8l1.9-2.8h3.3l-3.6,5.1l4,5.8h-3.4l-2.3-3.4l-2.3,3.4h-3.3L421,37.8z" class="st6"/><path id="path583" d="M434.4,28.5h6.5c3.9,0,6.8,2.5,6.8,7.4c0,4.3-2.2,7.6-6.8,7.6h-6.5V28.5z M437.7,40.7h2.9 c1.9,0,3.7-1.2,3.7-4.5c0-3-1.1-5-4.3-5h-2.4V40.7z" class="st6"/><path id="path585" d="M451.8,38.8c0.1,1.9,1,2.8,2.7,2.8c1.2,0,2.2-0.7,2.4-1.4h2.6c-0.8,2.6-2.6,3.7-5.1,3.7 c-3.4,0-5.5-2.4-5.5-5.7c0-3.3,2.2-5.7,5.5-5.7c3.7,0,5.5,3.1,5.3,6.4H451.8z M456.7,36.9c-0.3-1.5-0.9-2.3-2.4-2.3 c-1.9,0-2.4,1.5-2.5,2.3H456.7z" class="st6"/><path id="path587" d="M468.9,42.1L468.9,42.1c-0.7,1.2-1.9,1.7-3.3,1.7c-3.3,0-4.9-2.8-4.9-5.8c0-2.9,1.6-5.6,4.8-5.6 c1.3,0,2.5,0.5,3.2,1.6h0v-5.5h3v15h-2.8V42.1z M466.3,34.6c-2,0-2.6,1.7-2.6,3.5c0,1.7,0.8,3.5,2.6,3.5c2,0,2.6-1.7,2.6-3.5 C468.9,36.3,468.3,34.6,466.3,34.6z" class="st6"/><path id="path589" d="M476.8,31h-3v-2.5h3V31z M473.8,32.6h3v10.9h-3V32.6z" class="st6"/><path id="path591" d="M486.2,36.5c-0.2-1.2-0.9-1.9-2.2-1.9c-1.9,0-2.5,1.9-2.5,3.5c0,1.6,0.6,3.4,2.5,3.4c1.4,0,2.2-0.9,2.4-2.2 h2.9c-0.4,2.9-2.4,4.5-5.2,4.5c-3.3,0-5.5-2.3-5.5-5.6c0-3.4,2-5.9,5.5-5.9c2.6,0,4.9,1.3,5.1,4.1H486.2z" class="st6"/><path id="path593" d="M490.4,36c0.2-2.8,2.7-3.6,5.1-3.6c2.2,0,4.8,0.5,4.8,3.1v5.6c0,1,0.1,2,0.4,2.4h-3c-0.1-0.3-0.2-0.7-0.2-1 c-0.9,1-2.3,1.3-3.7,1.3c-2.1,0-3.7-1-3.7-3.3c0-4.9,7.3-2.3,7.2-4.7c0-1.3-0.9-1.5-1.9-1.5c-1.2,0-1.9,0.5-2,1.6H490.4z M497.2,38.2c-0.5,0.4-1.6,0.5-2.5,0.6s-1.8,0.5-1.8,1.6s0.9,1.4,1.8,1.4c2.3,0,2.4-1.8,2.4-2.5V38.2z" class="st6"/><path id="path595" d="M506.1,32.6h2.2v2h-2.2V40c0,1,0.3,1.3,1.3,1.3c0.3,0,0.7,0,0.9-0.1v2.3c-0.5,0.1-1.2,0.1-1.7,0.1 c-1.8,0-3.4-0.4-3.4-2.6v-6.4h-1.8v-2h1.8v-3.3h3V32.6z" class="st6"/><path id="path597" d="M511.7,38.8c0.1,1.9,1,2.8,2.7,2.8c1.2,0,2.2-0.7,2.4-1.4h2.6c-0.8,2.6-2.6,3.7-5.1,3.7 c-3.4,0-5.5-2.4-5.5-5.7c0-3.3,2.2-5.7,5.5-5.7c3.7,0,5.5,3.1,5.3,6.4H511.7z M516.6,36.9c-0.3-1.5-0.9-2.3-2.4-2.3 c-1.9,0-2.4,1.5-2.5,2.3H516.6z" class="st6"/><path id="path599" d="M528.9,42.1L528.9,42.1c-0.7,1.2-1.9,1.7-3.3,1.7c-3.3,0-4.9-2.8-4.9-5.8c0-2.9,1.6-5.6,4.8-5.6 c1.3,0,2.5,0.5,3.2,1.6h0v-5.5h3v15h-2.8V42.1z M526.3,34.6c-2,0-2.6,1.7-2.6,3.5c0,1.7,0.8,3.5,2.6,3.5c2,0,2.6-1.7,2.6-3.5 C528.8,36.3,528.2,34.6,526.3,34.6z" class="st6"/></g><g id="g601"><path id="path603" d="M79.4,340h7.1c2.8,0,4.6,1.5,4.6,3.9c0,1.8-0.8,3.3-2.6,3.8v0c1.7,0.3,2.1,1.6,2.2,3.1 c0.1,1.4,0,3.1,0.9,4.1h-2.2c-0.6-0.6-0.3-2.2-0.5-3.7c-0.2-1.4-0.6-2.7-2.5-2.7h-4.9v6.4h-2V340z M85.6,346.9 c1.8,0,3.5-0.5,3.5-2.7c0-1.5-0.8-2.6-2.7-2.6h-5v5.2H85.6z" class="st6"/><path id="path605" d="M102.4,351.6c-0.5,2.4-2.2,3.7-4.6,3.7c-3.5,0-5.1-2.4-5.2-5.7c0-3.3,2.1-5.6,5.1-5.6c3.8,0,5,3.6,4.9,6.2 h-8.1c-0.1,1.9,1,3.6,3.4,3.6c1.5,0,2.5-0.7,2.8-2.1H102.4z M100.7,348.5c-0.1-1.7-1.3-3.1-3.1-3.1c-1.8,0-3,1.4-3.1,3.1H100.7z" class="st6"/><path id="path607" d="M113.9,354.1c0,3.5-1.6,5.3-5,5.3c-2,0-4.4-0.8-4.5-3.2h1.8c0.1,1.3,1.7,1.8,2.8,1.8c2.3,0,3.3-1.7,3.3-4.1 v-0.7h0c-0.6,1.3-2,2-3.4,2c-3.2,0-4.9-2.5-4.9-5.5c0-2.6,1.2-5.7,5-5.7c1.4,0,2.6,0.6,3.2,1.8h0v-1.6h1.7V354.1z M112.2,349.4 c0-1.9-0.8-3.9-3.1-3.9c-2.3,0-3.2,1.9-3.2,3.9c0,2,0.7,4.1,3.1,4.1S112.2,351.4,112.2,349.4z" class="st6"/><path id="path609" d="M118,342.2h-1.8V340h1.8V342.2z M116.2,344.1h1.8V355h-1.8V344.1z" class="st6"/><path id="path611" d="M125.1,343.9c3.4,0,5.3,2.5,5.3,5.7c0,3.2-1.8,5.7-5.3,5.7c-3.4,0-5.3-2.5-5.3-5.7 C119.9,346.4,121.7,343.9,125.1,343.9z M125.1,353.7c1.9,0,3.4-1.5,3.4-4.1s-1.5-4.1-3.4-4.1c-1.9,0-3.4,1.5-3.4,4.1 S123.3,353.7,125.1,353.7z" class="st6"/><path id="path613" d="M132.2,344.1h1.7v1.7h0c0.8-1.3,2-2,3.5-2c2.9,0,3.7,1.6,3.7,4v7.1h-1.8v-7.3c0-1.3-0.8-2.2-2.2-2.2 c-2.2,0-3.2,1.4-3.2,3.4v6.1h-1.8V344.1z" class="st6"/></g><g id="g615"><path id="path617" d="M259.4,340h7.1c2.8,0,4.6,1.5,4.6,3.9c0,1.8-0.8,3.3-2.6,3.8v0c1.7,0.3,2.1,1.6,2.2,3.1 c0.1,1.4,0,3.1,0.9,4.1h-2.2c-0.6-0.6-0.3-2.2-0.5-3.7c-0.2-1.4-0.6-2.7-2.5-2.7h-4.9v6.4h-2V340z M265.6,346.9 c1.8,0,3.5-0.5,3.5-2.7c0-1.5-0.8-2.6-2.7-2.6h-5v5.2H265.6z" class="st6"/><path id="path619" d="M282.4,351.6c-0.5,2.4-2.2,3.7-4.6,3.7c-3.5,0-5.1-2.4-5.2-5.7c0-3.3,2.1-5.6,5.1-5.6c3.8,0,5,3.6,4.9,6.2 h-8.1c-0.1,1.9,1,3.6,3.4,3.6c1.5,0,2.5-0.7,2.8-2.1H282.4z M280.7,348.5c-0.1-1.7-1.3-3.1-3.1-3.1c-1.8,0-3,1.4-3.1,3.1H280.7z" class="st6"/><path id="path621" d="M293.9,354.1c0,3.5-1.6,5.3-5,5.3c-2,0-4.4-0.8-4.5-3.2h1.8c0.1,1.3,1.7,1.8,2.8,1.8c2.3,0,3.3-1.7,3.3-4.1 v-0.7h0c-0.6,1.3-2,2-3.4,2c-3.2,0-4.9-2.5-4.9-5.5c0-2.6,1.2-5.7,5-5.7c1.4,0,2.6,0.6,3.2,1.8h0v-1.6h1.7V354.1z M292.2,349.4 c0-1.9-0.8-3.9-3.1-3.9c-2.3,0-3.2,1.9-3.2,3.9c0,2,0.7,4.1,3.1,4.1C291.3,353.6,292.2,351.4,292.2,349.4z" class="st6"/><path id="path623" d="M298,342.2h-1.8V340h1.8V342.2z M296.2,344.1h1.8V355h-1.8V344.1z" class="st6"/><path id="path625" d="M305.1,343.9c3.4,0,5.3,2.5,5.3,5.7c0,3.2-1.8,5.7-5.3,5.7s-5.3-2.5-5.3-5.7 C299.9,346.4,301.7,343.9,305.1,343.9z M305.1,353.7c1.9,0,3.4-1.5,3.4-4.1s-1.5-4.1-3.4-4.1c-1.9,0-3.4,1.5-3.4,4.1 S303.3,353.7,305.1,353.7z" class="st6"/><path id="path627" d="M312.2,344.1h1.7v1.7h0c0.8-1.3,2-2,3.5-2c2.9,0,3.7,1.6,3.7,4v7.1h-1.8v-7.3c0-1.3-0.8-2.2-2.2-2.2 c-2.2,0-3.2,1.4-3.2,3.4v6.1h-1.8V344.1z" class="st6"/></g><g id="g629"><path id="path631" d="M440.4,340h7.1c2.8,0,4.6,1.5,4.6,3.9c0,1.8-0.8,3.3-2.6,3.8v0c1.7,0.3,2.1,1.6,2.2,3.1 c0.1,1.4,0,3.1,0.9,4.1h-2.2c-0.6-0.6-0.3-2.2-0.5-3.7c-0.2-1.4-0.6-2.7-2.5-2.7h-4.9v6.4h-2V340z M446.6,346.9 c1.8,0,3.5-0.5,3.5-2.7c0-1.5-0.8-2.6-2.7-2.6h-5v5.2H446.6z" class="st6"/><path id="path633" d="M463.4,351.6c-0.5,2.4-2.2,3.7-4.6,3.7c-3.5,0-5.1-2.4-5.2-5.7c0-3.3,2.1-5.6,5.1-5.6c3.8,0,5,3.6,4.9,6.2 h-8.1c-0.1,1.9,1,3.6,3.4,3.6c1.5,0,2.5-0.7,2.8-2.1H463.4z M461.7,348.5c-0.1-1.7-1.3-3.1-3.1-3.1c-1.8,0-3,1.4-3.1,3.1H461.7z" class="st6"/><path id="path635" d="M474.9,354.1c0,3.5-1.6,5.3-5,5.3c-2,0-4.4-0.8-4.5-3.2h1.8c0.1,1.3,1.7,1.8,2.8,1.8c2.3,0,3.3-1.7,3.3-4.1 v-0.7h0c-0.6,1.3-2,2-3.4,2c-3.2,0-4.8-2.5-4.8-5.5c0-2.6,1.2-5.7,5-5.7c1.4,0,2.6,0.6,3.2,1.8h0v-1.6h1.7V354.1z M473.2,349.4 c0-1.9-0.8-3.9-3.1-3.9c-2.3,0-3.2,1.9-3.2,3.9c0,2,0.7,4.1,3.1,4.1S473.2,351.4,473.2,349.4z" class="st6"/><path id="path637" d="M479,342.2h-1.8V340h1.8V342.2z M477.2,344.1h1.8V355h-1.8V344.1z" class="st6"/><path id="path639" d="M486.1,343.9c3.4,0,5.3,2.5,5.3,5.7c0,3.2-1.8,5.7-5.3,5.7s-5.3-2.5-5.3-5.7 C480.9,346.4,482.7,343.9,486.1,343.9z M486.1,353.7c1.9,0,3.4-1.5,3.4-4.1s-1.5-4.1-3.4-4.1c-1.9,0-3.4,1.5-3.4,4.1 S484.3,353.7,486.1,353.7z" class="st6"/><path id="path641" d="M493.2,344.1h1.7v1.7h0c0.8-1.3,2-2,3.5-2c2.9,0,3.7,1.6,3.7,4v7.1h-1.8v-7.3c0-1.3-0.8-2.2-2.2-2.2 c-2.2,0-3.2,1.4-3.2,3.4v6.1h-1.8V344.1z" class="st6"/></g><g id="g643"><path id="path645" d="M240.4,599.2c4.8,0,7.2,3.8,7.2,7.9s-2.4,7.9-7.2,7.9s-7.2-3.8-7.2-7.9S235.6,599.2,240.4,599.2z M240.4,613.2c3.7,0,5.2-3.1,5.2-6.2s-1.5-6.2-5.2-6.2s-5.2,3.1-5.2,6.2S236.7,613.2,240.4,613.2z" class="st6"/><path id="path647" d="M249.4,603.6h1.7v2.3h0c0.9-1.8,2.1-2.6,4-2.5v1.9c-2.9,0-3.9,1.6-3.9,4.4v4.8h-1.8V603.6z" class="st6"/><path id="path649" d="M265.3,613.6c0,3.5-1.6,5.3-5,5.3c-2,0-4.4-0.8-4.5-3.2h1.8c0.1,1.3,1.7,1.8,2.8,1.8c2.3,0,3.3-1.7,3.3-4.1 v-0.7h0c-0.6,1.3-2,2-3.4,2c-3.2,0-4.9-2.5-4.9-5.5c0-2.6,1.2-5.7,5-5.7c1.4,0,2.6,0.6,3.2,1.8h0v-1.6h1.7V613.6z M263.6,608.9 c0-1.9-0.8-3.9-3.1-3.9c-2.3,0-3.2,1.9-3.2,3.9c0,2,0.7,4.1,3.1,4.1S263.6,610.9,263.6,608.9z" class="st6"/><path id="path651" d="M277.2,614.5c-0.3,0.2-0.8,0.3-1.3,0.3c-0.9,0-1.5-0.5-1.5-1.7c-1,1.2-2.3,1.7-3.8,1.7c-2,0-3.6-0.9-3.6-3 c0-2.5,1.8-3,3.7-3.3c2-0.4,3.7-0.2,3.7-1.6c0-1.6-1.3-1.8-2.4-1.8c-1.5,0-2.6,0.5-2.7,2.1h-1.8c0.1-2.7,2.2-3.6,4.6-3.6 c2,0,4.1,0.4,4.1,3v5.6c0,0.8,0,1.2,0.6,1.2c0.2,0,0.4,0,0.5-0.1V614.5z M274.4,608.9c-1.4,1-5.4,0-5.4,2.7c0,1.2,1,1.6,2.1,1.6 c2.4,0,3.3-1.4,3.3-2.5V608.9z" class="st6"/><path id="path653" d="M278.9,603.6h1.7v1.7h0c0.8-1.3,2-2,3.5-2c2.9,0,3.7,1.6,3.7,4v7.1h-1.8v-7.3c0-1.3-0.8-2.2-2.2-2.2 c-2.2,0-3.2,1.4-3.2,3.4v6.1h-1.8V603.6z" class="st6"/><path id="path655" d="M292,601.7h-1.8v-2.2h1.8V601.7z M290.2,603.6h1.8v10.9h-1.8V603.6z" class="st6"/><path id="path657" d="M293.5,613.1l6.6-7.9h-6.1v-1.6h8.4v1.2l-6.6,8.1h6.9v1.6h-9.2V613.1z" class="st6"/><path id="path659" d="M313.8,614.5c-0.3,0.2-0.8,0.3-1.3,0.3c-0.9,0-1.5-0.5-1.5-1.7c-1,1.2-2.3,1.7-3.8,1.7c-2,0-3.6-0.9-3.6-3 c0-2.5,1.8-3,3.7-3.3c2-0.4,3.7-0.2,3.7-1.6c0-1.6-1.3-1.8-2.4-1.8c-1.5,0-2.6,0.5-2.7,2.1H304c0.1-2.7,2.2-3.6,4.6-3.6 c2,0,4.1,0.4,4.1,3v5.6c0,0.8,0,1.2,0.6,1.2c0.2,0,0.4,0,0.5-0.1V614.5z M310.9,608.9c-1.4,1-5.4,0-5.4,2.7c0,1.2,1,1.6,2.1,1.6 c2.4,0,3.3-1.4,3.3-2.5V608.9z" class="st6"/><path id="path661" d="M317.7,603.6h2.2v1.6h-2.2v6.7c0,0.8,0.2,1,1.3,1h0.8v1.6h-1.4c-1.8,0-2.6-0.4-2.6-2.4v-6.9h-1.8v-1.6h1.8 v-3.3h1.8V603.6z" class="st6"/><path id="path663" d="M323.4,601.7h-1.8v-2.2h1.8V601.7z M321.6,603.6h1.8v10.9h-1.8V603.6z" class="st6"/><path id="path665" d="M330.5,603.4c3.4,0,5.3,2.5,5.3,5.7c0,3.2-1.8,5.7-5.3,5.7s-5.3-2.5-5.3-5.7 C325.2,605.9,327.1,603.4,330.5,603.4z M330.5,613.2c1.9,0,3.4-1.5,3.4-4.1s-1.5-4.1-3.4-4.1s-3.4,1.5-3.4,4.1 S328.6,613.2,330.5,613.2z" class="st6"/><path id="path667" d="M337.5,603.6h1.7v1.7h0c0.8-1.3,2-2,3.5-2c2.9,0,3.7,1.6,3.7,4v7.1h-1.8v-7.3c0-1.3-0.8-2.2-2.2-2.2 c-2.2,0-3.2,1.4-3.2,3.4v6.1h-1.8V603.6z" class="st6"/></g></g></switch></svg>