<svg xmlns="http://www.w3.org/2000/svg" xmlns:svg="http://www.w3.org/2000/svg" xmlns:xlink="http://www.w3.org/1999/xlink" id="Layer_1" width="100%" height="100%" x="0" y="0" enable-background="new 0 0 800 523" version="1.1" viewBox="0 0 800 523" xml:space="preserve"><metadata id="metadata615"/><style id="style3" type="text/css">.st0{fill:#79c6ff}.st1{fill:#56a8fd}.st2{fill:#5294e9}.st3{fill:#3a6eb4}.st4{fill:#0e212f}.st5{fill:#fff}.st6{fill:#6d7b86}.st7{fill:#dfe3e6}.st8{fill:#8c9ba6}.st9{fill:#5a6873}.st10{fill:#2c3f4a}</style><switch id="switch5"><g id="g9"><title id="title11">documentation-org-project-V01-ML</title><polygon id="polygon13" points="103 144 66 164 66 204 103 224 140 204 140 164" class="st0"/><polygon id="polygon15" points="103 224 66 244 66 284 103 304 140 284 140 244" class="st1"/><polygon id="polygon17" points="103 304 66 324 66 364 103 384 140 364 140 324" class="st2"/><polygon id="polygon19" points="103 384 66 404 66 444 103 464 140 444 140 404" class="st3"/><path id="path21" d="M110,264c0-3.6-2.6-6.7-6-7.3v-64.2h-0.7c3.8-0.4,6.7-3.6,6.7-7.5c0-4.1-3.4-7.5-7.5-7.5S95,180.9,95,185 c0,3.9,2.9,7,6.7,7.5H101v64.2c-3.4,0.7-6,3.7-6,7.3s2.6,6.7,6,7.3v64.3c-3.4,0.7-6,3.7-6,7.3s2.6,6.7,6,7.3v65.3 c-3.4,0.7-6,3.7-6,7.3c0,4.1,3.4,7.5,7.5,7.5s7.5-3.4,7.5-7.5c0-3.6-2.6-6.7-6-7.3v-65.3c3.4-0.7,6-3.7,6-7.3s-2.6-6.7-6-7.3 v-64.3C107.4,270.7,110,267.6,110,264z" class="st4"/><circle id="circle23" cx="102.8" cy="185" r="4.5" class="st5"/><circle id="circle25" cx="102.8" cy="264" r="4.5" class="st5"/><circle id="circle27" cx="102.8" cy="343" r="4.5" class="st5"/><circle id="circle29" cx="102.8" cy="423" r="4.5" class="st5"/><g id="g31"><path id="path33" d="M66.9,104.7h6.8c3.8,0,5.2,2.4,5.2,4.8s-1.4,4.8-5.2,4.8h-3.5v5.4h-3.3V104.7z M70.2,111.7h2.6 c1.5,0,2.9-0.3,2.9-2.2s-1.4-2.2-2.9-2.2h-2.6V111.7z" class="st6"/><path id="path35" d="M80,108.8h2.8v2h0c0.6-1.4,2-2.3,3.5-2.3c0.2,0,0.4,0,0.7,0.1v2.8c-0.3-0.1-0.7-0.1-1.1-0.1 c-2.2,0-2.9,1.6-2.9,3.5v4.9h-3V108.8z" class="st6"/><path id="path37" d="M92.9,108.5c3.4,0,5.6,2.3,5.6,5.7c0,3.4-2.2,5.7-5.6,5.7c-3.4,0-5.6-2.3-5.6-5.7 C87.3,110.8,89.5,108.5,92.9,108.5z M92.9,117.7c2,0,2.6-1.7,2.6-3.5s-0.6-3.5-2.6-3.5c-2,0-2.6,1.7-2.6,3.5 S90.8,117.7,92.9,117.7z" class="st6"/><path id="path39" d="M98.5,120.9c0.2,0.1,0.4,0.1,0.7,0.1c0.6,0,1.2-0.1,1.2-1v-11.3h3v11.4c0,2.2-0.8,3.3-3.8,3.3 c-0.3,0-0.7,0-1-0.1V120.9z M103.3,107.1h-3v-2.5h3V107.1z" class="st6"/><path id="path41" d="M107.8,115c0.1,1.9,1,2.8,2.7,2.8c1.2,0,2.2-0.7,2.4-1.4h2.6c-0.8,2.6-2.6,3.7-5.1,3.7 c-3.4,0-5.5-2.4-5.5-5.7c0-3.3,2.2-5.7,5.5-5.7c3.7,0,5.5,3.1,5.3,6.4H107.8z M112.7,113.1c-0.3-1.5-0.9-2.3-2.4-2.3 c-1.9,0-2.4,1.5-2.5,2.3H112.7z" class="st6"/><path id="path43" d="M124.6,112.6c-0.2-1.2-0.9-1.9-2.2-1.9c-1.9,0-2.5,1.9-2.5,3.5c0,1.6,0.6,3.4,2.5,3.4c1.4,0,2.2-0.9,2.4-2.2 h2.9c-0.4,2.9-2.4,4.5-5.2,4.5c-3.3,0-5.5-2.3-5.5-5.6c0-3.4,2-5.9,5.5-5.9c2.6,0,4.9,1.3,5.1,4.1H124.6z" class="st6"/><path id="path45" d="M133,108.8h2.2v2H133v5.4c0,1,0.3,1.3,1.3,1.3c0.3,0,0.7,0,0.9-0.1v2.3c-0.5,0.1-1.2,0.1-1.7,0.1 c-1.8,0-3.4-0.4-3.4-2.6v-6.4h-1.8v-2h1.8v-3.3h3V108.8z" class="st6"/><path id="path47" d="M145.9,111.8l-4.8-7.1h3.8l2.9,4.8l3-4.8h3.6l-4.8,7.2l5.2,7.8H151l-3.3-5.2l-3.3,5.2h-3.7L145.9,111.8z" class="st6"/></g><g id="g49"><path id="path51" d="M167.4,174.5h6.6c3,0,4.6,1.6,4.6,4.4s-1.6,4.5-4.6,4.4h-4.6v6.1h-2V174.5z M169.4,181.7h3.9 c2.3,0,3.3-1,3.3-2.8s-1-2.8-3.3-2.8h-3.9V181.7z" class="st6"/><path id="path53" d="M180.4,178.6h1.7v2.3h0c0.9-1.8,2.1-2.6,4-2.5v1.9c-2.9,0-3.9,1.6-3.9,4.4v4.8h-1.8V178.6z" class="st6"/><path id="path55" d="M191.7,178.4c3.4,0,5.3,2.5,5.3,5.7c0,3.2-1.8,5.7-5.3,5.7s-5.3-2.5-5.3-5.7 C186.4,180.9,188.2,178.4,191.7,178.4z M191.7,188.2c1.9,0,3.4-1.5,3.4-4.1s-1.5-4.1-3.4-4.1s-3.4,1.5-3.4,4.1 S189.8,188.2,191.7,188.2z" class="st6"/><path id="path57" d="M208.6,189.5h-1.8V188h0c-0.6,1.2-2,1.7-3.5,1.7c-3.3,0-5-2.6-5-5.7s1.6-5.6,5-5.6c1.1,0,2.7,0.4,3.5,1.7h0 v-5.6h1.8V189.5z M203.6,188.2c2.4,0,3.3-2.1,3.3-4.1c0-2.1-1-4.1-3.4-4.1c-2.4,0-3.3,2.1-3.3,4.2 C200.2,186.2,201.3,188.2,203.6,188.2z" class="st6"/><path id="path59" d="M209.7,191.1h10.5v1h-10.5V191.1z" class="st6"/><path id="path61" d="M225.9,174.5h2.2l5.9,15h-2.2l-1.6-4.5h-6.3l-1.7,4.5H220L225.9,174.5z M224.4,183.3h5.1l-2.5-7h0 L224.4,183.3z" class="st6"/><path id="path63" d="M235.4,178.6h1.8v1.5h0c0.6-1.2,2-1.7,3.5-1.7c3.3,0,5,2.6,5,5.7c0,3.1-1.6,5.6-5,5.6 c-1.1,0-2.7-0.4-3.5-1.7h0v5.6h-1.8V178.6z M240.4,180c-2.4,0-3.3,2.1-3.3,4.1c0,2.1,1,4.1,3.4,4.1c2.4,0,3.3-2.1,3.3-4.2 C243.8,181.9,242.7,180,240.4,180z" class="st6"/><path id="path65" d="M247.4,178.6h1.8v1.5h0c0.6-1.2,2-1.7,3.5-1.7c3.3,0,5,2.6,5,5.7c0,3.1-1.6,5.6-5,5.6 c-1.1,0-2.7-0.4-3.5-1.7h0v5.6h-1.8V178.6z M252.5,180c-2.4,0-3.3,2.1-3.3,4.1c0,2.1,1,4.1,3.4,4.1c2.4,0,3.3-2.1,3.3-4.2 C255.8,181.9,254.8,180,252.5,180z" class="st6"/><path id="path67" d="M263.4,181.8l-4.9-7.3h2.4l3.7,5.9l3.9-5.9h2.2l-5,7.3l5.3,7.7h-2.4l-4-6.2l-4.2,6.2h-2.2L263.4,181.8z" class="st6"/><path id="path69" d="M270.9,191.1h10.5v1h-10.5V191.1z" class="st6"/><path id="path71" d="M288.8,189.5h-2.3l-5.3-15h2.2l4.3,13h0l4.3-13h2.1L288.8,189.5z" class="st6"/><path id="path73" d="M300.8,189.5H299v-10.7h-3.9v-1.4c2,0,3.9-0.5,4.3-2.8h1.4V189.5z" class="st6"/></g><g id="g75"><path id="path77" d="M176.1,257.9c-0.2-2.2-1.6-3.1-3.7-3.1c-1.7,0-3.4,0.6-3.4,2.6c0,3.7,9.6,1.1,9.6,7c0,3.2-3.1,4.5-5.9,4.5 c-3.4,0-6.2-1.7-6.2-5.3h1.9c0,2.5,2.1,3.6,4.4,3.6c1.8,0,3.8-0.6,3.8-2.7c0-4.1-9.6-1.4-9.6-6.9c0-3,2.7-4.4,5.4-4.4 c3.1,0,5.4,1.4,5.5,4.7H176.1z" class="st6"/><path id="path79" d="M182.9,257.6h2.2v1.6h-2.2v6.7c0,0.8,0.2,1,1.3,1h0.8v1.6h-1.4c-1.8,0-2.6-0.4-2.6-2.4v-6.9h-1.8v-1.6h1.8 v-3.3h1.8V257.6z" class="st6"/><path id="path81" d="M196.2,268.5c-0.3,0.2-0.8,0.3-1.3,0.3c-0.9,0-1.5-0.5-1.5-1.7c-1,1.2-2.3,1.7-3.8,1.7c-2,0-3.6-0.9-3.6-3 c0-2.5,1.8-3,3.7-3.3c2-0.4,3.7-0.2,3.7-1.6c0-1.6-1.3-1.8-2.4-1.8c-1.5,0-2.6,0.5-2.7,2.1h-1.8c0.1-2.7,2.2-3.6,4.6-3.6 c2,0,4.1,0.4,4.1,3v5.6c0,0.8,0,1.2,0.6,1.2c0.2,0,0.4,0,0.5-0.1V268.5z M193.3,262.9c-1.4,1-5.4,0-5.4,2.7c0,1.2,1,1.6,2.1,1.6 c2.4,0,3.3-1.4,3.3-2.5V262.9z" class="st6"/><path id="path83" d="M207.2,267.6c0,3.5-1.6,5.3-5,5.3c-2,0-4.4-0.8-4.5-3.2h1.8c0.1,1.3,1.7,1.8,2.8,1.8c2.3,0,3.3-1.7,3.3-4.1 v-0.7h0c-0.6,1.3-2,2-3.4,2c-3.2,0-4.9-2.5-4.9-5.5c0-2.6,1.2-5.7,5-5.7c1.4,0,2.6,0.6,3.2,1.8h0v-1.6h1.7V267.6z M205.4,262.9 c0-1.9-0.8-3.9-3.1-3.9c-2.3,0-3.2,1.9-3.2,3.9c0,2,0.7,4.1,3.1,4.1S205.4,264.9,205.4,262.9z" class="st6"/><path id="path85" d="M218.8,265.1c-0.5,2.4-2.2,3.7-4.6,3.7c-3.5,0-5.1-2.4-5.2-5.7c0-3.3,2.1-5.6,5.1-5.6c3.8,0,5,3.6,4.9,6.2 h-8.1c-0.1,1.9,1,3.6,3.4,3.6c1.5,0,2.5-0.7,2.8-2.1H218.8z M217,262c-0.1-1.7-1.3-3.1-3.1-3.1c-1.8,0-3,1.4-3.1,3.1H217z" class="st6"/><path id="path87" d="M219.5,270.1H230v1h-10.5V270.1z" class="st6"/><path id="path89" d="M235.7,253.5h2.2l5.9,15h-2.2l-1.6-4.5h-6.3l-1.7,4.5h-2.1L235.7,253.5z M234.2,262.3h5.1l-2.5-7h0 L234.2,262.3z" class="st6"/><path id="path91" d="M245.2,257.6h1.8v1.5h0c0.6-1.2,2-1.7,3.5-1.7c3.3,0,5,2.6,5,5.7c0,3.1-1.6,5.6-5,5.6 c-1.1,0-2.7-0.4-3.5-1.7h0v5.6h-1.8V257.6z M250.2,259c-2.4,0-3.3,2.1-3.3,4.1c0,2.1,1,4.1,3.4,4.1c2.4,0,3.3-2.1,3.3-4.2 C253.6,260.9,252.5,259,250.2,259z" class="st6"/><path id="path93" d="M257.2,257.6h1.8v1.5h0c0.6-1.2,2-1.7,3.5-1.7c3.3,0,5,2.6,5,5.7c0,3.1-1.6,5.6-5,5.6 c-1.1,0-2.7-0.4-3.5-1.7h0v5.6h-1.8V257.6z M262.3,259c-2.4,0-3.3,2.1-3.3,4.1c0,2.1,1,4.1,3.4,4.1c2.4,0,3.3-2.1,3.3-4.2 C265.6,260.9,264.6,259,262.3,259z" class="st6"/><path id="path95" d="M273.2,260.8l-4.9-7.3h2.4l3.7,5.9l3.9-5.9h2.2l-5,7.3l5.3,7.7h-2.4l-4-6.2l-4.2,6.2H268L273.2,260.8z" class="st6"/><path id="path97" d="M280.7,270.1h10.5v1h-10.5V270.1z" class="st6"/><path id="path99" d="M298.6,268.5h-2.3l-5.3-15h2.2l4.3,13h0l4.3-13h2.1L298.6,268.5z" class="st6"/><path id="path101" d="M310.6,268.5h-1.8v-10.7h-3.9v-1.4c2,0,3.9-0.5,4.3-2.8h1.4V268.5z" class="st6"/></g><g id="g103"><path id="path105" d="M171.5,335.2h-5v-1.7h12v1.7h-5v13.3h-2V335.2z" class="st6"/><path id="path107" d="M186.7,345.1c-0.5,2.4-2.2,3.7-4.6,3.7c-3.5,0-5.1-2.4-5.2-5.7c0-3.3,2.1-5.6,5.1-5.6c3.8,0,5,3.6,4.9,6.2 h-8.1c-0.1,1.9,1,3.6,3.4,3.6c1.5,0,2.5-0.7,2.8-2.1H186.7z M184.9,342c-0.1-1.7-1.3-3.1-3.1-3.1c-1.8,0-3,1.4-3.1,3.1H184.9z" class="st6"/><path id="path109" d="M189.8,345.1c0.1,1.6,1.5,2.1,2.9,2.1c1.1,0,2.6-0.3,2.6-1.6c0-2.8-7.1-0.9-7.1-5.1c0-2.2,2.1-3.1,4.1-3.1 c2.4,0,4.3,0.8,4.5,3.4H195c-0.1-1.4-1.4-1.8-2.5-1.8c-1.1,0-2.3,0.3-2.3,1.4c0,1.3,1.9,1.5,3.5,1.9c1.8,0.4,3.5,1,3.5,3.1 c0,2.6-2.4,3.4-4.6,3.4c-2.4,0-4.5-1-4.6-3.7H189.8z" class="st6"/><path id="path111" d="M201.4,337.6h2.2v1.6h-2.2v6.7c0,0.8,0.2,1,1.3,1h0.8v1.6h-1.4c-1.8,0-2.6-0.4-2.6-2.4v-6.9h-1.8v-1.6h1.8 v-3.3h1.8V337.6z" class="st6"/><path id="path113" d="M204.1,350.1h10.5v1h-10.5V350.1z" class="st6"/><path id="path115" d="M220.3,333.5h2.2l5.9,15h-2.2l-1.6-4.5h-6.3l-1.7,4.5h-2.1L220.3,333.5z M218.8,342.3h5.1l-2.5-7h0 L218.8,342.3z" class="st6"/><path id="path117" d="M229.8,337.6h1.8v1.5h0c0.6-1.2,2-1.7,3.5-1.7c3.3,0,5,2.6,5,5.7c0,3.1-1.6,5.6-5,5.6 c-1.1,0-2.7-0.4-3.5-1.7h0v5.6h-1.8V337.6z M234.8,339c-2.4,0-3.3,2.1-3.3,4.1c0,2.1,1,4.1,3.4,4.1c2.4,0,3.3-2.1,3.3-4.2 C238.2,340.9,237.1,339,234.8,339z" class="st6"/><path id="path119" d="M241.8,337.6h1.8v1.5h0c0.6-1.2,2-1.7,3.5-1.7c3.3,0,5,2.6,5,5.7c0,3.1-1.6,5.6-5,5.6 c-1.1,0-2.7-0.4-3.5-1.7h0v5.6h-1.8V337.6z M246.9,339c-2.4,0-3.3,2.1-3.3,4.1c0,2.1,1,4.1,3.4,4.1c2.4,0,3.3-2.1,3.3-4.2 C250.2,340.9,249.2,339,246.9,339z" class="st6"/><path id="path121" d="M257.8,340.8l-4.9-7.3h2.4l3.7,5.9l3.9-5.9h2.2l-5,7.3l5.3,7.7H263l-4-6.2l-4.2,6.2h-2.2L257.8,340.8z" class="st6"/><path id="path123" d="M265.2,350.1h10.5v1h-10.5V350.1z" class="st6"/><path id="path125" d="M283.2,348.5H281l-5.3-15h2.2l4.3,13h0l4.3-13h2.1L283.2,348.5z" class="st6"/><path id="path127" d="M295.1,348.5h-1.8v-10.7h-3.9v-1.4c2,0,3.9-0.5,4.3-2.8h1.4V348.5z" class="st6"/></g><g id="g129"><path id="path131" d="M167.4,412.5h5.1c4.6,0,7.2,2.3,7.2,7.1c0,5-2.2,7.9-7.2,7.9h-5.1V412.5z M169.4,425.8h3.3 c1.4,0,5-0.4,5-5.9c0-3.6-1.3-5.7-5-5.7h-3.4V425.8z" class="st6"/><path id="path133" d="M191,424.1c-0.5,2.4-2.2,3.7-4.6,3.7c-3.5,0-5.1-2.4-5.2-5.7c0-3.3,2.1-5.6,5.1-5.6c3.8,0,5,3.6,4.9,6.2H183 c-0.1,1.9,1,3.6,3.4,3.6c1.5,0,2.5-0.7,2.8-2.1H191z M189.3,421c-0.1-1.7-1.3-3.1-3.1-3.1c-1.8,0-3,1.4-3.1,3.1H189.3z" class="st6"/><path id="path135" d="M197.4,427.5h-1.9l-4-10.9h2l3,9h0l3-9h1.9L197.4,427.5z" class="st6"/><path id="path137" d="M201.4,429.1h10.5v1h-10.5V429.1z" class="st6"/><path id="path139" d="M217.6,412.5h2.2l5.9,15h-2.2l-1.6-4.5h-6.3l-1.7,4.5h-2.1L217.6,412.5z M216.1,421.3h5.1l-2.5-7h0 L216.1,421.3z" class="st6"/><path id="path141" d="M227.1,416.6h1.8v1.5h0c0.6-1.2,2-1.7,3.5-1.7c3.3,0,5,2.6,5,5.7c0,3.1-1.6,5.6-5,5.6 c-1.1,0-2.7-0.4-3.5-1.7h0v5.6h-1.8V416.6z M232.1,418c-2.4,0-3.3,2.1-3.3,4.1c0,2.1,1,4.1,3.4,4.1c2.4,0,3.3-2.1,3.3-4.2 C235.5,419.9,234.5,418,232.1,418z" class="st6"/><path id="path143" d="M239.2,416.6h1.8v1.5h0c0.6-1.2,2-1.7,3.5-1.7c3.3,0,5,2.6,5,5.7c0,3.1-1.6,5.6-5,5.6 c-1.1,0-2.7-0.4-3.5-1.7h0v5.6h-1.8V416.6z M244.2,418c-2.4,0-3.3,2.1-3.3,4.1c0,2.1,1,4.1,3.4,4.1c2.4,0,3.3-2.1,3.3-4.2 C247.6,419.9,246.5,418,244.2,418z" class="st6"/><path id="path145" d="M255.2,419.8l-4.9-7.3h2.4l3.7,5.9l3.9-5.9h2.2l-5,7.3l5.3,7.7h-2.4l-4-6.2l-4.2,6.2H250L255.2,419.8z" class="st6"/><path id="path147" d="M262.6,429.1h10.5v1h-10.5V429.1z" class="st6"/><path id="path149" d="M280.6,427.5h-2.3l-5.3-15h2.2l4.3,13h0l4.3-13h2.1L280.6,427.5z" class="st6"/><path id="path151" d="M292.5,427.5h-1.8v-10.7h-3.9v-1.4c2,0,3.9-0.5,4.3-2.8h1.4V427.5z" class="st6"/></g><g id="g153"><path id="path155" d="M442.9,104.7h6.8c3.8,0,5.2,2.4,5.2,4.8s-1.4,4.8-5.2,4.8h-3.5v5.4h-3.3V104.7z M446.2,111.7h2.6 c1.5,0,2.9-0.3,2.9-2.2s-1.4-2.2-2.9-2.2h-2.6V111.7z" class="st6"/><path id="path157" d="M456,108.8h2.8v2h0c0.6-1.4,2-2.3,3.5-2.3c0.2,0,0.4,0,0.7,0.1v2.8c-0.3-0.1-0.7-0.1-1.1-0.1 c-2.2,0-2.9,1.6-2.9,3.5v4.9h-3V108.8z" class="st6"/><path id="path159" d="M468.9,108.5c3.4,0,5.6,2.3,5.6,5.7c0,3.4-2.2,5.7-5.6,5.7c-3.4,0-5.6-2.3-5.6-5.7 C463.3,110.8,465.5,108.5,468.9,108.5z M468.9,117.7c2,0,2.6-1.7,2.6-3.5s-0.6-3.5-2.6-3.5c-2,0-2.6,1.7-2.6,3.5 S466.8,117.7,468.9,117.7z" class="st6"/><path id="path161" d="M474.5,120.9c0.2,0.1,0.4,0.1,0.7,0.1c0.6,0,1.2-0.1,1.2-1v-11.3h3v11.4c0,2.2-0.8,3.3-3.8,3.3 c-0.3,0-0.7,0-1-0.1V120.9z M479.3,107.1h-3v-2.5h3V107.1z" class="st6"/><path id="path163" d="M483.8,115c0.1,1.9,1,2.8,2.7,2.8c1.2,0,2.2-0.7,2.4-1.4h2.6c-0.8,2.6-2.6,3.7-5.1,3.7 c-3.4,0-5.5-2.4-5.5-5.7c0-3.3,2.2-5.7,5.5-5.7c3.7,0,5.5,3.1,5.3,6.4H483.8z M488.7,113.1c-0.3-1.5-0.9-2.3-2.4-2.3 c-1.9,0-2.4,1.5-2.5,2.3H488.7z" class="st6"/><path id="path165" d="M500.6,112.6c-0.2-1.2-0.9-1.9-2.2-1.9c-1.9,0-2.5,1.9-2.5,3.5c0,1.6,0.6,3.4,2.5,3.4c1.4,0,2.2-0.9,2.4-2.2 h2.9c-0.4,2.9-2.4,4.5-5.2,4.5c-3.3,0-5.5-2.3-5.5-5.6c0-3.4,2-5.9,5.5-5.9c2.6,0,4.9,1.3,5.1,4.1H500.6z" class="st6"/><path id="path167" d="M509,108.8h2.2v2H509v5.4c0,1,0.3,1.3,1.3,1.3c0.3,0,0.7,0,0.9-0.1v2.3c-0.5,0.1-1.2,0.1-1.7,0.1 c-1.8,0-3.4-0.4-3.4-2.6v-6.4h-1.8v-2h1.8v-3.3h3V108.8z" class="st6"/><path id="path169" d="M521.9,113.8l-5.5-9.2h3.7l3.5,5.9l3.5-5.9h3.7l-5.6,9.2v5.8h-3.3V113.8z" class="st6"/></g><g id="g171"><path id="path173" d="M543.4,174.5h6.6c3,0,4.6,1.6,4.6,4.4s-1.6,4.5-4.6,4.4h-4.6v6.1h-2V174.5z M545.4,181.7h3.9 c2.3,0,3.3-1,3.3-2.8s-1-2.8-3.3-2.8h-3.9V181.7z" class="st6"/><path id="path175" d="M556.4,178.6h1.7v2.3h0c0.9-1.8,2.1-2.6,4-2.5v1.9c-2.9,0-3.9,1.6-3.9,4.4v4.8h-1.8V178.6z" class="st6"/><path id="path177" d="M567.7,178.4c3.4,0,5.3,2.5,5.3,5.7c0,3.2-1.8,5.7-5.3,5.7s-5.3-2.5-5.3-5.7 C562.4,180.9,564.2,178.4,567.7,178.4z M567.7,188.2c1.9,0,3.4-1.5,3.4-4.1s-1.5-4.1-3.4-4.1c-1.9,0-3.4,1.5-3.4,4.1 S565.8,188.2,567.7,188.2z" class="st6"/><path id="path179" d="M584.6,189.5h-1.8V188h0c-0.6,1.2-2,1.7-3.5,1.7c-3.3,0-5-2.6-5-5.7s1.6-5.6,5-5.6c1.1,0,2.7,0.4,3.5,1.7h0 v-5.6h1.8V189.5z M579.6,188.2c2.4,0,3.3-2.1,3.3-4.1c0-2.1-1-4.1-3.4-4.1c-2.4,0-3.3,2.1-3.3,4.2 C576.2,186.2,577.3,188.2,579.6,188.2z" class="st6"/><path id="path181" d="M585.7,191.1h10.5v1h-10.5V191.1z" class="st6"/><path id="path183" d="M601.9,174.5h2.2l5.9,15h-2.2l-1.6-4.5h-6.3l-1.7,4.5H596L601.9,174.5z M600.4,183.3h5.1l-2.5-7h0 L600.4,183.3z" class="st6"/><path id="path185" d="M611.4,178.6h1.8v1.5h0c0.6-1.2,2-1.7,3.5-1.7c3.3,0,5,2.6,5,5.7c0,3.1-1.6,5.6-5,5.6 c-1.1,0-2.7-0.4-3.5-1.7h0v5.6h-1.8V178.6z M616.4,180c-2.4,0-3.3,2.1-3.3,4.1c0,2.1,1,4.1,3.4,4.1c2.4,0,3.3-2.1,3.3-4.2 C619.8,181.9,618.7,180,616.4,180z" class="st6"/><path id="path187" d="M623.4,178.6h1.8v1.5h0c0.6-1.2,2-1.7,3.5-1.7c3.3,0,5,2.6,5,5.7c0,3.1-1.6,5.6-5,5.6 c-1.1,0-2.7-0.4-3.5-1.7h0v5.6h-1.8V178.6z M628.5,180c-2.4,0-3.3,2.1-3.3,4.1c0,2.1,1,4.1,3.4,4.1c2.4,0,3.3-2.1,3.3-4.2 C631.8,181.9,630.8,180,628.5,180z" class="st6"/><path id="path189" d="M642.1,183.4v6.1h-2v-6.1l-5.8-8.9h2.4l4.5,7.1l4.4-7.1h2.3L642.1,183.4z" class="st6"/><path id="path191" d="M647.6,191.1h10.5v1h-10.5V191.1z" class="st6"/><path id="path193" d="M665.6,189.5h-2.3l-5.3-15h2.2l4.3,13h0l4.3-13h2.1L665.6,189.5z" class="st6"/><path id="path195" d="M677.5,189.5h-1.8v-10.7h-3.9v-1.4c2,0,3.9-0.5,4.3-2.8h1.4V189.5z" class="st6"/></g><g id="g197"><path id="path199" d="M552.1,257.9c-0.2-2.2-1.6-3.1-3.7-3.1c-1.7,0-3.4,0.6-3.4,2.6c0,3.7,9.6,1.1,9.6,7c0,3.2-3.1,4.5-5.9,4.5 c-3.4,0-6.2-1.7-6.2-5.3h1.9c0,2.5,2.1,3.6,4.4,3.6c1.8,0,3.8-0.6,3.8-2.7c0-4.1-9.6-1.4-9.6-6.9c0-3,2.7-4.4,5.4-4.4 c3.1,0,5.4,1.4,5.5,4.7H552.1z" class="st6"/><path id="path201" d="M558.9,257.6h2.2v1.6h-2.2v6.7c0,0.8,0.2,1,1.3,1h0.8v1.6h-1.4c-1.8,0-2.6-0.4-2.6-2.4v-6.9h-1.8v-1.6h1.8 v-3.3h1.8V257.6z" class="st6"/><path id="path203" d="M572.2,268.5c-0.3,0.2-0.8,0.3-1.3,0.3c-0.9,0-1.5-0.5-1.5-1.7c-1,1.2-2.3,1.7-3.8,1.7c-2,0-3.6-0.9-3.6-3 c0-2.5,1.8-3,3.7-3.3c2-0.4,3.7-0.2,3.7-1.6c0-1.6-1.3-1.8-2.4-1.8c-1.5,0-2.6,0.5-2.7,2.1h-1.8c0.1-2.7,2.2-3.6,4.6-3.6 c2,0,4.1,0.4,4.1,3v5.6c0,0.8,0,1.2,0.6,1.2c0.2,0,0.4,0,0.5-0.1V268.5z M569.3,262.9c-1.4,1-5.4,0-5.4,2.7c0,1.2,1,1.6,2.1,1.6 c2.4,0,3.3-1.4,3.3-2.5V262.9z" class="st6"/><path id="path205" d="M583.2,267.6c0,3.5-1.6,5.3-5,5.3c-2,0-4.4-0.8-4.5-3.2h1.8c0.1,1.3,1.7,1.8,2.8,1.8c2.3,0,3.3-1.7,3.3-4.1 v-0.7h0c-0.6,1.3-2,2-3.4,2c-3.2,0-4.9-2.5-4.9-5.5c0-2.6,1.2-5.7,5-5.7c1.4,0,2.6,0.6,3.2,1.8h0v-1.6h1.7V267.6z M581.4,262.9 c0-1.9-0.8-3.9-3.1-3.9c-2.3,0-3.2,1.9-3.2,3.9c0,2,0.7,4.1,3.1,4.1S581.4,264.9,581.4,262.9z" class="st6"/><path id="path207" d="M594.8,265.1c-0.5,2.4-2.2,3.7-4.6,3.7c-3.5,0-5.1-2.4-5.2-5.7c0-3.3,2.1-5.6,5.1-5.6c3.8,0,5,3.6,4.9,6.2 h-8.1c-0.1,1.9,1,3.6,3.4,3.6c1.5,0,2.5-0.7,2.8-2.1H594.8z M593,262c-0.1-1.7-1.3-3.1-3.1-3.1c-1.8,0-3,1.4-3.1,3.1H593z" class="st6"/><path id="path209" d="M595.5,270.1H606v1h-10.5V270.1z" class="st6"/><path id="path211" d="M611.7,253.5h2.2l5.9,15h-2.2l-1.6-4.5h-6.3l-1.7,4.5h-2.1L611.7,253.5z M610.2,262.3h5.1l-2.5-7h0 L610.2,262.3z" class="st6"/><path id="path213" d="M621.2,257.6h1.8v1.5h0c0.6-1.2,2-1.7,3.5-1.7c3.3,0,5,2.6,5,5.7c0,3.1-1.6,5.6-5,5.6 c-1.1,0-2.7-0.4-3.5-1.7h0v5.6h-1.8V257.6z M626.2,259c-2.4,0-3.3,2.1-3.3,4.1c0,2.1,1,4.1,3.4,4.1c2.4,0,3.3-2.1,3.3-4.2 C629.6,260.9,628.5,259,626.2,259z" class="st6"/><path id="path215" d="M633.2,257.6h1.8v1.5h0c0.6-1.2,2-1.7,3.5-1.7c3.3,0,5,2.6,5,5.7c0,3.1-1.6,5.6-5,5.6 c-1.1,0-2.7-0.4-3.5-1.7h0v5.6h-1.8V257.6z M638.3,259c-2.4,0-3.3,2.1-3.3,4.1c0,2.1,1,4.1,3.4,4.1c2.4,0,3.3-2.1,3.3-4.2 C641.6,260.9,640.6,259,638.3,259z" class="st6"/><path id="path217" d="M651.9,262.4v6.1h-2v-6.1l-5.8-8.9h2.4l4.5,7.1l4.4-7.1h2.3L651.9,262.4z" class="st6"/><path id="path219" d="M657.4,270.1h10.5v1h-10.5V270.1z" class="st6"/><path id="path221" d="M675.4,268.5h-2.3l-5.3-15h2.2l4.3,13h0l4.3-13h2.1L675.4,268.5z" class="st6"/><path id="path223" d="M687.3,268.5h-1.8v-10.7h-3.9v-1.4c2,0,3.9-0.5,4.3-2.8h1.4V268.5z" class="st6"/></g><g id="g225"><path id="path227" d="M547.5,335.2h-5v-1.7h12v1.7h-5v13.3h-2V335.2z" class="st6"/><path id="path229" d="M562.7,345.1c-0.5,2.4-2.2,3.7-4.6,3.7c-3.5,0-5.1-2.4-5.2-5.7c0-3.3,2.1-5.6,5.1-5.6c3.8,0,5,3.6,4.9,6.2 h-8.1c-0.1,1.9,1,3.6,3.4,3.6c1.5,0,2.5-0.7,2.8-2.1H562.7z M560.9,342c-0.1-1.7-1.3-3.1-3.1-3.1c-1.8,0-3,1.4-3.1,3.1H560.9z" class="st6"/><path id="path231" d="M565.8,345.1c0.1,1.6,1.5,2.1,2.9,2.1c1.1,0,2.6-0.3,2.6-1.6c0-2.8-7.1-0.9-7.1-5.1c0-2.2,2.1-3.1,4.1-3.1 c2.4,0,4.3,0.8,4.5,3.4H571c-0.1-1.4-1.4-1.8-2.5-1.8c-1.1,0-2.3,0.3-2.3,1.4c0,1.3,1.9,1.5,3.5,1.9c1.8,0.4,3.5,1,3.5,3.1 c0,2.6-2.4,3.4-4.6,3.4c-2.4,0-4.5-1-4.6-3.7H565.8z" class="st6"/><path id="path233" d="M577.4,337.6h2.2v1.6h-2.2v6.7c0,0.8,0.2,1,1.3,1h0.8v1.6h-1.4c-1.8,0-2.6-0.4-2.6-2.4v-6.9h-1.8v-1.6h1.8 v-3.3h1.8V337.6z" class="st6"/><path id="path235" d="M580.1,350.1h10.5v1h-10.5V350.1z" class="st6"/><path id="path237" d="M596.3,333.5h2.2l5.9,15h-2.2l-1.6-4.5h-6.3l-1.7,4.5h-2.1L596.3,333.5z M594.8,342.3h5.1l-2.5-7h0 L594.8,342.3z" class="st6"/><path id="path239" d="M605.8,337.6h1.8v1.5h0c0.6-1.2,2-1.7,3.5-1.7c3.3,0,5,2.6,5,5.7c0,3.1-1.6,5.6-5,5.6 c-1.1,0-2.7-0.4-3.5-1.7h0v5.6h-1.8V337.6z M610.8,339c-2.4,0-3.3,2.1-3.3,4.1c0,2.1,1,4.1,3.4,4.1c2.4,0,3.3-2.1,3.3-4.2 C614.2,340.9,613.1,339,610.8,339z" class="st6"/><path id="path241" d="M617.8,337.6h1.8v1.5h0c0.6-1.2,2-1.7,3.5-1.7c3.3,0,5,2.6,5,5.7c0,3.1-1.6,5.6-5,5.6 c-1.1,0-2.7-0.4-3.5-1.7h0v5.6h-1.8V337.6z M622.9,339c-2.4,0-3.3,2.1-3.3,4.1c0,2.1,1,4.1,3.4,4.1c2.4,0,3.3-2.1,3.3-4.2 C626.2,340.9,625.2,339,622.9,339z" class="st6"/><path id="path243" d="M636.5,342.4v6.1h-2v-6.1l-5.8-8.9h2.4l4.5,7.1l4.4-7.1h2.3L636.5,342.4z" class="st6"/><path id="path245" d="M642,350.1h10.5v1H642V350.1z" class="st6"/><path id="path247" d="M660,348.5h-2.3l-5.3-15h2.2l4.3,13h0l4.3-13h2.1L660,348.5z" class="st6"/><path id="path249" d="M671.9,348.5h-1.8v-10.7h-3.9v-1.4c2,0,3.9-0.5,4.3-2.8h1.4V348.5z" class="st6"/></g><g id="g251"><path id="path253" d="M543.4,412.5h5.1c4.6,0,7.2,2.3,7.2,7.1c0,5-2.2,7.9-7.2,7.9h-5.1V412.5z M545.4,425.8h3.3 c1.4,0,5-0.4,5-5.9c0-3.6-1.3-5.7-5-5.7h-3.4V425.8z" class="st6"/><path id="path255" d="M567,424.1c-0.5,2.4-2.2,3.7-4.6,3.7c-3.5,0-5.1-2.4-5.2-5.7c0-3.3,2.1-5.6,5.1-5.6c3.8,0,5,3.6,4.9,6.2H559 c-0.1,1.9,1,3.6,3.4,3.6c1.5,0,2.5-0.7,2.8-2.1H567z M565.3,421c-0.1-1.7-1.3-3.1-3.1-3.1c-1.8,0-3,1.4-3.1,3.1H565.3z" class="st6"/><path id="path257" d="M573.4,427.5h-1.9l-4-10.9h2l3,9h0l3-9h1.9L573.4,427.5z" class="st6"/><path id="path259" d="M577.4,429.1h10.5v1h-10.5V429.1z" class="st6"/><path id="path261" d="M593.6,412.5h2.2l5.9,15h-2.2l-1.6-4.5h-6.3l-1.7,4.5h-2.1L593.6,412.5z M592.1,421.3h5.1l-2.5-7h0 L592.1,421.3z" class="st6"/><path id="path263" d="M603.1,416.6h1.8v1.5h0c0.6-1.2,2-1.7,3.5-1.7c3.3,0,5,2.6,5,5.7c0,3.1-1.6,5.6-5,5.6 c-1.1,0-2.7-0.4-3.5-1.7h0v5.6h-1.8V416.6z M608.1,418c-2.4,0-3.3,2.1-3.3,4.1c0,2.1,1,4.1,3.4,4.1c2.4,0,3.3-2.1,3.3-4.2 C611.5,419.9,610.5,418,608.1,418z" class="st6"/><path id="path265" d="M615.2,416.6h1.8v1.5h0c0.6-1.2,2-1.7,3.5-1.7c3.3,0,5,2.6,5,5.7c0,3.1-1.6,5.6-5,5.6 c-1.1,0-2.7-0.4-3.5-1.7h0v5.6h-1.8V416.6z M620.2,418c-2.4,0-3.3,2.1-3.3,4.1c0,2.1,1,4.1,3.4,4.1c2.4,0,3.3-2.1,3.3-4.2 C623.6,419.9,622.5,418,620.2,418z" class="st6"/><path id="path267" d="M633.8,421.4v6.1h-2v-6.1l-5.8-8.9h2.4l4.5,7.1l4.4-7.1h2.3L633.8,421.4z" class="st6"/><path id="path269" d="M639.4,429.1h10.5v1h-10.5V429.1z" class="st6"/><path id="path271" d="M657.3,427.5h-2.3l-5.3-15h2.2l4.3,13h0l4.3-13h2.1L657.3,427.5z" class="st6"/><path id="path273" d="M669.3,427.5h-1.8v-10.7h-3.9v-1.4c2,0,3.9-0.5,4.3-2.8h1.4V427.5z" class="st6"/></g><polygon id="polygon275" points="479 143 442 163 442 203 479 223 516 203 516 163" class="st7"/><polygon id="polygon277" points="479 223 442 243 442 283 479 303 516 283 516 243" class="st8"/><polygon id="polygon279" points="479 303 442 323 442 363 479 383 516 363 516 323" class="st9"/><polygon id="polygon281" points="479 383 442 403 442 443 479 463 516 443 516 403" class="st10"/><path id="path283" d="M486,263c0-3.6-2.6-6.7-6-7.3v-64.2h-0.7c3.8-0.4,6.7-3.6,6.7-7.5c0-4.1-3.4-7.5-7.5-7.5s-7.5,3.4-7.5,7.5 c0,3.9,2.9,7,6.7,7.5H477v64.2c-3.4,0.7-6,3.7-6,7.3s2.6,6.7,6,7.3v64.3c-3.4,0.7-6,3.7-6,7.3s2.6,6.7,6,7.3v65.3 c-3.4,0.7-6,3.7-6,7.3c0,4.1,3.4,7.5,7.5,7.5s7.5-3.4,7.5-7.5c0-3.6-2.6-6.7-6-7.3v-65.3c3.4-0.7,6-3.7,6-7.3s-2.6-6.7-6-7.3 v-64.3C483.4,269.7,486,266.6,486,263z" class="st4"/><circle id="circle285" cx="478.8" cy="184" r="4.5" class="st5"/><circle id="circle287" cx="478.8" cy="263" r="4.5" class="st5"/><circle id="circle289" cx="478.8" cy="342" r="4.5" class="st5"/><circle id="circle291" cx="478.8" cy="422" r="4.5" class="st5"/><path id="path293" d="M34.5,74v417h356V74H34.5z M388,488.4H37v-412h351V488.4z" class="st8"/><path id="path295" d="M405.5,74v417h356V74H405.5z M759,488.4H408v-412h351V488.4z" class="st8"/><g id="g297"><path id="path299" d="M38,43c0,2,1.6,2.8,3.3,2.8c1.2,0,2.9-0.3,2.9-1.9c0-1.6-2.3-1.9-4.5-2.5c-2.2-0.5-4.5-1.5-4.5-4.3 c0-3.1,2.9-4.5,5.6-4.5c3.1,0,6,1.4,6,4.8h-3.2c-0.1-1.8-1.4-2.3-3-2.3c-1,0-2.3,0.4-2.3,1.7c0,1.2,0.7,1.3,4.5,2.3 c1.1,0.3,4.5,1,4.5,4.4c0,2.8-2.1,4.8-6.2,4.8c-3.3,0-6.4-1.6-6.4-5.3H38z" class="st6"/><path id="path301" d="M51.7,35.5h-3V33h3V35.5z M48.8,37.1h3V48h-3V37.1z" class="st6"/><path id="path303" d="M53.8,37.1h2.8v1.5h0.1c0.8-1.2,2.1-1.8,3.3-1.8c3.2,0,4,1.8,4,4.5V48h-3v-6.1c0-1.8-0.5-2.7-1.9-2.7 c-1.6,0-2.3,0.9-2.3,3.1V48h-3V37.1z" class="st6"/><path id="path305" d="M76.1,47.3c0,1.8-0.7,4.8-5.6,4.8c-2.1,0-4.6-1-4.8-3.5h3c0.3,1.1,1.2,1.5,2.2,1.5c1.7,0,2.4-1.1,2.4-2.7V46 h0c-0.7,1.2-1.9,1.7-3.3,1.7c-3.3,0-4.6-2.5-4.6-5.5c0-2.8,1.6-5.4,4.7-5.4c1.4,0,2.5,0.5,3.2,1.7h0v-1.4h2.8V47.3z M73.3,42.4 c0-1.8-0.6-3.3-2.5-3.3c-1.7,0-2.4,1.5-2.4,3.1c0,1.6,0.6,3.3,2.4,3.3C72.5,45.4,73.3,44,73.3,42.4z" class="st6"/><path id="path307" d="M78.2,33h3v15h-3V33z" class="st6"/><path id="path309" d="M85.7,43.3c0.1,1.9,1,2.8,2.7,2.8c1.2,0,2.2-0.7,2.4-1.4h2.6c-0.8,2.6-2.6,3.7-5.1,3.7 c-3.4,0-5.5-2.4-5.5-5.7c0-3.3,2.2-5.7,5.5-5.7c3.7,0,5.5,3.1,5.3,6.4H85.7z M90.5,41.4c-0.3-1.5-0.9-2.3-2.4-2.3 c-1.9,0-2.4,1.5-2.5,2.3H90.5z" class="st6"/><path id="path311" d="M107.1,32.7c4.6,0,7.4,3.5,7.4,7.9c0,4.3-2.8,7.8-7.4,7.8s-7.4-3.5-7.4-7.8C99.7,36.1,102.4,32.7,107.1,32.7 z M107.1,45.6c3,0,4.1-2.5,4.1-5c0-2.6-1.1-5.1-4.1-5.1s-4.1,2.5-4.1,5.1C103,43.1,104.1,45.6,107.1,45.6z" class="st6"/><path id="path313" d="M116,37.1h2.8v2h0c0.6-1.4,2-2.3,3.5-2.3c0.2,0,0.4,0,0.7,0.1v2.8c-0.3-0.1-0.7-0.1-1.1-0.1 c-2.2,0-2.9,1.6-2.9,3.5V48h-3V37.1z" class="st6"/><path id="path315" d="M134,47.3c0,1.8-0.7,4.8-5.6,4.8c-2.1,0-4.6-1-4.8-3.5h3c0.3,1.1,1.2,1.5,2.2,1.5c1.7,0,2.4-1.1,2.4-2.7V46 h0c-0.7,1.2-1.9,1.7-3.3,1.7c-3.3,0-4.6-2.5-4.6-5.5c0-2.8,1.6-5.4,4.7-5.4c1.4,0,2.5,0.5,3.2,1.7h0v-1.4h2.8V47.3z M131.2,42.4 c0-1.8-0.6-3.3-2.5-3.3c-1.7,0-2.4,1.5-2.4,3.1c0,1.6,0.6,3.3,2.4,3.3C130.3,45.4,131.2,44,131.2,42.4z" class="st6"/><path id="path317" d="M135.8,40.5c0.2-2.8,2.7-3.6,5.1-3.6c2.2,0,4.8,0.5,4.8,3.1v5.6c0,1,0.1,2,0.4,2.4h-3 c-0.1-0.3-0.2-0.7-0.2-1c-0.9,1-2.3,1.3-3.7,1.3c-2.1,0-3.7-1-3.7-3.3c0-4.9,7.3-2.3,7.2-4.7c0-1.3-0.9-1.5-1.9-1.5 c-1.2,0-1.9,0.5-2,1.6H135.8z M142.7,42.7c-0.5,0.4-1.6,0.5-2.5,0.6s-1.8,0.5-1.8,1.6s0.9,1.4,1.8,1.4c2.3,0,2.4-1.8,2.4-2.5 V42.7z" class="st6"/><path id="path319" d="M147.9,37.1h2.8v1.5h0.1c0.8-1.2,2.1-1.8,3.3-1.8c3.2,0,4,1.8,4,4.5V48h-3v-6.1c0-1.8-0.5-2.7-1.9-2.7 c-1.6,0-2.3,0.9-2.3,3.1V48h-3V37.1z" class="st6"/><path id="path321" d="M163,35.5h-3V33h3V35.5z M160.1,37.1h3V48h-3V37.1z" class="st6"/><path id="path323" d="M164.4,45.8l5.6-6.4h-5.2v-2.2h9.2v2.2l-5.6,6.4h6V48h-10V45.8z" class="st6"/><path id="path325" d="M175.8,40.5c0.2-2.8,2.7-3.6,5.1-3.6c2.2,0,4.8,0.5,4.8,3.1v5.6c0,1,0.1,2,0.4,2.4h-3 c-0.1-0.3-0.2-0.7-0.2-1c-0.9,1-2.3,1.3-3.7,1.3c-2.1,0-3.7-1-3.7-3.3c0-4.9,7.3-2.3,7.2-4.7c0-1.3-0.9-1.5-1.9-1.5 c-1.2,0-1.9,0.5-2,1.6H175.8z M182.7,42.7c-0.5,0.4-1.6,0.5-2.5,0.6s-1.8,0.5-1.8,1.6s0.9,1.4,1.8,1.4c2.3,0,2.4-1.8,2.4-2.5 V42.7z" class="st6"/><path id="path327" d="M191.5,37.1h2.2v2h-2.2v5.4c0,1,0.3,1.3,1.3,1.3c0.3,0,0.7,0,0.9-0.1V48c-0.5,0.1-1.2,0.1-1.7,0.1 c-1.8,0-3.4-0.4-3.4-2.6v-6.4h-1.8v-2h1.8v-3.3h3V37.1z" class="st6"/><path id="path329" d="M198.3,35.5h-3V33h3V35.5z M195.3,37.1h3V48h-3V37.1z" class="st6"/><path id="path331" d="M205.5,36.9c3.4,0,5.6,2.3,5.6,5.7c0,3.4-2.2,5.7-5.6,5.7c-3.4,0-5.6-2.3-5.6-5.7 C199.9,39.1,202.1,36.9,205.5,36.9z M205.5,46c2,0,2.6-1.7,2.6-3.5s-0.6-3.5-2.6-3.5c-2,0-2.6,1.7-2.6,3.5S203.5,46,205.5,46z" class="st6"/><path id="path333" d="M212.7,37.1h2.8v1.5h0.1c0.8-1.2,2.1-1.8,3.3-1.8c3.2,0,4,1.8,4,4.5V48h-3v-6.1c0-1.8-0.5-2.7-1.9-2.7 c-1.6,0-2.3,0.9-2.3,3.1V48h-3V37.1z" class="st6"/></g><g id="g335"><rect id="rect337" width="3" height="10" x="797" class="st7"/><rect id="rect339" width="3" height="10" x="797" y="20" class="st7"/><rect id="rect341" width="3" height="10" x="797" y="40" class="st7"/><rect id="rect343" width="3" height="10" x="797" y="60" class="st7"/><rect id="rect345" width="3" height="10" x="797" y="80" class="st7"/></g><g id="g347"><rect id="rect349" width="10" height="3" class="st7"/><rect id="rect351" width="10" height="3" x="20" class="st7"/><rect id="rect353" width="10" height="3" x="40" class="st7"/><rect id="rect355" width="10" height="3" x="60" class="st7"/><rect id="rect357" width="10" height="3" x="80" class="st7"/><rect id="rect359" width="10" height="3" x="100" class="st7"/><rect id="rect361" width="10" height="3" x="120" class="st7"/><rect id="rect363" width="10" height="3" x="140" class="st7"/><rect id="rect365" width="10" height="3" x="160" class="st7"/><rect id="rect367" width="10" height="3" x="180" class="st7"/><rect id="rect369" width="10" height="3" x="200" class="st7"/><rect id="rect371" width="10" height="3" x="220" class="st7"/><rect id="rect373" width="10" height="3" x="240" class="st7"/><rect id="rect375" width="10" height="3" x="260" class="st7"/><rect id="rect377" width="10" height="3" x="280" class="st7"/><rect id="rect379" width="10" height="3" x="300" class="st7"/><rect id="rect381" width="10" height="3" x="320" class="st7"/><rect id="rect383" width="10" height="3" x="340" class="st7"/><rect id="rect385" width="10" height="3" x="360" class="st7"/><rect id="rect387" width="10" height="3" x="380" class="st7"/><rect id="rect389" width="10" height="3" x="400" class="st7"/><rect id="rect391" width="10" height="3" x="420" class="st7"/><rect id="rect393" width="10" height="3" x="440" class="st7"/><rect id="rect395" width="10" height="3" x="460" class="st7"/><rect id="rect397" width="10" height="3" x="480" class="st7"/><rect id="rect399" width="10" height="3" x="500" class="st7"/><rect id="rect401" width="10" height="3" x="520" class="st7"/><rect id="rect403" width="10" height="3" x="540" class="st7"/><rect id="rect405" width="10" height="3" x="560" class="st7"/><rect id="rect407" width="3" height="10" y="10.5" class="st7"/><rect id="rect409" width="3" height="10" y="30.5" class="st7"/><rect id="rect411" width="3" height="10" y="50.5" class="st7"/><rect id="rect413" width="3" height="10" y="70.5" class="st7"/><rect id="rect415" width="3" height="10" y="90.5" class="st7"/><rect id="rect417" width="3" height="10" y="110.5" class="st7"/><rect id="rect419" width="3" height="10" y="130.5" class="st7"/><rect id="rect421" width="3" height="10" y="150.5" class="st7"/><rect id="rect423" width="3" height="10" y="170.5" class="st7"/><rect id="rect425" width="3" height="10" y="190.5" class="st7"/><rect id="rect427" width="3" height="10" y="210.5" class="st7"/><rect id="rect429" width="3" height="10" y="230.5" class="st7"/><rect id="rect431" width="3" height="10" y="250.5" class="st7"/><rect id="rect433" width="3" height="10" y="270.5" class="st7"/><rect id="rect435" width="3" height="10" y="290.5" class="st7"/><rect id="rect437" width="3" height="10" y="310.5" class="st7"/><rect id="rect439" width="3" height="10" y="330.5" class="st7"/><rect id="rect441" width="3" height="10" y="350.5" class="st7"/><rect id="rect443" width="3" height="10" y="370.5" class="st7"/><rect id="rect445" width="3" height="10" y="390.5" class="st7"/><rect id="rect447" width="3" height="10" y="410.5" class="st7"/><rect id="rect449" width="10" height="3" x="580" class="st7"/><rect id="rect451" width="10" height="3" x="600" class="st7"/><rect id="rect453" width="10" height="3" x="620" class="st7"/><rect id="rect455" width="10" height="3" x="640" class="st7"/><rect id="rect457" width="10" height="3" x="660" class="st7"/><rect id="rect459" width="10" height="3" x="680" class="st7"/><rect id="rect461" width="10" height="3" x="700" class="st7"/><rect id="rect463" width="10" height="3" x="720" class="st7"/><rect id="rect465" width="10" height="3" x="740" class="st7"/><rect id="rect467" width="10" height="3" x="760" class="st7"/><rect id="rect469" width="10" height="3" x="780" class="st7"/><rect id="rect471" width="10" height="3" x="20" y="520" class="st7"/><rect id="rect473" width="10" height="3" x="40" y="520" class="st7"/><rect id="rect475" width="10" height="3" x="60" y="520" class="st7"/><rect id="rect477" width="10" height="3" x="80" y="520" class="st7"/><rect id="rect479" width="10" height="3" x="100" y="520" class="st7"/><rect id="rect481" width="10" height="3" x="120" y="520" class="st7"/><rect id="rect483" width="10" height="3" x="140" y="520" class="st7"/><rect id="rect485" width="10" height="3" x="160" y="520" class="st7"/><rect id="rect487" width="10" height="3" x="180" y="520" class="st7"/><rect id="rect489" width="10" height="3" x="200" y="520" class="st7"/><rect id="rect491" width="10" height="3" x="220" y="520" class="st7"/><rect id="rect493" width="10" height="3" x="240" y="520" class="st7"/><rect id="rect495" width="10" height="3" x="260" y="520" class="st7"/><rect id="rect497" width="10" height="3" x="280" y="520" class="st7"/><rect id="rect499" width="10" height="3" x="300" y="520" class="st7"/><rect id="rect501" width="10" height="3" x="320" y="520" class="st7"/><rect id="rect503" width="10" height="3" x="340" y="520" class="st7"/><rect id="rect505" width="10" height="3" x="360" y="520" class="st7"/><rect id="rect507" width="10" height="3" x="380" y="520" class="st7"/><rect id="rect509" width="10" height="3" x="400" y="520" class="st7"/><rect id="rect511" width="10" height="3" x="420" y="520" class="st7"/><rect id="rect513" width="10" height="3" x="440" y="520" class="st7"/><rect id="rect515" width="10" height="3" x="460" y="520" class="st7"/><rect id="rect517" width="10" height="3" x="480" y="520" class="st7"/><rect id="rect519" width="10" height="3" x="500" y="520" class="st7"/><rect id="rect521" width="10" height="3" x="520" y="520" class="st7"/><rect id="rect523" width="10" height="3" x="540" y="520" class="st7"/><rect id="rect525" width="10" height="3" x="560" y="520" class="st7"/><rect id="rect527" width="10" height="3" x="580" y="520" class="st7"/><rect id="rect529" width="10" height="3" x="600" y="520" class="st7"/><rect id="rect531" width="10" height="3" x="620" y="520" class="st7"/><rect id="rect533" width="10" height="3" x="640" y="520" class="st7"/><rect id="rect535" width="10" height="3" x="660" y="520" class="st7"/><rect id="rect537" width="10" height="3" x="680" y="520" class="st7"/><rect id="rect539" width="10" height="3" x="700" y="520" class="st7"/><rect id="rect541" width="10" height="3" x="720" y="520" class="st7"/><rect id="rect543" width="10" height="3" x="740" y="520" class="st7"/><rect id="rect545" width="10" height="3" x="760" y="520" class="st7"/><rect id="rect547" width="10" height="3" x="780" y="520" class="st7"/><rect id="rect549" width="3" height="10" y="430.5" class="st7"/><rect id="rect551" width="3" height="10" y="450.5" class="st7"/><rect id="rect553" width="3" height="10" y="470.5" class="st7"/><rect id="rect555" width="3" height="10" y="490.5" class="st7"/><polygon id="polygon557" points="3 510.5 0 510.5 0 520 0 520.5 0 523 10 523 10 520 3 520" class="st7"/><rect id="rect559" width="3" height="10" x="797" class="st7"/><rect id="rect561" width="3" height="10" x="797" y="20" class="st7"/><rect id="rect563" width="3" height="10" x="797" y="40" class="st7"/><rect id="rect565" width="3" height="10" x="797" y="60" class="st7"/><rect id="rect567" width="3" height="10" x="797" y="80" class="st7"/><rect id="rect569" width="3" height="10" x="797" y="100" class="st7"/><rect id="rect571" width="3" height="10" x="797" y="120" class="st7"/><rect id="rect573" width="3" height="10" x="797" y="140" class="st7"/><rect id="rect575" width="3" height="10" x="797" y="160" class="st7"/><rect id="rect577" width="3" height="10" x="797" y="180" class="st7"/><rect id="rect579" width="3" height="10" x="797" y="200" class="st7"/><rect id="rect581" width="3" height="10" x="797" y="220" class="st7"/><rect id="rect583" width="3" height="10" x="797" y="240" class="st7"/><rect id="rect585" width="3" height="10" x="797" y="260" class="st7"/><rect id="rect587" width="3" height="10" x="797" y="280" class="st7"/><rect id="rect589" width="3" height="10" x="797" y="300" class="st7"/><rect id="rect591" width="3" height="10" x="797" y="320" class="st7"/><rect id="rect593" width="3" height="10" x="797" y="340" class="st7"/><rect id="rect595" width="3" height="10" x="797" y="360" class="st7"/><rect id="rect597" width="3" height="10" x="797" y="380" class="st7"/><rect id="rect599" width="3" height="10" x="797" y="400" class="st7"/><rect id="rect601" width="3" height="10" x="797" y="419" class="st7"/><rect id="rect603" width="3" height="10" x="797" y="439" class="st7"/><rect id="rect605" width="3" height="10" x="797" y="459" class="st7"/><rect id="rect607" width="3" height="10" x="797" y="479" class="st7"/><rect id="rect609" width="3" height="10" x="797" y="499" class="st7"/></g></g></switch></svg>